<?xml version="1.0" standalone="no"?>
<!DOCTYPE svg PUBLIC "-//W3C//DTD SVG 20010904//EN"
 "http://www.w3.org/TR/2001/REC-SVG-20010904/DTD/svg10.dtd">
<svg version="1.0" xmlns="http://www.w3.org/2000/svg"
 width="1000.000000pt" height="238.000000pt" viewBox="0 0 1000.000000 238.000000"
 preserveAspectRatio="xMidYMid meet">

<g transform="translate(0.000000,238.000000) scale(0.100000,-0.100000)"
 stroke="none">
<path d="M720 1265 l0 -775 328 0 c360 0 469 10 588 55 95 36 149 69 217 134
148 141 217 365 204 668 -4 97 -12 160 -27 213 -62 215 -198 359 -407 429
-124 42 -228 51 -575 51 l-328 0 0 -775z m733 480 c186 -48 277 -206 277 -481
0 -157 -43 -285 -126 -374 -91 -98 -191 -130 -401 -130 l-143 0 0 500 0 500
168 0 c116 0 185 -5 225 -15z"/>
<path d="M4288 1446 l-3 -594 -31 -39 c-38 -47 -91 -67 -162 -60 -114 12 -162
77 -170 233 l-5 94 -153 0 -154 0 0 -97 c1 -269 119 -437 351 -498 72 -20 258
-19 332 0 131 34 227 107 281 214 54 106 56 128 56 759 l0 582 -170 0 -170 0
-2 -594z"/>
<path d="M8290 1678 l0 -278 -275 0 -275 0 0 -175 0 -175 273 -2 272 -3 3
-277 2 -278 180 0 180 0 2 277 3 278 273 3 272 2 0 175 0 175 -275 0 -275 0 0
278 0 277 -180 0 -180 0 0 -277z"/>
<path d="M6967 1944 c-4 -4 -7 -78 -7 -165 l0 -158 -67 -3 -68 -3 0 -110 0
-110 67 -3 66 -3 5 -357 c3 -247 8 -369 17 -397 16 -51 74 -109 125 -125 22
-7 115 -15 208 -17 l167 -5 0 121 0 121 -79 0 c-85 0 -119 15 -122 55 -1 11
-1 152 -1 313 l2 292 85 0 85 0 0 115 0 115 -85 0 -85 0 -2 163 -3 162 -151 3
c-82 1 -153 -1 -157 -4z"/>
<path d="M2788 1624 c-76 -18 -142 -52 -200 -103 l-47 -42 -3 68 -3 68 -147 3
-148 3 0 -566 0 -565 155 0 155 0 0 293 c0 320 6 366 55 437 48 70 163 119
278 120 l37 0 0 150 0 150 -37 -1 c-21 0 -64 -7 -95 -15z"/>
<path d="M5200 1624 c-87 -19 -178 -65 -230 -117 -48 -47 -95 -139 -104 -204
l-6 -43 154 0 153 0 7 38 c13 85 85 131 204 132 120 0 171 -34 180 -120 4 -46
2 -52 -27 -79 -41 -39 -95 -56 -271 -86 -80 -14 -175 -34 -211 -45 -134 -40
-207 -130 -216 -269 -9 -133 41 -250 135 -310 148 -95 430 -78 578 35 l44 34
11 -27 c13 -36 46 -70 84 -91 48 -25 161 -22 224 7 l51 24 0 119 c0 65 -2 118
-4 118 -2 0 -16 -7 -32 -15 -52 -27 -52 -23 -56 343 -3 330 -4 338 -26 384
-29 57 -88 113 -148 140 -106 46 -354 63 -494 32z m345 -809 c-27 -94 -111
-145 -237 -145 -120 0 -168 36 -168 125 0 90 34 114 210 146 90 16 163 37 186
53 18 14 19 11 22 -56 2 -42 -3 -91 -13 -123z"/>
<path d="M6643 1625 c-74 -16 -148 -54 -209 -108 l-43 -38 -3 68 -3 68 -147 3
-148 3 0 -566 0 -565 155 0 155 0 0 293 c0 241 3 303 16 348 38 129 124 190
284 205 l70 7 0 148 0 149 -32 -1 c-18 0 -61 -7 -95 -14z"/>
<path d="M3100 655 l0 -165 165 0 165 0 0 165 0 165 -165 0 -165 0 0 -165z"/>
</g>
</svg>
