<?xml version="1.0" standalone="no"?>
<!DOCTYPE svg PUBLIC "-//W3C//DTD SVG 20010904//EN"
 "http://www.w3.org/TR/2001/REC-SVG-20010904/DTD/svg10.dtd">
<svg version="1.0" xmlns="http://www.w3.org/2000/svg"
 width="320.000000pt" height="160.000000pt" viewBox="0 0 320.000000 160.000000"
 preserveAspectRatio="xMidYMid meet">

<g transform="translate(0.000000,160.000000) scale(0.100000,-0.100000)"
 stroke="none">
<path d="M732 1149 c-144 -24 -267 -120 -340 -268 -23 -46 -42 -89 -42 -96 0
-18 -69 -28 -138 -22 -38 4 -49 3 -32 -2 14 -5 53 -9 88 -10 62 -1 62 -1 62
-31 0 -98 48 -188 115 -216 49 -20 145 -27 215 -15 66 12 190 65 190 81 0 5
-23 -3 -51 -17 -156 -81 -348 5 -349 158 l0 36 88 6 c268 17 422 125 422 296
0 51 -29 84 -86 100 -44 12 -67 12 -142 0z m153 -74 c30 -29 32 -63 6 -114
-51 -99 -186 -164 -383 -184 -58 -6 -59 -2 -16 84 87 174 311 297 393 214z"/>
<path d="M2989 1037 c-67 -35 -118 -137 -69 -137 29 0 82 24 102 46 9 11 26
40 37 67 l20 47 -23 0 c-12 0 -43 -10 -67 -23z"/>
<path d="M963 882 c-62 -19 -81 -76 -42 -126 12 -15 44 -38 72 -52 29 -15 60
-33 70 -42 24 -21 21 -58 -5 -76 -25 -18 -94 -21 -133 -6 -20 8 -27 7 -32 -6
-10 -26 18 -35 104 -32 70 3 85 6 107 27 28 26 35 76 16 112 -6 10 -39 33 -73
50 -100 50 -118 77 -77 114 16 15 30 17 81 11 48 -6 60 -4 57 6 -8 22 -96 34
-145 20z"/>
<path d="M2727 878 c-149 -41 -151 -267 -3 -323 51 -20 145 -17 186 5 31 17
12 34 -24 20 -39 -15 -103 -12 -140 5 -90 43 -101 190 -20 254 36 28 78 26
131 -5 44 -25 63 -25 63 1 0 37 -121 64 -193 43z"/>
<path d="M1160 845 c0 -19 5 -35 10 -35 6 0 10 6 10 14 0 17 22 26 61 26 l29
0 0 -155 0 -155 30 0 30 0 0 155 0 155 40 0 c29 0 43 -5 52 -20 19 -29 28 -24
28 15 l0 35 -145 0 -145 0 0 -35z"/>
<path d="M1460 871 c0 -5 11 -12 25 -15 l25 -6 0 -155 c0 -148 1 -155 20 -155
18 0 20 7 20 85 l0 85 90 0 90 0 0 -85 c0 -84 0 -85 25 -85 l25 0 0 170 0 170
-25 0 c-24 0 -25 -2 -25 -70 l0 -70 -90 0 -90 0 0 70 0 70 -45 0 c-25 0 -45
-4 -45 -9z"/>
<path d="M1830 875 c0 -3 11 -10 25 -15 l25 -10 0 -155 0 -155 115 0 115 0 0
40 c0 46 -6 51 -20 15 -9 -24 -13 -25 -90 -25 l-80 0 0 70 0 71 62 -3 c53 -3
64 -6 74 -25 15 -32 24 -18 24 38 0 51 -14 73 -25 39 -5 -17 -15 -20 -71 -20
l-64 0 0 54 c0 60 6 66 70 66 49 0 90 -15 90 -34 0 -8 5 -18 10 -21 6 -4 10
10 10 34 l0 41 -135 0 c-74 0 -135 -2 -135 -5z"/>
<path d="M2140 845 c0 -39 9 -44 28 -15 9 15 23 20 57 20 l45 0 0 -155 0 -155
25 0 25 0 0 155 0 155 40 0 c32 0 42 -5 53 -26 17 -33 31 -16 22 26 l-7 30
-144 0 -144 0 0 -35z"/>
<path d="M2443 874 c4 -4 17 -12 29 -18 22 -11 23 -17 26 -164 2 -144 4 -152
22 -152 19 0 20 7 20 170 l0 170 -52 0 c-28 0 -48 -3 -45 -6z"/>
<path d="M2220 443 c3 -48 10 -78 18 -81 8 -2 12 9 12 37 0 39 2 41 30 41 28
0 30 -2 30 -40 0 -29 4 -40 15 -40 12 0 15 16 15 80 0 64 -3 80 -15 80 -10 0
-15 -11 -15 -35 0 -32 -2 -35 -30 -35 -28 0 -30 3 -30 35 0 27 -4 35 -17 35
-16 0 -17 -8 -13 -77z"/>
<path d="M2387 502 c-24 -26 -23 -104 1 -125 23 -21 62 -22 88 -3 27 20 27
112 0 132 -27 19 -70 18 -89 -4z m67 -8 c30 -30 13 -124 -23 -124 -18 0 -31
28 -31 70 0 63 23 86 54 54z"/>
<path d="M2520 456 c3 -35 11 -71 19 -80 15 -18 57 -21 81 -6 18 11 29 150 12
150 -7 0 -12 -28 -14 -66 -2 -52 -7 -69 -21 -78 -28 -17 -47 17 -47 86 0 49
-3 58 -18 58 -15 0 -17 -7 -12 -64z"/>
<path d="M2672 508 c-21 -21 -13 -47 23 -70 48 -31 45 -65 -4 -60 -22 2 -31 0
-26 -7 9 -15 68 -14 83 1 24 24 14 58 -23 80 -43 25 -44 55 -2 50 15 -1 27 2
27 8 0 14 -63 13 -78 -2z"/>
<path d="M2778 508 c7 -7 12 -40 12 -80 l0 -68 45 0 c40 0 45 2 44 23 0 12 -3
16 -6 10 -2 -7 -16 -13 -29 -13 -20 0 -24 5 -24 30 0 31 17 39 38 18 9 -9 12
-6 12 17 0 23 -3 26 -12 17 -20 -20 -38 -14 -38 13 0 20 5 25 24 25 13 0 27
-6 29 -12 3 -7 6 -3 6 10 1 20 -3 22 -56 22 -44 0 -54 -3 -45 -12z"/>
</g>
</svg>
