<?xml version="1.0" standalone="no"?>
<!DOCTYPE svg PUBLIC "-//W3C//DTD SVG 20010904//EN"
 "http://www.w3.org/TR/2001/REC-SVG-20010904/DTD/svg10.dtd">
<svg version="1.0" xmlns="http://www.w3.org/2000/svg"
 width="434.000000pt" height="190.000000pt" viewBox="0 0 434.000000 190.000000"
 preserveAspectRatio="xMidYMid meet">

<g transform="translate(0.000000,190.000000) scale(0.100000,-0.100000)"
 stroke="none">
<path d="M3500 1560 c0 -11 -4 -20 -10 -20 -5 0 -10 -7 -10 -15 0 -8 5 -15 10
-15 6 0 10 -16 10 -36 0 -27 -7 -43 -29 -63 -22 -20 -28 -34 -24 -50 6 -25
-11 -28 -27 -3 -10 14 -11 13 -6 -8 3 -14 6 -30 6 -36 0 -7 10 -14 22 -17 l21
-6 -7 -313 c-3 -172 -9 -328 -12 -345 l-6 -33 386 0 c212 0 386 4 386 9 0 4
-30 16 -67 25 -341 87 -504 174 -574 307 -21 39 -24 58 -24 154 0 92 -3 115
-19 139 -18 26 -19 33 -6 85 15 64 16 104 6 143 -7 24 -5 28 26 36 27 7 32 13
30 32 -4 34 -21 50 -53 50 -22 0 -29 -5 -29 -20z"/>
<path d="M3400 1455 c0 -8 2 -15 4 -15 2 0 6 7 10 15 3 8 1 15 -4 15 -6 0 -10
-7 -10 -15z"/>
<path d="M1579 1282 c-8 -1 -30 -33 -49 -70 -37 -69 -205 -376 -269 -492 -20
-36 -41 -78 -48 -93 l-12 -28 57 3 57 3 35 67 35 68 232 0 233 0 25 -40 c14
-22 25 -43 25 -47 1 -5 9 -18 19 -30 15 -18 30 -23 70 -23 28 0 51 3 51 7 0 5
-79 156 -129 246 -10 18 -66 121 -125 230 -60 108 -113 197 -120 198 -50 3
-75 4 -87 1z m132 -286 c44 -76 77 -142 73 -147 -3 -5 -77 -9 -165 -9 -129 0
-159 3 -159 14 0 21 154 286 164 283 4 -1 44 -65 87 -141z"/>
<path d="M70 939 l0 -340 48 3 47 3 0 263 c0 191 3 262 12 262 6 0 42 -53 81
-117 165 -279 218 -369 227 -388 9 -17 21 -20 70 -20 l59 0 51 87 c27 49 86
149 130 223 44 75 90 153 103 175 44 75 47 60 47 -222 l0 -263 48 -3 47 -3 0
341 0 341 -72 -3 -72 -3 -68 -110 c-37 -60 -112 -183 -165 -273 -54 -89 -103
-161 -110 -160 -6 2 -82 120 -168 263 -86 143 -161 266 -167 273 -7 7 -36 12
-79 12 l-69 0 0 -341z"/>
<path d="M2335 1273 c-67 -17 -129 -111 -127 -194 2 -78 51 -154 115 -178 17
-7 122 -11 267 -11 158 0 248 -4 264 -11 32 -15 60 -72 51 -106 -3 -13 -17
-36 -30 -49 l-24 -24 -326 0 -325 0 0 -50 0 -50 335 0 c367 0 368 0 418 60 30
35 52 126 42 173 -13 60 -54 117 -98 138 -38 17 -69 19 -290 19 l-249 0 -29
29 c-37 37 -39 84 -5 126 l24 30 321 3 321 3 6 23 c3 13 4 35 2 47 l-3 24
-320 1 c-176 1 -329 0 -340 -3z"/>
<path d="M3167 1273 c-4 -3 -7 -154 -7 -333 0 -250 3 -330 13 -338 13 -11 72
-11 83 1 5 5 9 561 5 660 -1 13 -10 17 -44 17 -24 0 -47 -3 -50 -7z"/>
</g>
</svg>
