<svg width="180" height="50" viewBox="0 0 846 313" fill="none" xmlns="http://www.w3.org/2000/svg">
<path d="M111.929 127C104.101 127 97.9922 124.924 93.6037 120.773C89.3338 116.622 87.1989 110.869 87.1989 103.516V25.412C87.1989 18.2955 89.3338 12.7209 93.6037 8.68819C97.8736 4.5369 103.804 2.46125 111.395 2.46125H153.204C165.777 2.46125 175.503 5.42646 182.382 11.3569C189.261 17.2873 192.701 25.6492 192.701 36.4425C192.701 42.373 191.1 47.651 187.897 52.2768C184.695 56.9025 180.425 60.4014 175.088 62.7736V62.9515C181.137 65.2051 185.94 68.7633 189.499 73.6263C193.057 78.4892 194.836 84.0638 194.836 90.35C194.836 101.736 191.278 110.691 184.161 117.215C177.163 123.738 167.556 127 155.339 127H111.929ZM154.094 56.5466C160.855 56.5466 166.133 54.7675 169.928 51.2093C173.842 47.651 175.799 42.7288 175.799 36.4425C175.799 29.6819 173.842 24.5817 169.928 21.1421C166.133 17.5838 160.558 15.8047 153.204 15.8047H112.64C110.031 15.8047 107.896 16.6943 106.236 18.4734C104.694 20.2525 103.923 22.6247 103.923 25.5899V56.5466H154.094ZM154.094 113.479C161.922 113.479 167.853 111.581 171.885 107.785C175.918 103.871 177.934 98.1189 177.934 90.5279C177.934 84.0045 175.799 78.9636 171.529 75.4054C167.26 71.7285 161.388 69.8901 153.916 69.8901H103.923V103.871C103.923 106.718 104.694 109.031 106.236 110.81C107.896 112.589 110.031 113.479 112.64 113.479H154.094ZM229.976 127C222.267 127 216.218 124.924 211.829 120.773C207.441 116.622 205.247 110.869 205.247 103.516V25.412C205.247 18.2955 207.382 12.7209 211.651 8.68819C215.921 4.5369 221.852 2.46125 229.443 2.46125H284.596C290.17 2.46125 292.957 4.77411 292.957 9.39984C292.957 11.4162 292.186 13.0174 290.645 14.2035C289.221 15.3896 287.205 15.9826 284.596 15.9826H230.866C228.138 15.9826 225.944 16.8722 224.283 18.6513C222.741 20.4304 221.97 22.8026 221.97 25.7678V56.5466H271.074C276.649 56.5466 279.436 58.8595 279.436 63.4852C279.436 65.6202 278.665 67.2807 277.123 68.4668C275.7 69.6529 273.684 70.2459 271.074 70.2459H221.97V103.693C221.97 106.659 222.741 109.031 224.283 110.81C225.944 112.589 228.138 113.479 230.866 113.479H288.51C291.238 113.479 293.313 114.072 294.737 115.258C296.16 116.325 296.872 117.986 296.872 120.239C296.872 122.374 296.101 124.035 294.559 125.221C293.135 126.407 291.119 127 288.51 127H229.976ZM314.782 128.779C312.173 128.779 310.097 128.067 308.555 126.644C307.132 125.102 306.42 123.027 306.42 120.417V53.3442C306.42 36.8577 311.105 23.9887 320.476 14.7372C329.846 5.36715 342.774 0.682125 359.26 0.682125C370.172 0.682125 379.602 2.81708 387.549 7.08698C395.614 11.2383 401.722 17.2873 405.874 25.2341C410.143 33.1808 412.278 42.5509 412.278 53.3442V120.417C412.278 123.027 411.507 125.102 409.966 126.644C408.424 128.067 406.348 128.779 403.739 128.779C401.248 128.779 399.231 128.067 397.69 126.644C396.148 125.102 395.377 123.027 395.377 120.417V84.1231H323.144V120.417C323.144 123.027 322.373 125.102 320.831 126.644C319.408 128.067 317.392 128.779 314.782 128.779ZM395.377 70.6017V52.8105C395.377 40.4752 392.293 31.0459 386.125 24.5224C379.958 17.8803 371.003 14.5593 359.26 14.5593C347.518 14.5593 338.563 17.821 332.396 24.3445C326.228 30.7493 323.144 40.238 323.144 52.8105V70.6017H395.377ZM477.308 128.779C466.515 128.779 457.145 126.644 449.198 122.374C441.251 118.104 435.084 111.996 430.695 104.049C426.425 95.9839 424.29 86.4359 424.29 75.4054V9.04401C424.29 6.43463 425.002 4.41828 426.425 2.99499C427.967 1.45308 430.043 0.682125 432.652 0.682125C435.261 0.682125 437.337 1.45308 438.879 2.99499C440.421 4.41828 441.192 6.43463 441.192 9.04401V75.9391C441.192 88.393 444.335 98.0003 450.621 104.761C457.026 111.522 466.04 114.902 477.664 114.902C489.288 114.902 498.361 111.462 504.885 104.583C511.408 97.7037 514.67 88.1558 514.67 75.9391V9.04401C514.67 6.43463 515.441 4.41828 516.983 2.99499C518.525 1.45308 520.6 0.682125 523.21 0.682125C525.819 0.682125 527.835 1.45308 529.259 2.99499C530.682 4.41828 531.394 6.43463 531.394 9.04401V75.4054C531.394 86.0801 529.199 95.4502 524.811 103.516C520.422 111.581 514.136 117.808 505.952 122.196C497.887 126.585 488.339 128.779 477.308 128.779ZM593.725 128.779C591.116 128.779 589.1 128.067 587.676 126.644C586.253 125.102 585.541 123.027 585.541 120.417V15.9826H546.934C544.325 15.9826 542.249 15.4489 540.708 14.3814C539.284 13.1953 538.573 11.5348 538.573 9.39984C538.573 4.77411 541.36 2.46125 546.934 2.46125H641.05C643.66 2.46125 645.676 3.05429 647.099 4.24037C648.522 5.42646 649.234 7.14628 649.234 9.39984C649.234 11.4162 648.522 13.0174 647.099 14.2035C645.676 15.3896 643.66 15.9826 641.05 15.9826H602.443V120.417C602.443 123.027 601.672 125.102 600.13 126.644C598.588 128.067 596.453 128.779 593.725 128.779ZM752.822 0.682125C755.432 0.682125 757.448 1.45308 758.871 2.99499C760.413 4.41828 761.184 6.43463 761.184 9.04401V30.0377C761.184 40.3566 759.346 49.5488 755.669 57.6141C751.992 65.5609 746.714 72.025 739.835 77.0066C733.074 81.9881 725.127 85.072 715.994 86.258V120.417C715.994 123.027 715.224 125.102 713.682 126.644C712.14 128.067 710.064 128.779 707.455 128.779C704.964 128.779 702.948 128.067 701.406 126.644C699.982 125.102 699.271 123.027 699.271 120.417V86.258C685.156 84.5975 674.066 78.7857 666.001 68.8226C657.936 58.8595 653.903 45.9312 653.903 30.0377V9.04401C653.903 6.43463 654.615 4.41828 656.038 2.99499C657.58 1.45308 659.596 0.682125 662.087 0.682125C664.696 0.682125 666.772 1.45308 668.314 2.99499C669.856 4.41828 670.627 6.43463 670.627 9.04401V30.5714C670.627 43.9742 673.829 54.4117 680.234 61.884C686.758 69.2377 695.831 72.9146 707.455 72.9146C719.078 72.9146 728.152 69.1784 734.675 61.7061C741.199 54.2338 744.46 43.8556 744.46 30.5714V9.04401C744.46 6.43463 745.231 4.41828 746.773 2.99499C748.315 1.45308 750.332 0.682125 752.822 0.682125ZM24.8454 311C17.0173 311 10.909 308.924 6.52046 304.773C2.25056 300.622 0.115608 294.869 0.115608 287.516V209.412C0.115608 202.295 2.25056 196.721 6.52046 192.688C10.7904 188.537 16.7208 186.461 24.3117 186.461H66.1211C78.6936 186.461 88.4195 189.426 95.2988 195.357C102.178 201.287 105.618 209.649 105.618 220.443C105.618 226.373 104.017 231.651 100.814 236.277C97.6117 240.902 93.3418 244.401 88.0044 246.774V246.952C94.0534 249.205 98.857 252.763 102.415 257.626C105.974 262.489 107.753 268.064 107.753 274.35C107.753 285.736 104.194 294.691 97.0779 301.215C90.08 307.738 80.4728 311 68.2561 311H24.8454ZM67.0107 240.547C73.7714 240.547 79.0494 238.768 82.8449 235.209C86.759 231.651 88.716 226.729 88.716 220.443C88.716 213.682 86.759 208.582 82.8449 205.142C79.0494 201.584 73.4749 199.805 66.1211 199.805H25.5571C22.9477 199.805 20.8128 200.694 19.1522 202.473C17.6103 204.253 16.8394 206.625 16.8394 209.59V240.547H67.0107ZM67.0107 297.479C74.8389 297.479 80.7693 295.581 84.802 291.785C88.8346 287.871 90.851 282.119 90.851 274.528C90.851 268.004 88.716 262.964 84.4461 259.405C80.1762 255.729 74.3051 253.89 66.8328 253.89H16.8394V287.871C16.8394 290.718 17.6103 293.031 19.1522 294.81C20.8128 296.589 22.9477 297.479 25.5571 297.479H67.0107ZM143.249 311C135.302 311 129.135 308.924 124.746 304.773C120.476 300.622 118.341 294.869 118.341 287.516V193.044C118.341 190.435 119.053 188.418 120.476 186.995C122.018 185.453 124.094 184.682 126.703 184.682C129.313 184.682 131.388 185.453 132.93 186.995C134.472 188.418 135.243 190.435 135.243 193.044V287.693C135.243 290.659 136.014 293.031 137.556 294.81C139.098 296.589 141.233 297.479 143.961 297.479H202.494C208.068 297.479 210.856 299.732 210.856 304.239C210.856 306.374 210.085 308.035 208.543 309.221C207.12 310.407 205.103 311 202.494 311H143.249ZM266.127 312.779C253.554 312.779 242.346 310.11 232.501 304.773C222.775 299.436 215.184 291.963 209.728 282.356C204.391 272.63 201.722 261.422 201.722 248.731C201.722 236.04 204.391 224.89 209.728 215.283C215.184 205.557 222.775 198.026 232.501 192.688C242.346 187.351 253.554 184.682 266.127 184.682C278.699 184.682 289.848 187.351 299.574 192.688C309.419 198.026 317.01 205.557 322.347 215.283C327.803 224.89 330.531 236.04 330.531 248.731C330.531 261.422 327.803 272.63 322.347 282.356C317.01 291.963 309.419 299.436 299.574 304.773C289.848 310.11 278.699 312.779 266.127 312.779ZM266.127 298.902C275.497 298.902 283.74 296.945 290.857 293.031C298.092 288.998 303.726 283.186 307.758 275.595C311.791 268.004 313.807 259.05 313.807 248.731C313.807 238.174 311.732 229.16 307.58 221.688C303.429 214.097 297.677 208.344 290.323 204.43C282.969 200.516 274.548 198.559 265.059 198.559C255.926 198.559 247.802 200.576 240.685 204.608C233.687 208.641 228.231 214.453 224.317 222.044C220.522 229.516 218.624 238.412 218.624 248.731C218.624 259.05 220.581 268.004 224.495 275.595C228.528 283.186 234.103 288.998 241.219 293.031C248.454 296.945 256.757 298.902 266.127 298.902ZM394.962 312.779C383.457 312.779 372.782 310.881 362.938 307.086C353.212 303.172 345.324 297.775 339.275 290.896C338.089 289.354 337.496 287.871 337.496 286.448C337.496 284.195 338.504 282.237 340.521 280.577C341.825 279.509 343.189 278.976 344.613 278.976C346.748 278.976 348.942 280.103 351.195 282.356C356.295 287.575 362.582 291.667 370.054 294.632C377.645 297.479 385.948 298.902 394.962 298.902C404.45 298.902 411.804 297.182 417.023 293.742C422.36 290.184 425.029 285.262 425.029 278.976C425.029 273.164 422.42 268.479 417.201 264.921C411.982 261.244 403.027 258.041 390.336 255.313C372.901 251.399 360.328 246.477 352.619 240.547C344.909 234.616 341.054 226.788 341.054 217.062C341.054 210.539 343.011 204.846 346.925 199.983C350.84 195.12 356.414 191.383 363.649 188.774C370.884 186.046 379.306 184.682 388.913 184.682C399.825 184.682 409.61 186.58 418.268 190.375C426.927 194.052 433.213 199.093 437.127 205.498C438.076 206.921 438.55 208.404 438.55 209.946C438.55 212.318 437.424 214.275 435.17 215.817C434.103 216.528 432.857 216.884 431.434 216.884C430.129 216.884 428.824 216.588 427.52 215.995C426.215 215.283 425.148 214.394 424.317 213.326C420.878 208.582 416.074 204.964 409.906 202.473C403.857 199.864 396.86 198.559 388.913 198.559C378.831 198.559 371.122 200.161 365.784 203.363C360.565 206.447 357.956 211.013 357.956 217.062C357.956 220.739 359.023 223.941 361.158 226.669C363.293 229.279 366.792 231.651 371.655 233.786C376.518 235.802 383.22 237.819 391.759 239.835C409.669 243.986 422.538 249.146 430.366 255.313C438.195 261.362 442.109 269.25 442.109 278.976C442.109 285.855 440.152 291.845 436.238 296.945C432.442 301.926 426.986 305.841 419.87 308.687C412.753 311.415 404.45 312.779 394.962 312.779ZM506.581 312.779C495.076 312.779 484.401 310.881 474.557 307.086C464.831 303.172 456.943 297.775 450.894 290.896C449.708 289.354 449.115 287.871 449.115 286.448C449.115 284.195 450.124 282.237 452.14 280.577C453.445 279.509 454.809 278.976 456.232 278.976C458.367 278.976 460.561 280.103 462.815 282.356C467.915 287.575 474.201 291.667 481.673 294.632C489.264 297.479 497.567 298.902 506.581 298.902C516.07 298.902 523.423 297.182 528.642 293.742C533.98 290.184 536.648 285.262 536.648 278.976C536.648 273.164 534.039 268.479 528.82 264.921C523.601 261.244 514.646 258.041 501.955 255.313C484.52 251.399 471.947 246.477 464.238 240.547C456.528 234.616 452.674 226.788 452.674 217.062C452.674 210.539 454.631 204.846 458.545 199.983C462.459 195.12 468.033 191.383 475.268 188.774C482.504 186.046 490.925 184.682 500.532 184.682C511.444 184.682 521.229 186.58 529.888 190.375C538.546 194.052 544.832 199.093 548.746 205.498C549.695 206.921 550.17 208.404 550.17 209.946C550.17 212.318 549.043 214.275 546.789 215.817C545.722 216.528 544.476 216.884 543.053 216.884C541.748 216.884 540.444 216.588 539.139 215.995C537.834 215.283 536.767 214.394 535.937 213.326C532.497 208.582 527.693 204.964 521.526 202.473C515.477 199.864 508.479 198.559 500.532 198.559C490.45 198.559 482.741 200.161 477.403 203.363C472.185 206.447 469.575 211.013 469.575 217.062C469.575 220.739 470.643 223.941 472.778 226.669C474.913 229.279 478.412 231.651 483.275 233.786C488.137 235.802 494.839 237.819 503.379 239.835C521.289 243.986 534.158 249.146 541.986 255.313C549.814 261.362 553.728 269.25 553.728 278.976C553.728 285.855 551.771 291.845 547.857 296.945C544.061 301.926 538.605 305.841 531.489 308.687C524.372 311.415 516.07 312.779 506.581 312.779ZM624.961 312.779C612.388 312.779 601.18 310.11 591.335 304.773C581.61 299.436 574.019 291.963 568.563 282.356C563.225 272.63 560.557 261.422 560.557 248.731C560.557 236.04 563.225 224.89 568.563 215.283C574.019 205.557 581.61 198.026 591.335 192.688C601.18 187.351 612.388 184.682 624.961 184.682C637.533 184.682 648.683 187.351 658.409 192.688C668.253 198.026 675.844 205.557 681.181 215.283C686.637 224.89 689.365 236.04 689.365 248.731C689.365 261.422 686.637 272.63 681.181 282.356C675.844 291.963 668.253 299.436 658.409 304.773C648.683 310.11 637.533 312.779 624.961 312.779ZM624.961 298.902C634.331 298.902 642.574 296.945 649.691 293.031C656.926 288.998 662.56 283.186 666.592 275.595C670.625 268.004 672.642 259.05 672.642 248.731C672.642 238.174 670.566 229.16 666.415 221.688C662.263 214.097 656.511 208.344 649.157 204.43C641.803 200.516 633.382 198.559 623.893 198.559C614.761 198.559 606.636 200.576 599.519 204.608C592.522 208.641 587.066 214.453 583.152 222.044C579.356 229.516 577.458 238.412 577.458 248.731C577.458 259.05 579.415 268.004 583.329 275.595C587.362 283.186 592.937 288.998 600.053 293.031C607.288 296.945 615.591 298.902 624.961 298.902ZM703.021 312.779C700.531 312.779 698.514 312.067 696.972 310.644C695.549 309.102 694.837 307.027 694.837 304.417V226.492C694.837 213.445 698.455 203.244 705.69 195.891C713.044 188.418 723.185 184.682 736.113 184.682C743.23 184.682 749.812 186.461 755.861 190.02C761.91 193.578 766.655 198.441 770.094 204.608C773.534 198.322 778.219 193.459 784.15 190.02C790.08 186.461 796.663 184.682 803.898 184.682C816.826 184.682 826.967 188.418 834.321 195.891C841.675 203.244 845.351 213.445 845.351 226.492V304.417C845.351 307.027 844.581 309.102 843.039 310.644C841.497 312.067 839.421 312.779 836.812 312.779C834.202 312.779 832.186 312.067 830.763 310.644C829.339 309.102 828.628 307.027 828.628 304.417V226.492C828.628 217.122 826.671 210.124 822.757 205.498C818.843 200.872 812.378 198.559 803.364 198.559C795.536 198.559 789.368 201.05 784.861 206.032C780.473 210.895 778.278 217.715 778.278 226.492V304.417C778.278 307.027 777.507 309.102 775.966 310.644C774.542 312.067 772.585 312.779 770.094 312.779C767.485 312.779 765.469 312.067 764.045 310.644C762.622 309.102 761.91 307.027 761.91 304.417V226.492C761.91 217.952 759.598 211.191 754.972 206.21C750.465 201.109 744.356 198.559 736.647 198.559C727.751 198.559 721.346 200.931 717.432 205.676C713.518 210.302 711.561 217.24 711.561 226.492V304.417C711.561 307.027 710.79 309.102 709.248 310.644C707.706 312.067 705.631 312.779 703.021 312.779Z" fill="url(#paint0_linear_145_152)"/>
<defs>
<linearGradient id="paint0_linear_145_152" x1="422.5" y1="-32" x2="422.312" y2="423.273" gradientUnits="userSpaceOnUse">
<stop stop-color="#C253CC"/>
<stop offset="1" stop-color="#EADDEB"/>
</linearGradient>
</defs>
</svg>
