<svg width="270" height="270" viewBox="0 0 270 270" fill="null" xmlns="http://www.w3.org/2000/svg">
<rect width="270" height="270" fill="transparent"/>
<path fill-rule="evenodd" clip-rule="evenodd" d="M14.9961 134.999C14.9961 201.273 68.7219 254.999 134.996 254.999C201.27 254.999 254.996 201.273 254.996 134.999C254.996 68.7249 201.27 14.999 134.996 14.999C68.7219 14.999 14.9961 68.7249 14.9961 134.999ZM239.995 134.999C239.995 192.989 192.985 239.999 134.995 239.999C77.0051 239.999 29.995 192.989 29.995 134.999C29.995 77.0093 77.0051 29.9992 134.995 29.9992C192.985 29.9992 239.995 77.0093 239.995 134.999Z" fill="null"/>
<path fill-rule="evenodd" clip-rule="evenodd" d="M60.0898 82.5029C60.0898 86.6451 63.4477 90.0029 67.5898 90.0029H74.9969V149.999H75.0898V165.052C75.0898 173.336 81.8056 180.052 90.0898 180.052H187.526C191.668 180.052 195.026 176.694 195.026 172.552C195.026 168.41 191.668 165.052 187.526 165.052H90.0898V149.999H187.326C190.583 149.999 193.468 147.897 194.466 144.797L208.949 99.7972C209.188 99.0547 209.309 98.2794 209.309 97.4995C209.309 93.3573 205.951 89.9995 201.809 89.9995H90.0898C90.088 81.7168 83.373 75.0029 75.0898 75.0029H67.5898C63.4477 75.0029 60.0898 78.3608 60.0898 82.5029ZM90.0898 135V105H191.516L181.86 135H90.0898Z" fill="null"/>
<path d="M89.9961 202.499C94.1382 202.499 97.4961 199.141 97.4961 194.999C97.4961 190.857 94.1382 187.499 89.9961 187.499C85.854 187.499 82.4961 190.857 82.4961 194.999C82.4961 199.141 85.854 202.499 89.9961 202.499Z" fill="null"/>
<path d="M179.996 202.499C184.138 202.499 187.496 199.141 187.496 194.999C187.496 190.857 184.138 187.499 179.996 187.499C175.854 187.499 172.496 190.857 172.496 194.999C172.496 199.141 175.854 202.499 179.996 202.499Z" fill="null"/>
</svg>
