<svg width="201" height="201" viewBox="0 0 201 201" fill="null" xmlns="http://www.w3.org/2000/svg">
<rect width="201" height="201" fill="transparent"/>
<path fill-rule="evenodd" clip-rule="evenodd" d="M11.1719 100.499C11.1719 149.837 51.1678 189.833 100.505 189.833C149.843 189.833 189.839 149.837 189.839 100.499C189.839 51.1619 149.843 11.166 100.505 11.166C51.1678 11.166 11.1719 51.1619 11.1719 100.499ZM178.668 100.499C178.668 143.669 143.672 178.666 100.502 178.666C57.3314 178.666 22.3349 143.669 22.3349 100.499C22.3349 57.329 57.3314 22.3326 100.502 22.3326C143.672 22.3326 178.668 57.329 178.668 100.499Z" fill="null"/>
<path fill-rule="evenodd" clip-rule="evenodd" d="M75.6992 123.049L77.8999 125.25C84.929 132.1 92.7917 138.322 100.154 142.859C108.02 147.707 115.243 150.75 121.514 150.75C128.024 150.75 134.374 147.627 140.107 143.326C146.344 138.648 150.75 133.838 150.75 127.819C150.75 124.132 148.851 121.008 145.215 117.501C142.966 115.333 140.208 113.165 137.261 111.102C134.352 109.066 131.305 107.181 128.635 105.773C124.584 103.635 121.852 102.786 119.413 102.786C115.553 102.786 112.271 104.763 109.946 108.132C109.258 109.129 108.767 110 108.174 111.265C107.832 111.043 107.472 110.805 107.096 110.549C103.915 108.382 100.434 105.553 97.8549 103.041C95.4471 100.566 92.6175 97.0843 90.451 93.9034C90.1952 93.5277 89.9565 93.168 89.735 92.8259C90.9995 92.2325 91.8697 91.7424 92.8672 91.0546C96.2368 88.7299 98.2131 85.4467 98.2131 81.5871C98.2131 79.1479 97.3652 76.4158 95.2278 72.3654C93.8175 69.6936 91.9324 66.645 89.8978 63.7385C87.8354 60.7921 85.6674 58.0346 83.4994 55.786C79.9918 52.1486 76.8679 50.25 73.1811 50.25C67.1624 50.25 62.3517 54.6564 57.6736 60.8934C53.3723 66.6291 50.25 72.9767 50.25 79.4852C50.25 85.7566 53.2919 92.976 58.141 100.846C62.6779 108.208 68.8997 116.071 75.6992 123.049ZM80.7507 70.142C82.5291 72.6825 84.1711 75.3379 85.3531 77.5773C86.7005 80.1307 87.0404 81.2071 87.0474 81.5745C87.0462 81.5074 87.0219 81.5215 86.528 81.8623C85.8681 82.3173 85.0849 82.7003 83.1742 83.5265C82.8941 83.6476 82.7385 83.7149 82.5833 83.7832C82.3892 83.8686 82.1958 83.9556 81.7605 84.1514C81.5709 84.239 81.4741 84.2837 81.3776 84.3293C81.2768 84.377 81.1765 84.4255 80.9713 84.5249C80.0482 84.9781 79.3459 85.3793 78.6945 85.8984L75.9269 88.1038L76.7402 91.5479C77.2219 93.5879 78.7305 96.5305 81.2229 100.189C83.7493 103.899 86.9888 107.885 89.9606 110.936C93.1159 114.012 97.1014 117.251 100.811 119.778C104.471 122.271 107.413 123.78 109.453 124.261L112.896 125.073L115.102 122.307C115.621 121.656 116.022 120.954 116.475 120.031C116.67 119.629 116.67 119.628 116.849 119.241L116.85 119.24L116.85 119.238C117.202 118.457 117.202 118.457 117.473 117.829C118.299 115.918 118.682 115.134 119.137 114.476C119.476 113.984 119.494 113.955 119.428 113.953C119.798 113.962 120.876 114.304 123.425 115.648C125.662 116.829 128.316 118.471 130.859 120.25C133.369 122.007 135.71 123.848 137.465 125.54C138.631 126.664 139.205 127.374 139.444 127.668C139.544 127.792 139.584 127.842 139.584 127.819C139.584 128.725 136.556 132.031 133.407 134.393C129.473 137.344 124.921 139.583 121.515 139.583C117.933 139.583 112.214 137.174 106.013 133.352C99.3734 129.26 92.1534 123.547 85.7455 117.303L83.647 115.204C77.4537 108.848 71.7405 101.628 67.6487 94.9875C63.8263 88.784 61.4177 83.0676 61.4177 79.4851C61.4177 76.0803 63.6563 71.5293 66.608 67.5931C68.9697 64.4445 72.2755 61.4165 73.1822 61.4165C73.1585 61.4165 73.2087 61.4571 73.3326 61.5574C73.6269 61.7956 74.337 62.3702 75.4619 63.5368C77.1534 65.2912 78.9936 67.6317 80.7507 70.142Z" fill="null"/>
</svg>
