<svg width="240" height="240" viewBox="0 0 240 240" fill="null" xmlns="http://www.w3.org/2000/svg">
<path fill-rule="evenodd" clip-rule="evenodd" d="M120 105C103.455 105 90 91.545 90 75C90 58.455 103.455 45 120 45C136.545 45 150 58.455 150 75C150 91.545 136.545 105 120 105ZM165.012 75.0031C165.012 50.1481 144.867 30.0031 120.012 30.0031C95.1573 30.0031 75.0123 50.1481 75.0123 75.0031C75.0123 99.8581 95.1573 120.003 120.012 120.003C144.867 120.003 165.012 99.8581 165.012 75.0031ZM195.582 192.702C193.827 194.532 191.982 196.242 190.107 197.952C189.312 198.657 188.532 199.407 187.722 200.112C186.087 201.507 184.377 202.767 182.682 204.042C181.527 204.882 180.432 205.782 179.262 206.592C177.837 207.567 176.367 208.437 174.897 209.337C173.382 210.267 171.897 211.242 170.337 212.112C169.137 212.757 167.892 213.312 166.677 213.912C164.802 214.857 162.942 215.832 160.992 216.657C159.972 217.092 158.907 217.422 157.842 217.827C155.682 218.667 153.507 219.537 151.272 220.242C150.237 220.557 149.142 220.782 148.092 221.082C145.812 221.712 143.532 222.372 141.192 222.852C139.512 223.197 137.772 223.377 136.062 223.647C134.292 223.917 132.552 224.262 130.752 224.457C127.197 224.817 123.612 224.997 119.997 224.997C116.382 224.997 112.782 224.817 109.242 224.457C107.442 224.262 105.702 223.917 103.932 223.647C102.207 223.377 100.482 223.197 98.8021 222.852C96.4621 222.372 94.1821 221.712 91.9021 221.082C90.8521 220.782 89.7571 220.557 88.7221 220.242C86.4871 219.537 84.3121 218.667 82.1521 217.827C81.0871 217.422 80.0221 217.092 79.0021 216.657C77.0521 215.832 75.1921 214.857 73.3171 213.912C72.1021 213.312 70.8571 212.757 69.6421 212.112C68.0971 211.242 66.6121 210.267 65.0971 209.337C63.6271 208.437 62.1421 207.567 60.7321 206.592C59.5621 205.782 58.4521 204.882 57.3121 204.042C55.6171 202.767 53.9071 201.507 52.2721 200.112C51.4621 199.407 50.6821 198.657 49.8871 197.952C48.0121 196.242 46.1671 194.532 44.4121 192.702C44.2321 192.507 44.0671 192.327 43.9021 192.132C60.2821 165.927 88.6471 149.997 119.997 149.997C151.347 149.997 179.697 165.927 196.092 192.132C195.912 192.327 195.762 192.507 195.582 192.702ZM14.9877 119.997C14.9877 62.1119 62.1027 14.9969 119.988 14.9969C177.873 14.9969 224.988 62.1119 224.988 119.997C224.988 142.362 217.908 163.047 205.953 180.087C187.008 152.907 155.658 134.997 119.988 134.997C84.3177 134.997 52.9677 152.907 34.0077 180.087C22.0677 163.047 14.9877 142.362 14.9877 119.997ZM214.305 194.055C230.34 173.64 240 147.99 240 120C240 53.73 186.27 0 120 0C53.73 0 0 53.73 0 120C0 147.99 9.645 173.64 25.695 194.055C33.87 204.45 43.68 213.45 54.795 220.665C55.215 220.92 55.62 221.145 56.025 221.4C59.13 223.38 62.34 225.21 65.64 226.89C66.6 227.385 67.59 227.835 68.55 228.3C71.385 229.635 74.235 230.88 77.16 231.99C78.435 232.47 79.71 232.95 81 233.4C83.76 234.345 86.565 235.17 89.43 235.92C90.855 236.295 92.235 236.7 93.675 237.015C96.645 237.675 99.66 238.17 102.705 238.62C104.025 238.8 105.33 239.07 106.68 239.235C111.06 239.715 115.485 240 120 240C124.515 240 128.94 239.715 133.32 239.235C134.655 239.07 135.96 238.8 137.295 238.62C140.325 238.17 143.355 237.675 146.325 237.015C147.765 236.7 149.145 236.295 150.57 235.92C153.42 235.17 156.24 234.345 159 233.4C160.275 232.95 161.55 232.47 162.825 231.99C165.765 230.88 168.615 229.635 171.435 228.3C172.41 227.835 173.4 227.385 174.36 226.89C177.66 225.21 180.87 223.38 183.975 221.4C184.38 221.145 184.785 220.92 185.205 220.665C196.32 213.45 206.13 204.45 214.305 194.055Z" fill="null"/>
</svg>
