<svg width="24" height="24" viewBox="0 0 24 24" fill="none" xmlns="http://www.w3.org/2000/svg">
<path d="M17.7073 12.2933C17.3163 11.9023 16.6843 11.9023 16.2933 12.2933L14.6993 13.8872C13.9603 13.6672 12.5813 13.1672 11.7073 12.2933C10.8333 11.4193 10.3333 10.0402 10.1133 9.30125L11.7073 7.70725C12.0983 7.31625 12.0983 6.68425 11.7073 6.29325L7.70733 2.29325C7.31633 1.90225 6.68433 1.90225 6.29333 2.29325L3.58133 5.00525C3.20133 5.38525 2.98733 5.90725 2.99533 6.44025C3.01833 7.86425 3.39533 12.8103 7.29333 16.7083C11.1913 20.6063 16.1373 20.9823 17.5623 21.0063C17.5673 21.0063 17.5853 21.0063 17.5903 21.0063C18.1183 21.0063 18.6173 20.7983 18.9953 20.4202L21.7073 17.7083C22.0983 17.3173 22.0983 16.6853 21.7073 16.2943L17.7073 12.2933ZM17.5803 19.0052C16.3323 18.9842 12.0623 18.6493 8.70733 15.2933C5.34133 11.9272 5.01533 7.64225 4.99533 6.41925L7.00033 4.41425L9.58633 7.00025L8.29333 8.29325C8.05433 8.53125 7.95233 8.87525 8.02133 9.20525C8.04533 9.32025 8.63233 12.0472 10.2923 13.7072C11.9523 15.3672 14.6793 15.9542 14.7943 15.9782C15.1273 16.0492 15.4683 15.9462 15.7063 15.7072L17.0003 14.4142L19.5863 17.0002L17.5803 19.0052Z" fill="#2E3A59"/>
</svg>
