<svg aria-hidden="true" style="position: absolute; width: 0; height: 0; overflow: hidden;" version="1.1" xmlns="http://www.w3.org/2000/svg" xmlns:xlink="http://www.w3.org/1999/xlink">
<defs>
<symbol id="icon-heart_outline" viewBox="0 0 32 32">
<path fill="#2e3a59" style="fill: var(--color1, #2e3a59)" d="M16 6.667c0.453-0.522 0.981-0.977 1.563-1.357 1.287-0.839 2.84-1.31 4.437-1.31 4.107 0 7.333 3.165 7.333 7.193 0 1.431-0.341 2.791-0.925 4.084-1.812 4.014-5.963 7.402-9.535 10.318-1.029 0.839-2.009 1.64-2.873 2.405-0.863-0.765-1.844-1.565-2.873-2.405-3.573-2.916-7.724-6.304-9.536-10.318-0.584-1.293-0.925-2.652-0.925-4.084 0-4.028 3.227-7.193 7.333-7.193 1.597 0 3.15 0.47 4.437 1.31 0.582 0.38 1.11 0.835 1.563 1.357zM16 24.493c0.43-0.357 0.87-0.716 1.31-1.075 0.372-0.304 0.744-0.608 1.109-0.909 1.461-1.206 2.89-2.431 4.156-3.715 1.567-1.589 2.731-3.118 3.409-4.628 0.447-0.997 0.683-1.984 0.683-2.972 0-2.507-1.984-4.527-4.667-4.527-1.585 0-3.063 0.685-3.986 1.748l-2.014 2.32-2.014-2.32c-0.923-1.063-2.402-1.748-3.986-1.748-2.683 0-4.667 2.019-4.667 4.527 0 0.988 0.236 1.975 0.683 2.972 0.678 1.509 1.843 3.039 3.409 4.628 1.266 1.284 2.696 2.509 4.156 3.715 0.365 0.301 0.737 0.605 1.109 0.909 0.439 0.359 0.879 0.719 1.31 1.075z"></path>
</symbol>
<symbol id="icon-iconoir_instagram" viewBox="0 0 32 32">
<path stroke-linejoin="round" stroke-linecap="round" stroke-miterlimit="4" stroke-width="2" d="M16 21.333c1.415 0 2.771-0.562 3.771-1.562s1.562-2.357 1.562-3.771-0.562-2.771-1.562-3.771c-1-1-2.357-1.562-3.771-1.562s-2.771 0.562-3.771 1.562c-1 1-1.562 2.357-1.562 3.771s0.562 2.771 1.562 3.771c1 1 2.357 1.562 3.771 1.562z"></path>
<path stroke-linejoin="miter" stroke-linecap="butt" stroke-miterlimit="4" stroke-width="2" d="M4 21.333v-10.667c0-1.768 0.702-3.464 1.953-4.714s2.946-1.953 4.714-1.953h10.667c1.768 0 3.464 0.702 4.714 1.953s1.953 2.946 1.953 4.714v10.667c0 1.768-0.702 3.464-1.953 4.714s-2.946 1.953-4.714 1.953h-10.667c-1.768 0-3.464-0.702-4.714-1.953s-1.953-2.946-1.953-4.714z"></path>
<path stroke-linejoin="round" stroke-linecap="round" stroke-miterlimit="4" stroke-width="2" d="M23.333 8.68l0.013-0.015"></path>
</symbol>
<symbol id="icon-logo" viewBox="0 0 32 32">
<path d="M0 10.080h32v11.839h-32v-11.839z"></path>
</symbol>
<symbol id="icon-mail" viewBox="0 0 32 32">
<path fill="#2e3a59" style="fill: var(--color1, #2e3a59)" d="M2.667 8v16c0 1.473 1.194 2.667 2.667 2.667h21.333c1.473 0 2.667-1.194 2.667-2.667v-16c0-1.473-1.194-2.667-2.667-2.667h-21.333c-1.473 0-2.667 1.194-2.667 2.667zM26.667 10.491v13.509h-21.333v-13.509l10.667 7.111 10.667-7.111zM25.596 8l-9.596 6.397-9.596-6.397h19.193z"></path>
</symbol>
<symbol id="icon-newCorzina" viewBox="0 0 32 32">
<path d="M1.777 16c0 7.855 6.368 14.222 14.222 14.222s14.222-6.368 14.222-14.222c0-7.855-6.368-14.222-14.222-14.222s-14.222 6.367-14.222 14.222zM28.444 16c0 6.873-5.572 12.444-12.444 12.444s-12.444-5.572-12.444-12.444c0-6.873 5.572-12.444 12.444-12.444s12.444 5.572 12.444 12.444z"></path>
<path d="M7.122 9.778c0 0.491 0.398 0.889 0.889 0.889h0.878v7.111h0.011v1.784c0 0.982 0.796 1.778 1.778 1.778h11.548c0.491 0 0.889-0.398 0.889-0.889s-0.398-0.889-0.889-0.889h-11.548v-1.784h11.524c0.386 0 0.728-0.249 0.846-0.617l1.716-5.333c0.028-0.088 0.043-0.18 0.043-0.272 0-0.491-0.398-0.889-0.889-0.889h-13.241c-0-0.982-0.796-1.777-1.778-1.777h-0.889c-0.491 0-0.889 0.398-0.889 0.889zM10.677 16v-3.556h12.021l-1.144 3.556h-10.876z"></path>
<path d="M10.666 24c0.491 0 0.889-0.398 0.889-0.889s-0.398-0.889-0.889-0.889c-0.491 0-0.889 0.398-0.889 0.889s0.398 0.889 0.889 0.889z"></path>
<path d="M21.333 24c0.491 0 0.889-0.398 0.889-0.889s-0.398-0.889-0.889-0.889c-0.491 0-0.889 0.398-0.889 0.889s0.398 0.889 0.889 0.889z"></path>
</symbol>
<symbol id="icon-newEmail" viewBox="0 0 32 32">
<path d="M16 30.222c-7.855 0-14.222-6.368-14.222-14.222s6.367-14.222 14.222-14.222c7.855 0 14.222 6.367 14.222 14.222s-6.368 14.222-14.222 14.222zM16 28.445c6.873 0 12.445-5.572 12.445-12.445s-5.572-12.444-12.444-12.444c-6.873 0-12.444 5.572-12.444 12.444s5.572 12.444 12.444 12.444zM12.666 23.477c-0.095 0.183-0.244 0.332-0.427 0.427-0.49 0.254-1.094 0.063-1.348-0.427l-1.035-1.994h-0.855c-0.552 0-1-0.448-1-1v-10.593c0-0.552 0.448-1 1-1h14c0.552 0 1 0.448 1 1v10.593c0 0.552-0.448 1-1 1h-9.299l-1.035 1.994zM22.223 19.704v-9.038h-12.444v9.038h1.157l0.843 1.623 0.843-1.623h9.602z"></path>
</symbol>
<symbol id="icon-newPhone" viewBox="0 0 32 32">
<path d="M1.779 16c0 7.855 6.367 14.222 14.222 14.222s14.222-6.368 14.222-14.222c0-7.855-6.368-14.222-14.222-14.222s-14.222 6.367-14.222 14.222zM28.445 16c0 6.873-5.572 12.445-12.444 12.445s-12.444-5.572-12.444-12.444 5.572-12.444 12.444-12.444c6.873 0 12.444 5.572 12.444 12.444z"></path>
<path d="M12.052 19.59l0.35 0.35c1.119 1.091 2.371 2.081 3.543 2.803 1.252 0.772 2.402 1.256 3.401 1.256 1.036 0 2.047-0.497 2.96-1.182 0.993-0.745 1.694-1.511 1.694-2.469 0-0.587-0.302-1.084-0.881-1.643-0.358-0.345-0.797-0.69-1.266-1.019-0.463-0.324-0.948-0.624-1.373-0.848-0.645-0.34-1.080-0.476-1.468-0.476-0.615 0-1.137 0.315-1.507 0.851-0.11 0.159-0.188 0.297-0.282 0.499-0.054-0.035-0.112-0.073-0.172-0.114-0.506-0.345-1.061-0.795-1.471-1.195-0.383-0.394-0.834-0.948-1.179-1.455-0.041-0.060-0.079-0.117-0.114-0.172 0.201-0.094 0.34-0.172 0.499-0.282 0.536-0.37 0.851-0.893 0.851-1.507 0-0.388-0.135-0.823-0.475-1.468-0.225-0.425-0.525-0.911-0.849-1.373-0.328-0.469-0.674-0.908-1.019-1.266-0.558-0.579-1.056-0.881-1.643-0.881-0.958 0-1.724 0.702-2.469 1.694-0.685 0.913-1.182 1.924-1.182 2.96 0 0.998 0.484 2.148 1.256 3.401 0.722 1.172 1.713 2.424 2.795 3.535zM12.856 11.167c0.283 0.404 0.545 0.827 0.733 1.184 0.214 0.406 0.269 0.578 0.27 0.636-0-0.011-0.004-0.008-0.083 0.046-0.105 0.072-0.23 0.133-0.534 0.265-0.045 0.019-0.069 0.030-0.094 0.041-0.031 0.014-0.062 0.027-0.131 0.059-0.030 0.014-0.046 0.021-0.061 0.028s-0.032 0.015-0.065 0.031c-0.147 0.072-0.259 0.136-0.362 0.219l-0.441 0.351 0.129 0.548c0.077 0.325 0.317 0.793 0.714 1.376 0.402 0.591 0.918 1.225 1.391 1.711 0.502 0.49 1.137 1.005 1.727 1.408 0.583 0.397 1.051 0.637 1.376 0.714l0.548 0.129 0.351-0.44c0.083-0.104 0.146-0.215 0.219-0.362 0.031-0.064 0.031-0.064 0.060-0.126l0-0v-0c0.056-0.124 0.056-0.124 0.099-0.224 0.131-0.304 0.192-0.429 0.265-0.534 0.054-0.078 0.057-0.083 0.046-0.083 0.059 0.001 0.231 0.056 0.636 0.27 0.356 0.188 0.779 0.449 1.184 0.733 0.4 0.28 0.772 0.573 1.052 0.842 0.186 0.179 0.277 0.292 0.315 0.339 0.016 0.020 0.022 0.028 0.022 0.024 0 0.144-0.482 0.671-0.983 1.047-0.626 0.47-1.351 0.826-1.893 0.826-0.57 0-1.481-0.384-2.468-0.992-1.057-0.651-2.207-1.561-3.227-2.555l-0.334-0.334c-0.986-1.012-1.896-2.161-2.547-3.219-0.609-0.988-0.992-1.898-0.992-2.468 0-0.542 0.356-1.267 0.826-1.893 0.376-0.501 0.902-0.983 1.047-0.983-0.004 0 0.004 0.006 0.024 0.022 0.047 0.038 0.16 0.129 0.339 0.315 0.269 0.279 0.562 0.652 0.842 1.052z"></path>
</symbol>
<symbol id="icon-newUser" viewBox="0 0 32 32">
<path d="M16 14c-2.206 0-4-1.794-4-4s1.794-4 4-4c2.206 0 4 1.794 4 4s-1.794 4-4 4zM22.002 10c0-3.314-2.686-6-6-6s-6 2.686-6 6 2.686 6 6 6c3.314 0 6-2.686 6-6zM26.078 25.694c-0.234 0.244-0.48 0.472-0.73 0.7-0.106 0.094-0.21 0.194-0.318 0.288-0.218 0.186-0.446 0.354-0.672 0.524-0.154 0.112-0.3 0.232-0.456 0.34-0.19 0.13-0.386 0.246-0.582 0.366-0.202 0.124-0.4 0.254-0.608 0.37-0.16 0.086-0.326 0.16-0.488 0.24-0.25 0.126-0.498 0.256-0.758 0.366-0.136 0.058-0.278 0.102-0.42 0.156-0.288 0.112-0.578 0.228-0.876 0.322-0.138 0.042-0.284 0.072-0.424 0.112-0.304 0.084-0.608 0.172-0.92 0.236-0.224 0.046-0.456 0.070-0.684 0.106-0.236 0.036-0.468 0.082-0.708 0.108-0.474 0.048-0.952 0.072-1.434 0.072s-0.962-0.024-1.434-0.072c-0.24-0.026-0.472-0.072-0.708-0.108-0.23-0.036-0.46-0.060-0.684-0.106-0.312-0.064-0.616-0.152-0.92-0.236-0.14-0.040-0.286-0.070-0.424-0.112-0.298-0.094-0.588-0.21-0.876-0.322-0.142-0.054-0.284-0.098-0.42-0.156-0.26-0.11-0.508-0.24-0.758-0.366-0.162-0.080-0.328-0.154-0.49-0.24-0.206-0.116-0.404-0.246-0.606-0.37-0.196-0.12-0.394-0.236-0.582-0.366-0.156-0.108-0.304-0.228-0.456-0.34-0.226-0.17-0.454-0.338-0.672-0.524-0.108-0.094-0.212-0.194-0.318-0.288-0.25-0.228-0.496-0.456-0.73-0.7-0.024-0.026-0.046-0.050-0.068-0.076 2.184-3.494 5.966-5.618 10.146-5.618s7.96 2.124 10.146 5.618c-0.024 0.026-0.044 0.050-0.068 0.076zM1.998 16c0-7.718 6.282-14 14-14s14 6.282 14 14c0 2.982-0.944 5.74-2.538 8.012-2.526-3.624-6.706-6.012-11.462-6.012s-8.936 2.388-11.464 6.012c-1.592-2.272-2.536-5.030-2.536-8.012zM28.574 25.874c2.138-2.722 3.426-6.142 3.426-9.874 0-8.836-7.164-16-16-16s-16 7.164-16 16c0 3.732 1.286 7.152 3.426 9.874 1.090 1.386 2.398 2.586 3.88 3.548 0.056 0.034 0.11 0.064 0.164 0.098 0.414 0.264 0.842 0.508 1.282 0.732 0.128 0.066 0.26 0.126 0.388 0.188 0.378 0.178 0.758 0.344 1.148 0.492 0.17 0.064 0.34 0.128 0.512 0.188 0.368 0.126 0.742 0.236 1.124 0.336 0.19 0.050 0.374 0.104 0.566 0.146 0.396 0.088 0.798 0.154 1.204 0.214 0.176 0.024 0.35 0.060 0.53 0.082 0.584 0.064 1.174 0.102 1.776 0.102s1.192-0.038 1.776-0.102c0.178-0.022 0.352-0.058 0.53-0.082 0.404-0.060 0.808-0.126 1.204-0.214 0.192-0.042 0.376-0.096 0.566-0.146 0.38-0.1 0.756-0.21 1.124-0.336 0.17-0.060 0.34-0.124 0.51-0.188 0.392-0.148 0.772-0.314 1.148-0.492 0.13-0.062 0.262-0.122 0.39-0.188 0.44-0.224 0.868-0.468 1.282-0.732 0.054-0.034 0.108-0.064 0.164-0.098 1.482-0.962 2.79-2.162 3.88-3.548z"></path>
</symbol>
<symbol id="icon-NextPrev" viewBox="0 0 32 32">
<path d="M22 6.267v19.867l-10.8-9.467 10.8-10.4zM24.667 0l-17.333 16.667 17.333 15.333v-32z"></path>
</symbol>
<symbol id="icon-phone" viewBox="0 0 32 32">
<path fill="#2e3a59" style="fill: var(--color1, #2e3a59)" d="M23.61 16.391c-0.521-0.521-1.364-0.521-1.885 0l-2.125 2.125c-0.985-0.293-2.824-0.96-3.989-2.125s-1.832-3.004-2.125-3.989l2.125-2.125c0.521-0.521 0.521-1.364 0-1.885l-5.333-5.333c-0.521-0.521-1.364-0.521-1.885 0l-3.616 3.616c-0.507 0.507-0.792 1.203-0.781 1.913 0.031 1.899 0.533 8.493 5.731 13.691s11.792 5.699 13.692 5.731c0.007 0 0.031 0 0.037 0 0.704 0 1.369-0.277 1.873-0.781l3.616-3.616c0.521-0.521 0.521-1.364 0-1.885l-5.333-5.335zM23.44 25.34c-1.664-0.028-7.357-0.475-11.831-4.949-4.488-4.488-4.923-10.201-4.949-11.832l2.673-2.673 3.448 3.448-1.724 1.724c-0.319 0.317-0.455 0.776-0.363 1.216 0.032 0.153 0.815 3.789 3.028 6.003s5.849 2.996 6.003 3.028c0.444 0.095 0.899-0.043 1.216-0.361l1.725-1.724 3.448 3.448-2.675 2.673z"></path>
</symbol>
<symbol id="icon-shopping-bag" viewBox="0 0 32 32">
<path d="M25.394 12.027c-0.107-1.067-1.013-1.893-2.107-1.893h-1.947v-0.48c0-3.12-2.293-5.653-5.28-5.653h-0.107c-2.96 0-5.28 2.533-5.28 5.653v0.48h-1.947c-1.093 0-1.973 0.827-2.107 1.893l-1.547 14.773c-0.027 0.293 0.053 0.613 0.267 0.827s0.48 0.347 0.8 0.347h19.733c0.293 0 0.587-0.133 0.8-0.347s0.293-0.533 0.267-0.827l-1.547-14.773zM12.807 9.653c0-1.947 1.36-3.52 3.147-3.52h0.107c1.787 0 3.147 1.573 3.147 3.52v0.48h-6.4v-0.48zM7.314 25.867l1.413-13.6h14.507l1.413 13.6h-17.333z"></path>
</symbol>
<symbol id="icon-tag" viewBox="0 0 32 32">
<path d="M0 0c0.4 1.2 0.8 2 2 3.2l22.8 22.8c2.8 2.8 7.2 3.2 7.2-2.4v-23.6h-32z"></path>
</symbol>
<symbol id="icon-user_circle" viewBox="0 0 32 32">
<path fill="#2e3a59" style="fill: var(--color1, #2e3a59)" d="M16 18.667c-2.946 0-5.333-2.388-5.333-5.333s2.388-5.333 5.333-5.333c2.945 0 5.333 2.388 5.333 5.333s-2.388 5.333-5.333 5.333zM16 16c1.473 0 2.667-1.194 2.667-2.667s-1.194-2.667-2.667-2.667-2.667 1.194-2.667 2.667c0 1.473 1.194 2.667 2.667 2.667z"></path>
<path fill="#2e3a59" style="fill: var(--color1, #2e3a59)" d="M23.901 26.741c-0.62 0.457-1.281 0.861-1.976 1.207-0.035 0.018-0.071 0.035-0.107 0.053-1.758 0.854-3.733 1.333-5.819 1.333s-4.060-0.479-5.819-1.333c-0.666-0.324-1.301-0.701-1.9-1.127-0.061-0.044-0.122-0.088-0.183-0.133-3.295-2.428-5.432-6.335-5.432-10.741 0-7.364 5.97-13.333 13.333-13.333s13.333 5.97 13.333 13.333c0 4.406-2.137 8.313-5.432 10.741zM22.972 24.073c2.263-1.956 3.695-4.847 3.695-8.073 0-5.891-4.776-10.667-10.667-10.667s-10.667 4.776-10.667 10.667c0 3.226 1.432 6.117 3.695 8.073 1.373-2.432 3.98-4.073 6.972-4.073s5.599 1.642 6.972 4.073zM20.742 25.557c-0.886-1.717-2.677-2.891-4.742-2.891s-3.856 1.174-4.742 2.891c1.428 0.71 3.039 1.109 4.742 1.109s3.314-0.399 4.742-1.109z"></path>
</symbol>
</defs>
</svg>
