<svg width="201" height="201" viewBox="0 0 201 201" fill="null" xmlns="http://www.w3.org/2000/svg">
<rect width="201" height="201" fill="transparent"/>
<path fill-rule="evenodd" clip-rule="evenodd" d="M100.501 189.834C51.1639 189.834 11.168 149.838 11.168 100.5C11.168 51.1629 51.1639 11.167 100.501 11.167C149.839 11.167 189.835 51.1629 189.835 100.5C189.835 149.838 149.839 189.834 100.501 189.834ZM100.501 178.667C143.672 178.667 178.668 143.671 178.668 100.5C178.668 57.3301 143.672 22.3337 100.501 22.3337C57.331 22.3337 22.3346 57.3301 22.3346 100.5C22.3346 143.671 57.331 178.667 100.501 178.667ZM79.5555 147.462C78.9593 148.611 78.0228 149.547 76.8742 150.144C73.7952 151.742 70.0036 150.541 68.4055 147.462L61.9031 134.935H56.5326C53.0635 134.935 50.2513 132.123 50.2513 128.654V62.1149C50.2513 58.6459 53.0635 55.8337 56.5326 55.8337H144.47C147.939 55.8337 150.751 58.6459 150.751 62.1149V128.654C150.751 132.123 147.939 134.935 144.47 134.935H86.0578L79.5555 147.462ZM139.585 123.768V67.0003H61.418V123.768H68.6884L73.9805 133.964L79.2726 123.768H139.585Z" fill="null"/>
</svg>
