<svg width="24" height="24" viewBox="0 0 24 24" fill="none" xmlns="http://www.w3.org/2000/svg">
<path d="M19.0455 9.02002C18.9655 8.22002 18.2855 7.6 17.4655 7.6H16.0055V7.23999C16.0055 4.89999 14.2855 3 12.0455 3H11.9655C9.74548 3 8.00547 4.89999 8.00547 7.23999V7.6H6.54546C5.72546 7.6 5.06548 8.22002 4.96548 9.02002L3.80547 20.1C3.78547 20.32 3.84547 20.56 4.00547 20.72C4.16547 20.88 4.36547 20.98 4.60547 20.98H19.4055C19.6255 20.98 19.8455 20.88 20.0055 20.72C20.1655 20.56 20.2255 20.32 20.2055 20.1L19.0455 9.02002ZM9.60547 7.23999C9.60547 5.77999 10.6255 4.6 11.9655 4.6H12.0455C13.3855 4.6 14.4055 5.77999 14.4055 7.23999V7.6H9.60547V7.23999ZM5.48547 19.4L6.54546 9.2H17.4255L18.4855 19.4H5.48547Z" fill="black"/>
</svg>
