<?xml version="1.0" standalone="no"?>
<!DOCTYPE svg PUBLIC "-//W3C//DTD SVG 20010904//EN"
 "http://www.w3.org/TR/2001/REC-SVG-20010904/DTD/svg10.dtd">
<svg version="1.0" xmlns="http://www.w3.org/2000/svg"
 width="640.000000pt" height="360.000000pt" viewBox="0 0 640.000000 360.000000"
 preserveAspectRatio="xMidYMid meet">

<g transform="translate(0.000000,360.000000) scale(0.100000,-0.100000)"
fill="#000000" stroke="none">
<path d="M2350 2621 c-54 -13 -103 -37 -126 -63 -116 -126 -66 -317 93 -361
96 -27 233 -19 255 15 4 7 8 45 8 85 0 39 5 75 10 78 6 4 8 11 5 16 -8 12
-112 12 -120 -1 -3 -5 0 -10 8 -10 18 0 27 -30 27 -95 0 -73 -6 -78 -83 -73
-55 3 -73 9 -103 34 -95 77 -112 237 -32 311 31 29 99 46 153 38 50 -8 105
-39 105 -59 0 -8 5 -18 10 -21 6 -4 10 13 10 43 0 48 -1 50 -32 55 -67 12
-154 15 -188 8z"/>
<path d="M3019 2620 c-60 -10 -97 -30 -134 -72 -68 -78 -74 -193 -13 -281 43
-61 170 -98 289 -83 80 10 83 14 86 101 1 42 7 82 12 89 6 7 8 16 4 19 -10 11
-113 8 -113 -3 0 -5 5 -10 10 -10 13 0 13 -157 0 -165 -24 -15 -91 -8 -137 14
-73 34 -108 94 -108 186 0 86 15 123 61 155 30 20 48 24 103 24 73 0 104 -12
138 -52 l23 -27 0 47 c0 43 -2 47 -27 52 -59 11 -150 14 -194 6z"/>
<path d="M4875 2624 c-77 -18 -146 -70 -171 -130 -17 -40 -17 -136 -1 -181 32
-88 124 -139 236 -131 106 8 167 52 204 146 31 78 15 172 -41 235 -35 40 -165
75 -227 61z m84 -34 c102 -29 152 -195 95 -315 -19 -41 -90 -78 -132 -69 -58
12 -81 27 -112 71 -52 72 -58 210 -13 271 32 43 99 60 162 42z"/>
<path d="M405 2611 c-19 -8 -18 -9 5 -12 l25 -4 3 -184 c2 -156 0 -187 -13
-201 -15 -17 -10 -18 89 -25 172 -11 264 22 315 114 35 64 34 161 -2 219 -33
52 -56 67 -132 86 -63 17 -254 21 -290 7z m274 -47 c45 -23 57 -35 77 -78 37
-80 31 -173 -15 -224 -29 -33 -84 -52 -151 -52 -79 1 -80 3 -80 197 0 93 3
173 7 176 17 17 111 6 162 -19z"/>
<path d="M1035 2610 c-4 -6 -40 -93 -81 -193 -40 -100 -80 -189 -89 -199 -22
-26 -20 -28 30 -28 41 0 44 2 34 18 -8 13 -5 30 15 75 l25 57 50 0 c27 0 57
-3 66 -6 24 -10 59 -84 64 -136 1 -5 29 -8 64 -7 49 0 58 3 41 10 -27 14 -41
42 -123 244 -38 93 -74 171 -79 173 -6 2 -13 -2 -17 -8z m30 -178 c12 -34 20
-64 16 -66 -15 -7 -90 -6 -95 2 -8 13 37 133 48 129 5 -2 19 -31 31 -65z"/>
<path d="M1336 2611 c-3 -5 3 -11 15 -14 19 -5 20 -12 17 -189 -2 -101 -7
-191 -12 -201 -8 -16 0 -17 115 -15 l124 3 3 35 c3 35 3 35 -13 12 -15 -20
-24 -23 -78 -20 l-62 3 -3 88 -3 87 56 0 c49 0 57 -3 64 -22 8 -22 9 -21 16
10 4 18 4 36 1 40 -4 3 -35 6 -69 7 l-62 0 0 75 0 75 42 3 c47 3 83 -11 83
-34 0 -8 4 -13 9 -10 5 3 8 20 7 38 l-2 33 -121 3 c-67 1 -124 -2 -127 -7z"/>
<path d="M1715 2608 c-2 -7 -6 -97 -8 -201 -4 -127 -9 -192 -17 -202 -11 -13
-4 -15 46 -15 52 0 56 1 38 14 -17 13 -20 31 -24 143 -3 70 -3 131 0 135 3 5
74 -60 158 -143 83 -83 157 -149 164 -147 10 4 14 52 16 199 2 155 6 196 17
205 8 6 12 14 8 17 -10 10 -86 8 -103 -3 -12 -8 -11 -10 6 -10 12 0 25 -7 28
-16 9 -23 7 -274 -2 -274 -4 0 -77 70 -162 155 -84 85 -155 155 -157 155 -2 0
-5 -6 -8 -12z"/>
<path d="M3356 2611 c-3 -5 1 -11 9 -15 13 -4 15 -35 15 -190 0 -112 -4 -187
-10 -191 -25 -16 -5 -25 55 -25 l65 0 -20 20 c-19 19 -20 33 -20 200 0 151 2
182 15 186 8 4 12 10 9 15 -7 12 -111 12 -118 0z"/>
<path d="M3803 2588 c-6 -18 -14 -60 -18 -93 -13 -118 -43 -276 -55 -290 -11
-13 -5 -15 41 -14 30 1 46 3 37 6 -13 3 -18 14 -18 36 0 39 26 217 33 223 2 3
35 -56 73 -131 38 -74 71 -135 75 -135 3 0 37 63 75 140 37 77 71 136 75 132
8 -9 33 -184 33 -234 l0 -38 66 1 c47 0 59 3 44 9 -32 13 -36 23 -55 155 -42
286 -39 273 -56 262 -5 -3 -42 -76 -83 -161 -41 -86 -77 -156 -80 -156 -3 0
-42 72 -85 160 -44 88 -82 160 -85 160 -3 0 -11 -15 -17 -32z"/>
<path d="M4350 2610 c0 -5 7 -10 15 -10 12 0 15 -17 16 -87 1 -242 -2 -298
-17 -309 -11 -9 11 -12 92 -16 135 -6 151 -3 157 30 7 34 0 41 -16 18 -10 -14
-25 -17 -72 -14 l-60 3 -3 88 -3 87 56 0 c44 0 57 -4 62 -17 6 -15 8 -14 13 7
11 42 4 46 -66 42 l-65 -4 3 78 3 79 38 3 c24 2 48 -3 64 -13 29 -19 30 -19
35 15 l3 25 -127 3 c-83 2 -128 -1 -128 -8z"/>
<path d="M5376 2611 c-4 -6 0 -11 8 -11 14 0 16 -24 16 -186 0 -109 -4 -193
-10 -205 -10 -18 -7 -19 50 -19 l61 0 -15 22 c-18 25 -22 143 -6 153 24 15 62
-11 109 -75 62 -84 87 -100 148 -100 l48 0 -35 21 c-33 20 -134 132 -146 162
-2 7 11 37 31 66 19 29 35 59 35 66 0 34 -25 77 -54 92 -38 21 -229 32 -240
14z m201 -60 c54 -80 3 -178 -82 -157 -24 6 -25 9 -25 95 0 48 3 91 7 95 4 4
23 6 42 4 27 -2 41 -11 58 -37z"/>
<path d="M5855 2610 c-3 -5 0 -10 8 -10 28 0 32 -363 4 -397 -7 -10 5 -13 54
-13 49 0 60 3 51 12 -9 9 -12 68 -12 205 0 177 1 193 18 193 14 0 15 2 2 10
-20 13 -117 13 -125 0z"/>
<path d="M1207 1914 c-4 -4 -7 -56 -7 -116 l0 -108 -51 0 -52 0 7 50 c3 28 9
72 12 99 6 45 5 48 -17 54 -13 4 -49 7 -80 7 l-57 0 -7 -143 c-4 -79 -4 -158
-1 -175 4 -17 3 -33 -3 -36 -24 -15 -261 -56 -323 -56 -65 0 -69 11 -66 172
l3 133 129 3 c128 3 156 10 156 38 0 12 -40 14 -222 14 l-223 0 3 -197 c2
-108 8 -206 12 -218 10 -26 67 -55 108 -55 49 0 280 59 355 91 69 29 78 23 71
-53 -4 -49 -10 -67 -27 -80 -12 -10 -26 -18 -30 -18 -4 0 -13 -4 -20 -10 -7
-5 -38 -30 -69 -55 -108 -86 -152 -182 -108 -238 37 -47 77 -57 233 -57 113 0
156 4 216 21 184 52 230 149 122 256 -45 45 -96 77 -165 103 -22 8 -27 15 -23
33 3 12 9 75 13 140 l7 117 48 0 49 0 1 -87 c2 -153 4 -191 10 -197 3 -3 32
17 65 44 l59 49 12 213 c7 117 14 224 15 238 3 24 1 25 -72 28 -42 1 -79 0
-83 -4z m-111 -626 c54 -25 127 -110 122 -142 -9 -66 -259 -110 -336 -60 -40
26 -15 90 72 182 47 49 73 53 142 20z"/>
<path d="M2729 1906 c-11 -12 -13 -936 -1 -936 4 0 35 27 70 60 l62 59 1 128
c1 176 17 610 25 655 l6 36 -77 4 c-42 2 -80 -1 -86 -6z"/>
<path d="M4317 1913 c-3 -5 -7 -78 -8 -161 -1 -108 -5 -155 -14 -162 -8 -6
-53 -10 -111 -8 l-99 3 4 83 c5 138 -4 142 -316 142 -191 0 -235 -3 -239 -14
-6 -16 13 -286 31 -444 9 -78 28 -84 192 -72 254 19 273 22 282 39 5 9 12 52
16 96 11 120 7 116 136 113 l110 -3 0 -277 c1 -153 4 -280 8 -283 5 -2 35 24
68 58 l60 62 6 154 c4 85 7 231 7 325 0 94 6 210 14 259 l13 87 -56 0 c-31 0
-66 3 -77 6 -12 3 -24 2 -27 -3z m-393 -178 c10 -11 14 -29 12 -53 -22 -206
-36 -316 -43 -322 -4 -4 -45 -10 -89 -14 -60 -5 -84 -3 -92 6 -10 13 -23 383
-14 393 3 3 52 5 108 5 79 0 106 -4 118 -15z"/>
<path d="M5835 1912 c-3 -3 -5 -99 -5 -214 0 -239 5 -225 -98 -277 -156 -78
-382 -127 -420 -89 -8 8 -12 46 -12 105 l0 93 155 0 c181 0 163 -13 185 133
l13 88 -27 27 -26 27 -227 2 c-136 1 -232 -2 -239 -8 -7 -5 -10 -19 -7 -29 5
-19 15 -20 153 -20 81 0 162 -3 179 -6 l32 -7 -3 -71 -3 -71 -174 -3 -174 -2
7 -141 c8 -168 19 -202 72 -219 59 -20 184 -7 289 30 97 34 290 124 300 140
19 31 24 -21 20 -215 -4 -186 -3 -215 10 -215 8 0 15 4 15 9 0 4 24 27 54 51
l54 43 6 101 c3 56 8 220 11 366 3 146 10 288 14 315 5 28 8 51 7 51 -4 5
-157 10 -161 6z"/>
<path d="M2005 1788 c4 -13 10 -26 14 -30 3 -4 78 -8 166 -10 l160 -3 -2 -80
c-1 -44 -12 -162 -24 -262 -12 -100 -19 -188 -16 -196 5 -12 18 -9 73 19 37
18 69 35 71 38 5 4 16 80 33 211 4 39 13 105 19 148 13 99 1 135 -55 163 -34
16 -66 19 -242 22 l-204 3 7 -23z"/>
<path d="M1612 1487 c-42 -45 -18 -111 45 -123 65 -13 111 78 63 126 -28 28
-81 26 -108 -3z"/>
<path d="M3190 1503 c-42 -17 -54 -87 -20 -118 30 -27 88 -25 111 4 25 30 24
62 -2 95 -20 25 -53 32 -89 19z"/>
<path d="M4733 1495 c-31 -22 -39 -69 -16 -99 35 -48 110 -41 133 13 29 70
-53 130 -117 86z"/>
</g>
</svg>
