<?xml version="1.0" standalone="no"?>
<!DOCTYPE svg PUBLIC "-//W3C//DTD SVG 20010904//EN"
 "http://www.w3.org/TR/2001/REC-SVG-20010904/DTD/svg10.dtd">
<svg version="1.0" xmlns="http://www.w3.org/2000/svg"
 width="261.000000pt" height="261.000000pt" viewBox="0 0 261.000000 261.000000"
 preserveAspectRatio="xMidYMid meet">

<g transform="translate(0.000000,261.000000) scale(0.100000,-0.100000)"
 stroke="none">
<path d="M1530 1793 c-72 -28 -116 -60 -68 -49 47 11 58 -13 58 -121 0 -87 -2
-94 -17 -88 -49 21 -100 27 -139 16 -107 -29 -175 -123 -182 -253 -6 -99 13
-151 73 -207 67 -62 149 -68 226 -16 l39 25 0 -31 c0 -29 2 -31 28 -26 15 3
54 18 87 33 57 27 58 28 30 32 -56 7 -55 0 -56 326 0 165 -4 320 -7 343 l-7
42 -65 -26z m-64 -288 c43 -28 54 -73 54 -222 0 -154 -4 -165 -66 -182 -59
-16 -118 19 -157 94 -32 61 -31 184 3 250 40 78 103 101 166 60z"/>
<path d="M1135 1788 c-38 -22 -45 -47 -18 -73 10 -11 27 -15 46 -12 17 2 31
-1 34 -9 8 -22 -28 -84 -58 -100 -16 -8 -29 -19 -29 -24 0 -20 81 31 100 63
22 36 26 103 7 128 -10 14 -50 40 -59 39 -2 0 -12 -6 -23 -12z"/>
<path d="M5 1770 c-4 -6 6 -10 22 -10 16 0 38 -6 49 -14 18 -14 19 -31 22
-319 3 -340 3 -341 -68 -356 -21 -4 78 -11 244 -15 153 -4 281 -4 285 1 4 4
18 44 31 88 12 44 25 86 27 93 3 6 1 12 -4 12 -6 0 -18 -18 -28 -39 -22 -51
-62 -89 -106 -101 -18 -6 -82 -10 -140 -10 -87 0 -109 3 -120 17 -11 12 -15
71 -17 252 -2 130 -1 264 3 299 6 55 10 64 35 77 16 8 42 15 57 15 22 0 25 2
13 10 -20 13 -297 13 -305 0z"/>
<path d="M825 1551 c-95 -24 -147 -109 -96 -155 28 -25 58 -6 66 42 11 63 15
69 44 82 63 26 112 -13 119 -93 l4 -52 -53 -19 c-139 -49 -219 -117 -219 -187
0 -117 104 -159 215 -85 l52 34 14 -31 c12 -26 20 -33 51 -35 29 -2 43 3 72
28 43 38 51 70 11 44 -20 -13 -28 -14 -40 -4 -12 10 -15 43 -15 172 0 178 -9
217 -58 242 -36 19 -126 28 -167 17z m135 -305 l0 -94 -37 -22 c-52 -31 -91
-29 -120 4 -29 35 -30 84 -1 121 18 23 127 85 151 85 4 0 7 -42 7 -94z"/>
<path d="M1910 1551 c-78 -24 -117 -61 -156 -145 -23 -51 -26 -67 -22 -132 6
-88 40 -152 106 -198 54 -38 140 -47 207 -21 88 33 155 144 155 255 -1 158
-151 283 -290 241z m101 -48 c99 -59 123 -349 34 -407 -13 -9 -43 -16 -66 -16
-56 0 -110 53 -133 130 -20 66 -21 189 -2 234 29 70 104 96 167 59z"/>
<path d="M2321 1527 c-74 -31 -75 -31 -42 -38 19 -4 37 -13 42 -21 5 -7 8 -94
6 -193 l-2 -180 -33 -16 c-44 -23 -24 -29 91 -29 97 0 144 13 94 25 -50 13
-57 36 -57 191 l0 141 30 42 c17 23 34 40 38 38 4 -2 24 -12 45 -22 45 -24 70
-13 75 32 4 38 -18 57 -66 57 -29 0 -42 -8 -78 -47 l-43 -48 -3 47 c-2 26 -7
49 -13 50 -5 2 -43 -11 -84 -29z"/>
</g>
</svg>
