<?xml version="1.0" standalone="no"?>
<!DOCTYPE svg PUBLIC "-//W3C//DTD SVG 20010904//EN"
 "http://www.w3.org/TR/2001/REC-SVG-20010904/DTD/svg10.dtd">
<svg version="1.0" xmlns="http://www.w3.org/2000/svg"
 width="924.000000pt" height="700.000000pt" viewBox="0 0 924.000000 700.000000"
 preserveAspectRatio="xMidYMid meet">

<g transform="translate(0.000000,700.000000) scale(0.100000,-0.100000)"
fill="#000000" stroke="none">
<path d="M767 4183 c-3 -5 -6 -96 -6 -203 0 -107 -1 -214 -1 -237 l0 -43 -235
0 -236 0 3 -102 c2 -57 6 -102 11 -100 4 1 108 2 232 2 l225 0 0 100 0 100
100 0 100 0 0 -100 0 -100 35 0 35 0 0 100 0 100 95 0 95 0 -2 243 -3 242 -90
0 -90 0 -3 -242 -2 -243 -35 0 -35 0 -2 243 -3 242 -92 3 c-50 1 -94 -1 -96
-5z"/>
<path d="M2060 3510 l0 -541 98 3 97 3 5 415 c3 280 8 410 15 400 8 -12 133
-428 222 -740 9 -30 21 -61 26 -67 9 -13 167 -19 167 -7 0 3 23 80 51 172 73
238 137 454 164 549 13 46 27 88 32 95 4 7 10 -174 13 -402 l5 -415 120 0 120
0 0 535 0 535 -190 0 -189 0 -12 -40 c-17 -54 -94 -313 -138 -459 -19 -65 -38
-121 -40 -124 -7 -7 -8 -5 -76 233 -33 116 -65 228 -71 250 -7 22 -16 56 -22
75 -19 69 -7 65 -211 68 l-186 2 0 -540z"/>
<path d="M3337 4043 c-4 -3 -7 -246 -7 -540 l0 -533 373 2 372 3 3 102 3 103
-248 2 -248 3 -3 117 -3 118 193 2 193 3 3 97 3 98 -193 2 -193 3 -3 107 -3
108 248 2 248 3 0 100 0 100 -366 3 c-201 1 -368 -1 -372 -5z"/>
<path d="M4158 4045 c-5 -5 -8 -248 -8 -542 l0 -533 208 0 c302 0 391 26 504
149 59 63 109 157 128 240 18 79 16 256 -5 327 -49 170 -161 292 -314 341 -51
16 -500 32 -513 18z m460 -225 c82 -46 133 -162 133 -304 1 -99 -19 -172 -65
-242 -48 -72 -104 -98 -211 -99 l-80 0 -3 339 -2 338 92 -4 c75 -3 101 -9 136
-28z"/>
<path d="M5095 4038 c-3 -7 -4 -249 -3 -538 l3 -525 118 -3 117 -3 -2 538 -3
538 -113 3 c-84 2 -114 -1 -117 -10z"/>
<path d="M5785 4039 c-3 -8 -4 -250 -3 -539 l3 -525 120 0 120 0 3 196 2 197
158 5 c86 3 174 10 195 16 21 7 61 31 89 54 84 69 118 152 118 284 0 69 -4 88
-31 141 -36 73 -92 124 -168 153 -51 20 -80 22 -328 27 -225 4 -274 2 -278 -9z
m488 -204 c38 -18 77 -78 77 -121 0 -15 -9 -47 -20 -70 -30 -61 -64 -74 -199
-74 l-111 0 0 139 c0 102 3 141 13 144 29 11 207 -2 240 -18z"/>
<path d="M6655 4028 c-3 -13 -4 -255 -3 -538 l3 -515 373 -3 372 -2 0 105 0
105 -234 0 c-129 0 -241 3 -250 6 -13 5 -16 25 -16 120 l0 114 195 0 c123 0
195 4 195 10 1 6 1 49 1 98 l1 87 -194 5 -193 5 -3 107 -3 108 248 2 248 3 0
100 0 100 -367 3 -368 2 -5 -22z"/>
<path d="M7475 4038 c-3 -7 -4 -249 -3 -538 l3 -525 370 0 370 0 3 102 3 103
-248 2 -248 3 -3 118 -3 117 196 0 195 0 0 100 0 100 -192 2 -193 3 -3 107 -3
108 248 2 248 3 0 100 0 100 -368 3 c-289 2 -369 0 -372 -10z"/>
<path d="M8295 4038 c-3 -7 -4 -249 -3 -538 l3 -525 328 -3 327 -2 0 105 0
105 -202 2 -203 3 -5 430 -5 430 -118 3 c-88 2 -119 -1 -122 -10z"/>
<path d="M1227 3693 c-3 -5 -4 -48 -3 -98 l1 -90 238 -3 238 -2 -3 97 -3 98
-232 3 c-127 1 -234 -1 -236 -5z"/>
<path d="M5384 3587 c-10 -6 -14 -28 -14 -82 0 -69 2 -75 23 -80 12 -3 94 -4
182 -3 l160 3 3 83 c2 45 -1 82 -5 82 -141 5 -338 3 -349 -3z"/>
<path d="M765 3480 c-3 -6 -3 -19 0 -30 6 -18 15 -20 101 -20 l94 0 0 30 0 30
-94 0 c-53 0 -98 -4 -101 -10z"/>
<path d="M1030 3460 l0 -30 95 0 95 0 0 30 0 30 -95 0 -95 0 0 -30z"/>
<path d="M293 3414 c-2 -6 -3 -51 -1 -100 l3 -89 230 0 230 0 3 97 3 97 -232
3 c-159 2 -233 0 -236 -8z"/>
<path d="M962 3323 l3 -98 30 0 30 0 3 98 3 97 -36 0 -36 0 3 -97z"/>
<path d="M1229 3418 c-8 -18 -1 -182 7 -189 7 -5 107 -8 235 -7 l224 3 3 98 3
97 -236 0 c-129 0 -235 -1 -236 -2z"/>
<path d="M766 3212 c-3 -5 -4 -114 -3 -243 l2 -234 95 0 95 0 3 243 2 242 -94
0 c-52 0 -97 -4 -100 -8z"/>
<path d="M1032 2978 l3 -243 90 0 90 0 3 243 2 242 -95 0 -95 0 2 -242z"/>
</g>
</svg>
