<svg aria-hidden="true" style="position: absolute; width: 0; height: 0; overflow: hidden;" version="1.1" xmlns="http://www.w3.org/2000/svg" xmlns:xlink="http://www.w3.org/1999/xlink">
<defs>
<symbol id="icon-heart_outline" viewBox="0 0 32 32">
<path fill="#2e3a59" style="fill: var(--color1, #2e3a59)" d="M16 6.667c0.453-0.522 0.981-0.977 1.563-1.357 1.287-0.839 2.84-1.31 4.437-1.31 4.107 0 7.333 3.165 7.333 7.193 0 1.431-0.341 2.791-0.925 4.084-1.812 4.014-5.963 7.402-9.535 10.318-1.029 0.839-2.009 1.64-2.873 2.405-0.863-0.765-1.844-1.565-2.873-2.405-3.573-2.916-7.724-6.304-9.536-10.318-0.584-1.293-0.925-2.652-0.925-4.084 0-4.028 3.227-7.193 7.333-7.193 1.597 0 3.15 0.47 4.437 1.31 0.582 0.38 1.11 0.835 1.563 1.357zM16 24.493c0.43-0.357 0.87-0.716 1.31-1.075 0.372-0.304 0.744-0.608 1.109-0.909 1.461-1.206 2.89-2.431 4.156-3.715 1.567-1.589 2.731-3.118 3.409-4.628 0.447-0.997 0.683-1.984 0.683-2.972 0-2.507-1.984-4.527-4.667-4.527-1.585 0-3.063 0.685-3.986 1.748l-2.014 2.32-2.014-2.32c-0.923-1.063-2.402-1.748-3.986-1.748-2.683 0-4.667 2.019-4.667 4.527 0 0.988 0.236 1.975 0.683 2.972 0.678 1.509 1.843 3.039 3.409 4.628 1.266 1.284 2.696 2.509 4.156 3.715 0.365 0.301 0.737 0.605 1.109 0.909 0.439 0.359 0.879 0.719 1.31 1.075z"></path>
</symbol>
<symbol id="icon-iconoir_instagram" viewBox="0 0 32 32">
<path stroke-linejoin="round" stroke-linecap="round" stroke-miterlimit="4" stroke-width="2" d="M16 21.333c1.415 0 2.771-0.562 3.771-1.562s1.562-2.357 1.562-3.771-0.562-2.771-1.562-3.771c-1-1-2.357-1.562-3.771-1.562s-2.771 0.562-3.771 1.562c-1 1-1.562 2.357-1.562 3.771s0.562 2.771 1.562 3.771c1 1 2.357 1.562 3.771 1.562z"></path>
<path stroke-linejoin="miter" stroke-linecap="butt" stroke-miterlimit="4" stroke-width="2" d="M4 21.333v-10.667c0-1.768 0.702-3.464 1.953-4.714s2.946-1.953 4.714-1.953h10.667c1.768 0 3.464 0.702 4.714 1.953s1.953 2.946 1.953 4.714v10.667c0 1.768-0.702 3.464-1.953 4.714s-2.946 1.953-4.714 1.953h-10.667c-1.768 0-3.464-0.702-4.714-1.953s-1.953-2.946-1.953-4.714z"></path>
<path stroke-linejoin="round" stroke-linecap="round" stroke-miterlimit="4" stroke-width="2" d="M23.333 8.68l0.013-0.015"></path>
</symbol>
<symbol id="icon-logo" viewBox="0 0 32 32">
<path d="M0 10.080h32v11.839h-32v-11.839z"></path>
</symbol>
<symbol id="icon-mail" viewBox="0 0 32 32">
<path fill="#2e3a59" style="fill: var(--color1, #2e3a59)" d="M2.667 8v16c0 1.473 1.194 2.667 2.667 2.667h21.333c1.473 0 2.667-1.194 2.667-2.667v-16c0-1.473-1.194-2.667-2.667-2.667h-21.333c-1.473 0-2.667 1.194-2.667 2.667zM26.667 10.491v13.509h-21.333v-13.509l10.667 7.111 10.667-7.111zM25.596 8l-9.596 6.397-9.596-6.397h19.193z"></path>
</symbol>
<symbol id="icon-newCorzina" viewBox="0 0 32 32">
<path d="M1.777 16c0 7.855 6.368 14.222 14.222 14.222s14.222-6.368 14.222-14.222c0-7.855-6.368-14.222-14.222-14.222s-14.222 6.367-14.222 14.222zM28.444 16c0 6.873-5.572 12.444-12.444 12.444s-12.444-5.572-12.444-12.444c0-6.873 5.572-12.444 12.444-12.444s12.444 5.572 12.444 12.444z"></path>
<path d="M7.122 9.778c0 0.491 0.398 0.889 0.889 0.889h0.878v7.111h0.011v1.784c0 0.982 0.796 1.778 1.778 1.778h11.548c0.491 0 0.889-0.398 0.889-0.889s-0.398-0.889-0.889-0.889h-11.548v-1.784h11.524c0.386 0 0.728-0.249 0.846-0.617l1.716-5.333c0.028-0.088 0.043-0.18 0.043-0.272 0-0.491-0.398-0.889-0.889-0.889h-13.241c-0-0.982-0.796-1.777-1.778-1.777h-0.889c-0.491 0-0.889 0.398-0.889 0.889zM10.677 16v-3.556h12.021l-1.144 3.556h-10.876z"></path>
<path d="M10.666 24c0.491 0 0.889-0.398 0.889-0.889s-0.398-0.889-0.889-0.889c-0.491 0-0.889 0.398-0.889 0.889s0.398 0.889 0.889 0.889z"></path>
<path d="M21.333 24c0.491 0 0.889-0.398 0.889-0.889s-0.398-0.889-0.889-0.889c-0.491 0-0.889 0.398-0.889 0.889s0.398 0.889 0.889 0.889z"></path>
</symbol>
<symbol id="icon-newEmail" viewBox="0 0 32 32">
<path d="M16 30.222c-7.855 0-14.222-6.368-14.222-14.222s6.367-14.222 14.222-14.222c7.855 0 14.222 6.367 14.222 14.222s-6.368 14.222-14.222 14.222zM16 28.445c6.873 0 12.445-5.572 12.445-12.445s-5.572-12.444-12.444-12.444c-6.873 0-12.444 5.572-12.444 12.444s5.572 12.444 12.444 12.444zM12.666 23.477c-0.095 0.183-0.244 0.332-0.427 0.427-0.49 0.254-1.094 0.063-1.348-0.427l-1.035-1.994h-0.855c-0.552 0-1-0.448-1-1v-10.593c0-0.552 0.448-1 1-1h14c0.552 0 1 0.448 1 1v10.593c0 0.552-0.448 1-1 1h-9.299l-1.035 1.994zM22.223 19.704v-9.038h-12.444v9.038h1.157l0.843 1.623 0.843-1.623h9.602z"></path>
</symbol>
<symbol id="icon-newPhone" viewBox="0 0 32 32">
<path d="M1.779 16c0 7.855 6.367 14.222 14.222 14.222s14.222-6.368 14.222-14.222c0-7.855-6.368-14.222-14.222-14.222s-14.222 6.367-14.222 14.222zM28.445 16c0 6.873-5.572 12.445-12.444 12.445s-12.444-5.572-12.444-12.444 5.572-12.444 12.444-12.444c6.873 0 12.444 5.572 12.444 12.444z"></path>
<path d="M12.052 19.59l0.35 0.35c1.119 1.091 2.371 2.081 3.543 2.803 1.252 0.772 2.402 1.256 3.401 1.256 1.036 0 2.047-0.497 2.96-1.182 0.993-0.745 1.694-1.511 1.694-2.469 0-0.587-0.302-1.084-0.881-1.643-0.358-0.345-0.797-0.69-1.266-1.019-0.463-0.324-0.948-0.624-1.373-0.848-0.645-0.34-1.080-0.476-1.468-0.476-0.615 0-1.137 0.315-1.507 0.851-0.11 0.159-0.188 0.297-0.282 0.499-0.054-0.035-0.112-0.073-0.172-0.114-0.506-0.345-1.061-0.795-1.471-1.195-0.383-0.394-0.834-0.948-1.179-1.455-0.041-0.060-0.079-0.117-0.114-0.172 0.201-0.094 0.34-0.172 0.499-0.282 0.536-0.37 0.851-0.893 0.851-1.507 0-0.388-0.135-0.823-0.475-1.468-0.225-0.425-0.525-0.911-0.849-1.373-0.328-0.469-0.674-0.908-1.019-1.266-0.558-0.579-1.056-0.881-1.643-0.881-0.958 0-1.724 0.702-2.469 1.694-0.685 0.913-1.182 1.924-1.182 2.96 0 0.998 0.484 2.148 1.256 3.401 0.722 1.172 1.713 2.424 2.795 3.535zM12.856 11.167c0.283 0.404 0.545 0.827 0.733 1.184 0.214 0.406 0.269 0.578 0.27 0.636-0-0.011-0.004-0.008-0.083 0.046-0.105 0.072-0.23 0.133-0.534 0.265-0.045 0.019-0.069 0.030-0.094 0.041-0.031 0.014-0.062 0.027-0.131 0.059-0.030 0.014-0.046 0.021-0.061 0.028s-0.032 0.015-0.065 0.031c-0.147 0.072-0.259 0.136-0.362 0.219l-0.441 0.351 0.129 0.548c0.077 0.325 0.317 0.793 0.714 1.376 0.402 0.591 0.918 1.225 1.391 1.711 0.502 0.49 1.137 1.005 1.727 1.408 0.583 0.397 1.051 0.637 1.376 0.714l0.548 0.129 0.351-0.44c0.083-0.104 0.146-0.215 0.219-0.362 0.031-0.064 0.031-0.064 0.060-0.126l0-0v-0c0.056-0.124 0.056-0.124 0.099-0.224 0.131-0.304 0.192-0.429 0.265-0.534 0.054-0.078 0.057-0.083 0.046-0.083 0.059 0.001 0.231 0.056 0.636 0.27 0.356 0.188 0.779 0.449 1.184 0.733 0.4 0.28 0.772 0.573 1.052 0.842 0.186 0.179 0.277 0.292 0.315 0.339 0.016 0.020 0.022 0.028 0.022 0.024 0 0.144-0.482 0.671-0.983 1.047-0.626 0.47-1.351 0.826-1.893 0.826-0.57 0-1.481-0.384-2.468-0.992-1.057-0.651-2.207-1.561-3.227-2.555l-0.334-0.334c-0.986-1.012-1.896-2.161-2.547-3.219-0.609-0.988-0.992-1.898-0.992-2.468 0-0.542 0.356-1.267 0.826-1.893 0.376-0.501 0.902-0.983 1.047-0.983-0.004 0 0.004 0.006 0.024 0.022 0.047 0.038 0.16 0.129 0.339 0.315 0.269 0.279 0.562 0.652 0.842 1.052z"></path>
</symbol>
<symbol id="icon-newUser" viewBox="0 0 32 32">
<path d="M16 14c-2.206 0-4-1.794-4-4s1.794-4 4-4c2.206 0 4 1.794 4 4s-1.794 4-4 4zM22.002 10c0-3.314-2.686-6-6-6s-6 2.686-6 6 2.686 6 6 6c3.314 0 6-2.686 6-6zM26.078 25.694c-0.234 0.244-0.48 0.472-0.73 0.7-0.106 0.094-0.21 0.194-0.318 0.288-0.218 0.186-0.446 0.354-0.672 0.524-0.154 0.112-0.3 0.232-0.456 0.34-0.19 0.13-0.386 0.246-0.582 0.366-0.202 0.124-0.4 0.254-0.608 0.37-0.16 0.086-0.326 0.16-0.488 0.24-0.25 0.126-0.498 0.256-0.758 0.366-0.136 0.058-0.278 0.102-0.42 0.156-0.288 0.112-0.578 0.228-0.876 0.322-0.138 0.042-0.284 0.072-0.424 0.112-0.304 0.084-0.608 0.172-0.92 0.236-0.224 0.046-0.456 0.070-0.684 0.106-0.236 0.036-0.468 0.082-0.708 0.108-0.474 0.048-0.952 0.072-1.434 0.072s-0.962-0.024-1.434-0.072c-0.24-0.026-0.472-0.072-0.708-0.108-0.23-0.036-0.46-0.060-0.684-0.106-0.312-0.064-0.616-0.152-0.92-0.236-0.14-0.040-0.286-0.070-0.424-0.112-0.298-0.094-0.588-0.21-0.876-0.322-0.142-0.054-0.284-0.098-0.42-0.156-0.26-0.11-0.508-0.24-0.758-0.366-0.162-0.080-0.328-0.154-0.49-0.24-0.206-0.116-0.404-0.246-0.606-0.37-0.196-0.12-0.394-0.236-0.582-0.366-0.156-0.108-0.304-0.228-0.456-0.34-0.226-0.17-0.454-0.338-0.672-0.524-0.108-0.094-0.212-0.194-0.318-0.288-0.25-0.228-0.496-0.456-0.73-0.7-0.024-0.026-0.046-0.050-0.068-0.076 2.184-3.494 5.966-5.618 10.146-5.618s7.96 2.124 10.146 5.618c-0.024 0.026-0.044 0.050-0.068 0.076zM1.998 16c0-7.718 6.282-14 14-14s14 6.282 14 14c0 2.982-0.944 5.74-2.538 8.012-2.526-3.624-6.706-6.012-11.462-6.012s-8.936 2.388-11.464 6.012c-1.592-2.272-2.536-5.030-2.536-8.012zM28.574 25.874c2.138-2.722 3.426-6.142 3.426-9.874 0-8.836-7.164-16-16-16s-16 7.164-16 16c0 3.732 1.286 7.152 3.426 9.874 1.090 1.386 2.398 2.586 3.88 3.548 0.056 0.034 0.11 0.064 0.164 0.098 0.414 0.264 0.842 0.508 1.282 0.732 0.128 0.066 0.26 0.126 0.388 0.188 0.378 0.178 0.758 0.344 1.148 0.492 0.17 0.064 0.34 0.128 0.512 0.188 0.368 0.126 0.742 0.236 1.124 0.336 0.19 0.050 0.374 0.104 0.566 0.146 0.396 0.088 0.798 0.154 1.204 0.214 0.176 0.024 0.35 0.060 0.53 0.082 0.584 0.064 1.174 0.102 1.776 0.102s1.192-0.038 1.776-0.102c0.178-0.022 0.352-0.058 0.53-0.082 0.404-0.060 0.808-0.126 1.204-0.214 0.192-0.042 0.376-0.096 0.566-0.146 0.38-0.1 0.756-0.21 1.124-0.336 0.17-0.060 0.34-0.124 0.51-0.188 0.392-0.148 0.772-0.314 1.148-0.492 0.13-0.062 0.262-0.122 0.39-0.188 0.44-0.224 0.868-0.468 1.282-0.732 0.054-0.034 0.108-0.064 0.164-0.098 1.482-0.962 2.79-2.162 3.88-3.548z"></path>
</symbol>
<symbol id="icon-NextPrev" viewBox="0 0 32 32">
<path d="M22 6.267v19.867l-10.8-9.467 10.8-10.4zM24.667 0l-17.333 16.667 17.333 15.333v-32z"></path>
</symbol>
<symbol id="icon-phone" viewBox="0 0 32 32">
<path fill="#2e3a59" style="fill: var(--color1, #2e3a59)" d="M23.61 16.391c-0.521-0.521-1.364-0.521-1.885 0l-2.125 2.125c-0.985-0.293-2.824-0.96-3.989-2.125s-1.832-3.004-2.125-3.989l2.125-2.125c0.521-0.521 0.521-1.364 0-1.885l-5.333-5.333c-0.521-0.521-1.364-0.521-1.885 0l-3.616 3.616c-0.507 0.507-0.792 1.203-0.781 1.913 0.031 1.899 0.533 8.493 5.731 13.691s11.792 5.699 13.692 5.731c0.007 0 0.031 0 0.037 0 0.704 0 1.369-0.277 1.873-0.781l3.616-3.616c0.521-0.521 0.521-1.364 0-1.885l-5.333-5.335zM23.44 25.34c-1.664-0.028-7.357-0.475-11.831-4.949-4.488-4.488-4.923-10.201-4.949-11.832l2.673-2.673 3.448 3.448-1.724 1.724c-0.319 0.317-0.455 0.776-0.363 1.216 0.032 0.153 0.815 3.789 3.028 6.003s5.849 2.996 6.003 3.028c0.444 0.095 0.899-0.043 1.216-0.361l1.725-1.724 3.448 3.448-2.675 2.673z"></path>
</symbol>
<symbol id="icon-shopping-bag" viewBox="0 0 32 32">
<path d="M25.394 12.027c-0.107-1.067-1.013-1.893-2.107-1.893h-1.947v-0.48c0-3.12-2.293-5.653-5.28-5.653h-0.107c-2.96 0-5.28 2.533-5.28 5.653v0.48h-1.947c-1.093 0-1.973 0.827-2.107 1.893l-1.547 14.773c-0.027 0.293 0.053 0.613 0.267 0.827s0.48 0.347 0.8 0.347h19.733c0.293 0 0.587-0.133 0.8-0.347s0.293-0.533 0.267-0.827l-1.547-14.773zM12.807 9.653c0-1.947 1.36-3.52 3.147-3.52h0.107c1.787 0 3.147 1.573 3.147 3.52v0.48h-6.4v-0.48zM7.314 25.867l1.413-13.6h14.507l1.413 13.6h-17.333z"></path>
</symbol>
<symbol id="icon-tag" viewBox="0 0 32 32">
<path d="M0 0c0.4 1.2 0.8 2 2 3.2l22.8 22.8c2.8 2.8 7.2 3.2 7.2-2.4v-23.6h-32z"></path>
</symbol>
<symbol id="icon-user_circle" viewBox="0 0 32 32">
<path fill="#2e3a59" style="fill: var(--color1, #2e3a59)" d="M16 18.667c-2.946 0-5.333-2.388-5.333-5.333s2.388-5.333 5.333-5.333c2.945 0 5.333 2.388 5.333 5.333s-2.388 5.333-5.333 5.333zM16 16c1.473 0 2.667-1.194 2.667-2.667s-1.194-2.667-2.667-2.667-2.667 1.194-2.667 2.667c0 1.473 1.194 2.667 2.667 2.667z"></path>
<path fill="#2e3a59" style="fill: var(--color1, #2e3a59)" d="M23.901 26.741c-0.62 0.457-1.281 0.861-1.976 1.207-0.035 0.018-0.071 0.035-0.107 0.053-1.758 0.854-3.733 1.333-5.819 1.333s-4.060-0.479-5.819-1.333c-0.666-0.324-1.301-0.701-1.9-1.127-0.061-0.044-0.122-0.088-0.183-0.133-3.295-2.428-5.432-6.335-5.432-10.741 0-7.364 5.97-13.333 13.333-13.333s13.333 5.97 13.333 13.333c0 4.406-2.137 8.313-5.432 10.741zM22.972 24.073c2.263-1.956 3.695-4.847 3.695-8.073 0-5.891-4.776-10.667-10.667-10.667s-10.667 4.776-10.667 10.667c0 3.226 1.432 6.117 3.695 8.073 1.373-2.432 3.98-4.073 6.972-4.073s5.599 1.642 6.972 4.073zM20.742 25.557c-0.886-1.717-2.677-2.891-4.742-2.891s-3.856 1.174-4.742 2.891c1.428 0.71 3.039 1.109 4.742 1.109s3.314-0.399 4.742-1.109z"></path>
</symbol>

<symbol id="icon-icon-2" viewBox="0 0 33 32">
<path fill="none" stroke="#6b4121" style="stroke: var(--color1, #6b4121)" stroke-linejoin="round" stroke-linecap="round" stroke-miterlimit="4" stroke-width="1.0667" d="M26.845 14.995v0.784"></path>
<path fill="none" stroke="#6b4121" style="stroke: var(--color1, #6b4121)" stroke-linejoin="round" stroke-linecap="round" stroke-miterlimit="4" stroke-width="1.0667" d="M27.247 15.387h-0.794"></path>
<path fill="none" stroke="#6b4121" style="stroke: var(--color1, #6b4121)" stroke-linejoin="round" stroke-linecap="round" stroke-miterlimit="4" stroke-width="1.0667" d="M8.433 9.477v0.794"></path>
<path fill="none" stroke="#6b4121" style="stroke: var(--color1, #6b4121)" stroke-linejoin="round" stroke-linecap="round" stroke-miterlimit="4" stroke-width="1.0667" d="M8.825 9.869h-0.794"></path>
<path fill="none" stroke="#6b4121" style="stroke: var(--color1, #6b4121)" stroke-linejoin="round" stroke-linecap="round" stroke-miterlimit="4" stroke-width="1.0667" d="M18.192 7.045v0.784"></path>
<path fill="none" stroke="#6b4121" style="stroke: var(--color1, #6b4121)" stroke-linejoin="round" stroke-linecap="round" stroke-miterlimit="4" stroke-width="1.0667" d="M18.584 7.437h-0.794"></path>
<path fill="none" stroke="#6b4121" style="stroke: var(--color1, #6b4121)" stroke-linejoin="round" stroke-linecap="round" stroke-miterlimit="4" stroke-width="1.0667" d="M23.197 23.759v0.784"></path>
<path fill="none" stroke="#6b4121" style="stroke: var(--color1, #6b4121)" stroke-linejoin="round" stroke-linecap="round" stroke-miterlimit="4" stroke-width="1.0667" d="M23.589 24.151h-0.784"></path>
<path fill="none" stroke="#6b4121" style="stroke: var(--color1, #6b4121)" stroke-linejoin="round" stroke-linecap="round" stroke-miterlimit="4" stroke-width="1.0667" d="M10.152 23.92v0.794"></path>
<path fill="none" stroke="#6b4121" style="stroke: var(--color1, #6b4121)" stroke-linejoin="round" stroke-linecap="round" stroke-miterlimit="4" stroke-width="1.0667" d="M10.553 24.312h-0.794"></path>
<path fill="#6b4121" style="fill: var(--color1, #6b4121)" d="M7.076 16.754c0 0.181-0.151 0.342-0.342 0.342s-0.342-0.161-0.342-0.342c0-0.191 0.151-0.352 0.342-0.352s0.342 0.161 0.342 0.352z"></path>
<path fill="#6b4121" style="fill: var(--color1, #6b4121)" d="M25.418 9.889c0 0.191-0.151 0.342-0.342 0.342s-0.342-0.151-0.342-0.342 0.151-0.342 0.342-0.342c0.191 0 0.342 0.151 0.342 0.342z"></path>
<path fill="#6b4121" style="fill: var(--color1, #6b4121)" d="M17.227 27.497c0 0.191-0.161 0.342-0.352 0.342s-0.342-0.151-0.342-0.342 0.151-0.342 0.342-0.342c0.191 0 0.352 0.151 0.352 0.342z"></path>
<path fill="#6b4121" style="fill: var(--color1, #6b4121)" d="M16.533 32c-0.834 0-1.538-0.583-2.231-1.146-0.513-0.422-0.995-0.824-1.498-0.955-0.533-0.141-1.196-0.030-1.849 0.070-0.854 0.141-1.739 0.282-2.422-0.121-0.704-0.402-1.025-1.246-1.337-2.070-0.231-0.603-0.462-1.226-0.844-1.608-0.372-0.372-1.005-0.613-1.608-0.844-0.824-0.312-1.668-0.633-2.070-1.327-0.402-0.683-0.251-1.578-0.121-2.432 0.111-0.653 0.211-1.317 0.070-1.849-0.131-0.492-0.533-0.985-0.955-1.497-0.553-0.683-1.136-1.397-1.136-2.221 0-0.834 0.583-1.538 1.136-2.231 0.422-0.513 0.824-1.005 0.955-1.498 0.141-0.533 0.040-1.196-0.070-1.849-0.131-0.854-0.281-1.739 0.121-2.432s1.246-1.015 2.070-1.327c0.603-0.231 1.236-0.462 1.608-0.844 0.382-0.372 0.613-1.005 0.844-1.608 0.312-0.824 0.633-1.668 1.337-2.070 0.683-0.402 1.568-0.261 2.422-0.121 0.653 0.1 1.327 0.211 1.849 0.070 0.502-0.131 0.985-0.533 1.498-0.955 0.693-0.563 1.397-1.136 2.231-1.136 0.824 0 1.538 0.573 2.221 1.136 0.513 0.422 1.005 0.824 1.508 0.955 0.523 0.141 1.196 0.030 1.839-0.070 0.854-0.141 1.749-0.281 2.432 0.121 0.693 0.402 1.015 1.246 1.327 2.070 0.231 0.603 0.472 1.236 0.844 1.608 0.382 0.382 1.005 0.613 1.618 0.844 0.814 0.312 1.658 0.633 2.070 1.327 0.392 0.693 0.251 1.578 0.11 2.432-0.1 0.653-0.211 1.317-0.070 1.849 0.131 0.492 0.533 0.985 0.955 1.498 0.563 0.693 1.146 1.397 1.146 2.231 0 0.824-0.583 1.538-1.146 2.221-0.422 0.513-0.824 1.005-0.955 1.497-0.141 0.533-0.030 1.206 0.070 1.849 0.141 0.854 0.282 1.749-0.11 2.432-0.412 0.693-1.256 1.015-2.070 1.327-0.613 0.231-1.236 0.472-1.618 0.844-0.372 0.382-0.613 1.005-0.844 1.608-0.312 0.824-0.633 1.668-1.327 2.070-0.683 0.402-1.578 0.261-2.432 0.121-0.643-0.1-1.317-0.211-1.849-0.070-0.492 0.131-0.985 0.533-1.497 0.955-0.683 0.563-1.397 1.146-2.221 1.146zM12.212 29.387c0.251 0 0.482 0.030 0.703 0.090 0.593 0.151 1.146 0.603 1.668 1.035 0.623 0.513 1.276 1.045 1.95 1.045s1.317-0.533 1.94-1.045c0.533-0.432 1.075-0.884 1.668-1.035 0.623-0.171 1.337-0.050 2.030 0.060 0.814 0.131 1.588 0.251 2.141-0.070 0.563-0.322 0.844-1.055 1.136-1.839 0.251-0.653 0.503-1.327 0.945-1.769s1.116-0.693 1.769-0.945c0.784-0.291 1.518-0.573 1.849-1.136 0.311-0.553 0.191-1.327 0.060-2.141-0.111-0.693-0.231-1.407-0.060-2.030 0.161-0.593 0.603-1.136 1.035-1.668 0.513-0.623 1.045-1.276 1.045-1.94 0-0.673-0.533-1.327-1.045-1.95-0.432-0.533-0.874-1.075-1.035-1.668-0.171-0.613-0.050-1.337 0.060-2.030 0.131-0.814 0.251-1.588-0.060-2.141-0.332-0.553-1.065-0.834-1.849-1.136-0.653-0.241-1.327-0.503-1.769-0.945s-0.693-1.116-0.945-1.769c-0.291-0.774-0.573-1.518-1.136-1.839-0.553-0.322-1.327-0.201-2.141-0.060-0.693 0.111-1.407 0.221-2.030 0.060-0.593-0.161-1.136-0.613-1.668-1.045-0.623-0.513-1.266-1.035-1.94-1.035s-1.317 0.523-1.95 1.035c-0.523 0.432-1.075 0.884-1.668 1.045-0.613 0.161-1.337 0.050-2.030-0.070-0.814-0.131-1.588-0.251-2.131 0.070-0.563 0.322-0.844 1.065-1.146 1.839-0.241 0.653-0.492 1.327-0.945 1.769-0.442 0.442-1.116 0.704-1.759 0.945-0.784 0.301-1.528 0.573-1.849 1.136-0.322 0.553-0.191 1.327-0.060 2.141 0.111 0.693 0.221 1.417 0.060 2.030-0.161 0.593-0.613 1.136-1.045 1.668-0.513 0.623-1.035 1.276-1.035 1.95 0 0.663 0.523 1.317 1.035 1.94 0.432 0.533 0.884 1.075 1.045 1.668 0.161 0.623 0.050 1.337-0.060 2.030-0.131 0.814-0.261 1.588 0.060 2.141 0.322 0.563 1.065 0.844 1.849 1.136 0.643 0.251 1.317 0.503 1.759 0.945s0.704 1.116 0.945 1.769c0.301 0.784 0.583 1.518 1.146 1.839 0.543 0.322 1.317 0.201 2.131 0.070 0.452-0.070 0.905-0.151 1.327-0.151z"></path>
<path fill="#6b4121" style="fill: var(--color1, #6b4121)" d="M16.533 28.945c-7.146 0-12.945-5.809-12.945-12.945 0-7.146 5.799-12.955 12.945-12.955 7.136 0 12.945 5.809 12.945 12.955 0 7.136-5.809 12.945-12.945 12.945zM16.533 3.156c-7.075 0-12.834 5.759-12.834 12.844 0 7.075 5.759 12.834 12.834 12.834s12.834-5.759 12.834-12.834c0-7.085-5.759-12.844-12.834-12.844z"></path>
<path fill="none" stroke="#6b4121" style="stroke: var(--color1, #6b4121)" stroke-linejoin="miter" stroke-linecap="butt" stroke-miterlimit="4" stroke-width="0.5333" d="M25.262 16.016v0l0 0.002c0.229 1.941 0.091 3.843-0.832 5.103-0.893 1.219-2.59 1.921-5.698 1.334-1.282-1.199-1.986-2.284-2.282-3.253-0.298-0.975-0.187-1.85 0.195-2.642 0.617-1.272 1.913-2.348 3.417-3.203 1.438-0.809 3.020-1.419 4.198-1.811 0.387 1.175 0.819 2.806 1.002 4.469z"></path>
<path fill="none" stroke="#6b4121" style="stroke: var(--color1, #6b4121)" stroke-linejoin="round" stroke-linecap="round" stroke-miterlimit="4" stroke-width="0.5333" d="M24.211 11.638l-6.254 12.389"></path>
<path fill="none" stroke="#6b4121" style="stroke: var(--color1, #6b4121)" stroke-linejoin="round" stroke-linecap="round" stroke-miterlimit="4" stroke-width="0.5333" d="M16.031 22.583c6.915-3.578 4.824-8.070 1.518-11.387-1.538-1.548-3.297-2.834-4.563-3.658-0.834 1.256-1.98 3.136-2.784 5.116-0.784 1.93-1.236 3.97-0.844 5.699 0.492 2.191 2.342 3.879 6.673 4.231z"></path>
<path fill="none" stroke="#6b4121" style="stroke: var(--color1, #6b4121)" stroke-linejoin="round" stroke-linecap="round" stroke-miterlimit="4" stroke-width="0.5333" d="M13.106 8.101l3.297 16.201"></path>
<path fill="none" stroke="#6b4121" style="stroke: var(--color1, #6b4121)" stroke-linejoin="round" stroke-linecap="round" stroke-miterlimit="4" stroke-width="0.5333" d="M15.578 19.769l1.618-3.126"></path>
<path fill="none" stroke="#6b4121" style="stroke: var(--color1, #6b4121)" stroke-linejoin="round" stroke-linecap="round" stroke-miterlimit="4" stroke-width="0.5333" d="M14.754 15.709l1.628-3.126"></path>
<path fill="none" stroke="#6b4121" style="stroke: var(--color1, #6b4121)" stroke-linejoin="round" stroke-linecap="round" stroke-miterlimit="4" stroke-width="0.5333" d="M15.317 19.819l-2.703-2.251"></path>
<path fill="none" stroke="#6b4121" style="stroke: var(--color1, #6b4121)" stroke-linejoin="round" stroke-linecap="round" stroke-miterlimit="4" stroke-width="0.5333" d="M14.503 15.759l-2.714-2.241"></path>
</symbol>

<symbol id="icon-icon-3" viewBox="0 0 33 32">
<path fill="#6b4121" style="fill: var(--color1, #6b4121)" d="M25.024 17.535c-0.125 0-0.23-0.104-0.23-0.23v-0.825c0-0.125 0.104-0.23 0.23-0.23s0.23 0.104 0.23 0.23v0.825c0 0.125-0.104 0.23-0.23 0.23z"></path>
<path fill="#6b4121" style="fill: var(--color1, #6b4121)" d="M25.431 17.128h-0.815c-0.125 0-0.23-0.104-0.23-0.23s0.104-0.23 0.23-0.23h0.815c0.136 0 0.23 0.104 0.23 0.23s-0.094 0.23-0.23 0.23z"></path>
<path fill="#6b4121" style="fill: var(--color1, #6b4121)" d="M6.706 11.728c-0.125 0-0.23-0.104-0.23-0.23v-0.815c0-0.136 0.104-0.23 0.23-0.23s0.23 0.094 0.23 0.23v0.815c0 0.125-0.104 0.23-0.23 0.23z"></path>
<path fill="#6b4121" style="fill: var(--color1, #6b4121)" d="M7.113 11.321h-0.815c-0.125 0-0.23-0.104-0.23-0.23s0.104-0.23 0.23-0.23h0.815c0.125 0 0.23 0.104 0.23 0.23s-0.104 0.23-0.23 0.23z"></path>
<path fill="#6b4121" style="fill: var(--color1, #6b4121)" d="M16.241 6.005c-0.125 0-0.23-0.104-0.23-0.23v-0.815c0-0.136 0.104-0.23 0.23-0.23s0.23 0.094 0.23 0.23v0.815c0 0.125-0.104 0.23-0.23 0.23z"></path>
<path fill="#6b4121" style="fill: var(--color1, #6b4121)" d="M16.659 5.598h-0.825c-0.125 0-0.23-0.104-0.23-0.23s0.104-0.23 0.23-0.23h0.825c0.125 0 0.23 0.104 0.23 0.23s-0.104 0.23-0.23 0.23z"></path>
<path fill="#6b4121" style="fill: var(--color1, #6b4121)" d="M16.533 32c-0.292 0-0.553-0.136-0.815-0.272-0.188-0.104-0.376-0.198-0.543-0.209-0.167-0.021-0.376 0.052-0.585 0.115-0.272 0.084-0.543 0.167-0.836 0.115-0.292-0.042-0.522-0.219-0.752-0.397-0.178-0.136-0.334-0.261-0.501-0.303s-0.376-0.021-0.595 0.010c-0.282 0.031-0.574 0.073-0.846-0.031-0.272-0.094-0.47-0.313-0.668-0.522-0.146-0.157-0.292-0.313-0.439-0.386-0.157-0.073-0.366-0.084-0.585-0.094-0.292-0.010-0.585-0.031-0.835-0.178s-0.407-0.386-0.564-0.627c-0.115-0.188-0.23-0.366-0.376-0.46-0.136-0.105-0.334-0.146-0.554-0.198-0.282-0.063-0.564-0.125-0.783-0.313-0.23-0.188-0.345-0.46-0.449-0.721-0.084-0.209-0.167-0.397-0.292-0.512-0.115-0.125-0.313-0.209-0.512-0.292-0.261-0.104-0.533-0.219-0.721-0.449-0.188-0.219-0.261-0.512-0.324-0.783-0.042-0.219-0.094-0.418-0.188-0.564-0.094-0.136-0.272-0.251-0.46-0.366-0.24-0.157-0.491-0.313-0.637-0.564-0.146-0.261-0.157-0.553-0.167-0.836-0.010-0.219-0.021-0.428-0.094-0.585-0.073-0.146-0.23-0.292-0.386-0.439-0.209-0.198-0.428-0.397-0.533-0.668-0.094-0.282-0.063-0.564-0.021-0.846 0.031-0.219 0.052-0.428 0.010-0.595s-0.167-0.334-0.303-0.501c-0.178-0.23-0.355-0.47-0.407-0.752-0.042-0.292 0.042-0.564 0.125-0.836 0.063-0.219 0.125-0.418 0.115-0.585s-0.115-0.355-0.209-0.553c-0.136-0.251-0.272-0.512-0.272-0.804 0-0.303 0.136-0.564 0.272-0.815 0.094-0.198 0.198-0.376 0.209-0.543 0.010-0.178-0.052-0.376-0.115-0.595-0.084-0.261-0.167-0.543-0.125-0.825 0.052-0.292 0.23-0.533 0.407-0.762 0.136-0.167 0.261-0.334 0.303-0.501s0.021-0.376-0.010-0.595c-0.042-0.282-0.073-0.564 0.021-0.846 0.104-0.272 0.324-0.47 0.533-0.668 0.157-0.146 0.313-0.282 0.386-0.439s0.084-0.366 0.094-0.585c0.010-0.282 0.021-0.574 0.167-0.835 0.146-0.251 0.397-0.407 0.637-0.564 0.188-0.115 0.366-0.23 0.46-0.366 0.094-0.146 0.146-0.345 0.198-0.564 0.063-0.272 0.125-0.564 0.313-0.783 0.188-0.23 0.46-0.334 0.721-0.449 0.198-0.084 0.397-0.167 0.512-0.282 0.125-0.125 0.209-0.313 0.292-0.522 0.104-0.261 0.219-0.533 0.449-0.721 0.219-0.188 0.501-0.251 0.783-0.313 0.219-0.052 0.418-0.094 0.554-0.198 0.146-0.094 0.261-0.272 0.376-0.46 0.157-0.24 0.313-0.48 0.564-0.627s0.543-0.167 0.835-0.178c0.219-0.010 0.428-0.021 0.585-0.094 0.146-0.073 0.292-0.219 0.439-0.386 0.198-0.209 0.397-0.428 0.668-0.522 0.271-0.104 0.564-0.063 0.846-0.031 0.219 0.031 0.428 0.052 0.595 0.010s0.324-0.167 0.501-0.303c0.23-0.167 0.46-0.345 0.752-0.397s0.564 0.031 0.836 0.115c0.209 0.073 0.418 0.136 0.585 0.115 0.167-0.010 0.355-0.104 0.543-0.209 0.261-0.125 0.522-0.261 0.815-0.261 0.303 0 0.564 0.136 0.815 0.261 0.198 0.104 0.376 0.198 0.543 0.209 0.178 0.021 0.376-0.042 0.585-0.115 0.272-0.084 0.554-0.167 0.836-0.115 0.292 0.052 0.533 0.23 0.752 0.397 0.177 0.136 0.345 0.261 0.512 0.303 0.157 0.042 0.366 0.021 0.585-0.010 0.282-0.031 0.574-0.073 0.846 0.031 0.282 0.094 0.48 0.313 0.668 0.522 0.157 0.167 0.292 0.313 0.449 0.386s0.366 0.084 0.585 0.094c0.282 0.010 0.574 0.031 0.825 0.178 0.261 0.146 0.418 0.397 0.574 0.627 0.115 0.188 0.23 0.366 0.366 0.46 0.136 0.104 0.345 0.146 0.564 0.198 0.272 0.063 0.564 0.125 0.783 0.313s0.334 0.46 0.449 0.721c0.084 0.209 0.167 0.397 0.282 0.522 0.125 0.115 0.313 0.198 0.522 0.282 0.261 0.115 0.533 0.219 0.721 0.449 0.188 0.219 0.251 0.512 0.313 0.783 0.052 0.219 0.094 0.418 0.198 0.564 0.094 0.136 0.272 0.251 0.449 0.366 0.24 0.157 0.491 0.313 0.637 0.574 0.146 0.251 0.167 0.543 0.178 0.825 0.010 0.219 0.021 0.428 0.094 0.585s0.219 0.292 0.386 0.439c0.209 0.198 0.428 0.397 0.522 0.679 0.104 0.272 0.063 0.564 0.031 0.835-0.031 0.23-0.063 0.428-0.010 0.595 0.042 0.167 0.167 0.334 0.303 0.501 0.167 0.23 0.345 0.47 0.397 0.762 0.052 0.282-0.031 0.564-0.115 0.825-0.073 0.219-0.136 0.418-0.115 0.595 0.010 0.167 0.104 0.345 0.209 0.543 0.125 0.251 0.261 0.512 0.261 0.815 0 0.292-0.136 0.553-0.261 0.804-0.104 0.198-0.198 0.386-0.209 0.553-0.021 0.167 0.042 0.366 0.115 0.585 0.084 0.272 0.167 0.543 0.115 0.836-0.052 0.282-0.23 0.522-0.397 0.752-0.136 0.167-0.261 0.334-0.303 0.501-0.052 0.167-0.021 0.376 0.010 0.595 0.031 0.282 0.073 0.574-0.031 0.846-0.094 0.271-0.313 0.47-0.522 0.668-0.167 0.146-0.313 0.292-0.386 0.439-0.073 0.157-0.084 0.366-0.094 0.585-0.021 0.282-0.031 0.585-0.178 0.836s-0.397 0.407-0.637 0.564c-0.178 0.115-0.355 0.23-0.46 0.366-0.094 0.146-0.136 0.345-0.188 0.564-0.063 0.282-0.125 0.564-0.313 0.783-0.188 0.23-0.46 0.345-0.721 0.449-0.209 0.084-0.397 0.167-0.522 0.292-0.115 0.115-0.198 0.313-0.282 0.512-0.115 0.261-0.23 0.533-0.449 0.721s-0.512 0.251-0.783 0.313c-0.219 0.052-0.428 0.094-0.564 0.198-0.136 0.094-0.251 0.271-0.366 0.46-0.157 0.24-0.313 0.48-0.574 0.627-0.251 0.146-0.543 0.167-0.825 0.178-0.219 0.010-0.428 0.021-0.585 0.094s-0.292 0.23-0.449 0.386c-0.188 0.209-0.386 0.428-0.668 0.533-0.272 0.094-0.564 0.052-0.846 0.021-0.219-0.031-0.428-0.052-0.595-0.010-0.157 0.042-0.324 0.167-0.501 0.303-0.219 0.177-0.46 0.355-0.752 0.397-0.282 0.052-0.564-0.031-0.836-0.115-0.209-0.063-0.407-0.136-0.585-0.115-0.167 0.010-0.345 0.104-0.543 0.209-0.251 0.136-0.512 0.272-0.815 0.272zM15.123 31.060c0.035 0 0.066 0 0.094 0 0.261 0.021 0.491 0.146 0.721 0.261 0.209 0.115 0.418 0.219 0.595 0.219 0.188 0 0.386-0.104 0.606-0.219 0.23-0.115 0.46-0.24 0.721-0.261s0.512 0.063 0.752 0.136c0.23 0.073 0.449 0.136 0.627 0.104s0.355-0.167 0.553-0.313c0.198-0.157 0.407-0.313 0.658-0.376 0.251-0.073 0.522-0.042 0.773-0.010 0.24 0.031 0.46 0.063 0.627 0 0.177-0.063 0.334-0.23 0.491-0.407 0.177-0.188 0.355-0.376 0.585-0.491 0.24-0.105 0.501-0.125 0.762-0.136 0.24-0.010 0.46-0.021 0.616-0.115 0.157-0.084 0.282-0.282 0.418-0.48 0.136-0.219 0.272-0.439 0.491-0.585 0.209-0.146 0.47-0.209 0.721-0.261 0.23-0.063 0.449-0.104 0.595-0.219 0.136-0.125 0.219-0.334 0.313-0.553 0.104-0.23 0.198-0.48 0.386-0.658 0.188-0.188 0.428-0.292 0.668-0.386 0.219-0.094 0.428-0.188 0.543-0.324s0.167-0.355 0.219-0.595c0.063-0.251 0.115-0.501 0.272-0.721 0.146-0.209 0.366-0.355 0.585-0.491 0.198-0.125 0.386-0.251 0.48-0.407s0.104-0.386 0.115-0.627c0.010-0.251 0.021-0.522 0.136-0.752 0.105-0.24 0.303-0.418 0.491-0.585 0.178-0.167 0.345-0.324 0.407-0.491s0.031-0.397 0-0.637c-0.031-0.251-0.063-0.512 0-0.762 0.073-0.251 0.23-0.46 0.386-0.668 0.146-0.188 0.282-0.376 0.313-0.553s-0.042-0.386-0.104-0.616c-0.084-0.251-0.157-0.501-0.136-0.762s0.146-0.491 0.261-0.721c0.104-0.209 0.209-0.418 0.209-0.595 0-0.188-0.104-0.386-0.209-0.606-0.115-0.23-0.24-0.46-0.261-0.721s0.052-0.512 0.136-0.762c0.063-0.219 0.136-0.439 0.104-0.616s-0.167-0.366-0.313-0.553c-0.157-0.198-0.313-0.407-0.386-0.658-0.063-0.261-0.031-0.522 0-0.773 0.031-0.24 0.063-0.46 0-0.627-0.063-0.178-0.23-0.334-0.407-0.491-0.188-0.178-0.386-0.355-0.491-0.585-0.115-0.24-0.125-0.512-0.136-0.762-0.010-0.24-0.021-0.47-0.115-0.616-0.094-0.167-0.282-0.282-0.48-0.418-0.219-0.136-0.439-0.282-0.585-0.491-0.157-0.209-0.209-0.47-0.272-0.721-0.052-0.23-0.104-0.46-0.219-0.595s-0.324-0.23-0.543-0.313c-0.24-0.104-0.48-0.209-0.668-0.386-0.177-0.188-0.282-0.428-0.386-0.668-0.094-0.219-0.177-0.428-0.313-0.543-0.146-0.115-0.366-0.167-0.595-0.219-0.251-0.063-0.512-0.115-0.721-0.272-0.219-0.146-0.355-0.366-0.491-0.585-0.136-0.198-0.261-0.397-0.418-0.48-0.157-0.094-0.376-0.104-0.616-0.115-0.261-0.010-0.522-0.021-0.762-0.136-0.23-0.115-0.407-0.303-0.585-0.491-0.157-0.178-0.313-0.345-0.491-0.407-0.167-0.063-0.386-0.031-0.627 0-0.251 0.031-0.522 0.063-0.773 0-0.251-0.073-0.46-0.23-0.658-0.386-0.198-0.146-0.376-0.282-0.553-0.313s-0.397 0.031-0.627 0.104c-0.24 0.084-0.491 0.157-0.752 0.136s-0.491-0.146-0.721-0.261c-0.219-0.104-0.418-0.209-0.606-0.209-0.177 0-0.386 0.104-0.595 0.209-0.23 0.115-0.46 0.24-0.721 0.261s-0.512-0.052-0.762-0.136c-0.23-0.073-0.439-0.136-0.616-0.104-0.188 0.031-0.366 0.167-0.553 0.313-0.209 0.157-0.418 0.313-0.668 0.386-0.251 0.063-0.512 0.031-0.762 0-0.24-0.031-0.47-0.063-0.637 0s-0.324 0.23-0.491 0.407c-0.167 0.188-0.345 0.376-0.585 0.491-0.23 0.115-0.501 0.125-0.752 0.136-0.24 0.010-0.47 0.021-0.627 0.115-0.157 0.084-0.282 0.282-0.407 0.48-0.136 0.219-0.282 0.439-0.491 0.585-0.219 0.157-0.48 0.209-0.721 0.272-0.24 0.052-0.46 0.094-0.595 0.219-0.146 0.115-0.23 0.324-0.324 0.543-0.094 0.24-0.198 0.48-0.386 0.668-0.178 0.178-0.428 0.282-0.658 0.386-0.219 0.084-0.428 0.178-0.554 0.313-0.115 0.136-0.167 0.355-0.219 0.595-0.052 0.251-0.115 0.512-0.261 0.721s-0.376 0.355-0.585 0.491c-0.209 0.136-0.397 0.251-0.491 0.407-0.084 0.157-0.094 0.386-0.104 0.627-0.021 0.251-0.031 0.522-0.136 0.752-0.115 0.24-0.303 0.418-0.491 0.595-0.178 0.157-0.345 0.313-0.407 0.48-0.063 0.178-0.042 0.397-0.010 0.637 0.031 0.251 0.073 0.512 0 0.773-0.063 0.251-0.219 0.46-0.376 0.658-0.146 0.188-0.282 0.376-0.313 0.553s0.031 0.397 0.104 0.616c0.073 0.251 0.157 0.501 0.136 0.762s-0.146 0.491-0.261 0.721c-0.115 0.209-0.219 0.418-0.219 0.606 0 0.178 0.104 0.386 0.219 0.595 0.115 0.23 0.24 0.46 0.261 0.721s-0.063 0.512-0.136 0.762c-0.073 0.23-0.136 0.439-0.104 0.616s0.167 0.366 0.313 0.553c0.157 0.209 0.313 0.418 0.376 0.668 0.073 0.251 0.031 0.512 0 0.762-0.031 0.24-0.052 0.46 0.010 0.637 0.063 0.167 0.23 0.324 0.407 0.48 0.178 0.177 0.376 0.355 0.491 0.595 0.104 0.23 0.115 0.501 0.136 0.752 0.010 0.24 0.021 0.47 0.104 0.627 0.094 0.157 0.282 0.272 0.491 0.407s0.439 0.282 0.585 0.491c0.146 0.219 0.209 0.47 0.261 0.721 0.052 0.24 0.104 0.46 0.219 0.595s0.334 0.23 0.554 0.324c0.23 0.094 0.48 0.198 0.658 0.376 0.188 0.188 0.292 0.428 0.386 0.668 0.094 0.219 0.178 0.428 0.324 0.553 0.136 0.115 0.355 0.157 0.595 0.219 0.24 0.052 0.501 0.104 0.721 0.261 0.209 0.146 0.355 0.366 0.491 0.585 0.125 0.198 0.251 0.397 0.407 0.48 0.157 0.094 0.386 0.104 0.627 0.115 0.251 0.010 0.512 0.031 0.752 0.136 0.24 0.115 0.418 0.303 0.585 0.491 0.167 0.178 0.324 0.345 0.491 0.407s0.397 0.031 0.627 0c0.261-0.031 0.522-0.063 0.773 0.010 0.251 0.063 0.46 0.219 0.668 0.376 0.188 0.146 0.366 0.282 0.553 0.313 0.178 0.031 0.386-0.031 0.616-0.104 0.219-0.073 0.439-0.136 0.668-0.136z"></path>
<path fill="#6b4121" style="fill: var(--color1, #6b4121)" d="M16.533 30.851c-0.24 0-0.47-0.125-0.689-0.24-0.198-0.115-0.376-0.219-0.564-0.23-0.198-0.021-0.407 0.052-0.616 0.125-0.23 0.084-0.48 0.167-0.71 0.125s-0.439-0.209-0.637-0.366c-0.167-0.136-0.334-0.272-0.522-0.324-0.188-0.042-0.407-0.010-0.616 0.021-0.251 0.042-0.501 0.073-0.721 0-0.23-0.084-0.397-0.282-0.564-0.47-0.146-0.167-0.292-0.324-0.46-0.407-0.178-0.084-0.397-0.084-0.616-0.094-0.251 0-0.512-0.010-0.71-0.125-0.209-0.125-0.345-0.345-0.47-0.554-0.115-0.198-0.23-0.376-0.386-0.491-0.157-0.104-0.376-0.157-0.585-0.198-0.251-0.042-0.501-0.094-0.679-0.251-0.188-0.146-0.272-0.386-0.366-0.627-0.084-0.209-0.157-0.407-0.292-0.543s-0.334-0.209-0.553-0.292c-0.23-0.094-0.47-0.188-0.627-0.366-0.146-0.178-0.198-0.439-0.251-0.679-0.042-0.209-0.084-0.428-0.188-0.585-0.115-0.157-0.292-0.272-0.491-0.386-0.209-0.136-0.439-0.261-0.554-0.47s-0.125-0.46-0.125-0.71c-0.010-0.219-0.010-0.439-0.094-0.616-0.084-0.167-0.24-0.313-0.407-0.46-0.188-0.167-0.386-0.334-0.47-0.564-0.084-0.219-0.042-0.47 0-0.721 0.031-0.209 0.063-0.439 0.010-0.616-0.042-0.188-0.178-0.355-0.313-0.533-0.157-0.188-0.324-0.397-0.366-0.627s0.042-0.48 0.125-0.71c0.073-0.209 0.136-0.418 0.125-0.616-0.021-0.188-0.115-0.376-0.23-0.574-0.115-0.219-0.24-0.439-0.24-0.679s0.125-0.47 0.24-0.689c0.115-0.198 0.209-0.386 0.23-0.574 0.010-0.188-0.052-0.407-0.125-0.616-0.084-0.23-0.167-0.47-0.125-0.7 0.042-0.24 0.209-0.439 0.366-0.637 0.136-0.178 0.272-0.345 0.324-0.522 0.042-0.188 0.010-0.407-0.021-0.627-0.042-0.251-0.084-0.501 0-0.721s0.282-0.397 0.47-0.564c0.167-0.146 0.324-0.282 0.407-0.46 0.084-0.167 0.084-0.397 0.094-0.616 0-0.251 0.010-0.501 0.125-0.71 0.115-0.198 0.345-0.334 0.554-0.47 0.198-0.115 0.376-0.23 0.491-0.376 0.104-0.157 0.146-0.376 0.188-0.595 0.052-0.24 0.104-0.501 0.261-0.679 0.146-0.178 0.386-0.272 0.616-0.366 0.219-0.084 0.418-0.157 0.553-0.292s0.209-0.334 0.292-0.543c0.094-0.24 0.188-0.48 0.366-0.627 0.178-0.157 0.428-0.209 0.679-0.251 0.209-0.042 0.428-0.094 0.585-0.198 0.157-0.115 0.272-0.292 0.386-0.491 0.125-0.209 0.261-0.428 0.47-0.554 0.198-0.115 0.46-0.115 0.71-0.125 0.219 0 0.439-0.010 0.616-0.094 0.167-0.073 0.313-0.24 0.46-0.407 0.167-0.188 0.334-0.386 0.564-0.47 0.219-0.073 0.47-0.031 0.721 0 0.209 0.031 0.428 0.073 0.616 0.021s0.355-0.188 0.522-0.324c0.198-0.157 0.407-0.324 0.637-0.366 0.23-0.031 0.48 0.052 0.71 0.125 0.209 0.073 0.418 0.146 0.616 0.125 0.188-0.010 0.366-0.115 0.564-0.219 0.219-0.125 0.449-0.251 0.689-0.251s0.47 0.125 0.689 0.251c0.198 0.104 0.386 0.209 0.574 0.219 0.188 0.021 0.407-0.052 0.606-0.125 0.24-0.073 0.48-0.157 0.71-0.125 0.24 0.042 0.439 0.209 0.637 0.366 0.178 0.136 0.345 0.272 0.522 0.324 0.188 0.052 0.407 0.010 0.627-0.021 0.24-0.031 0.501-0.073 0.721 0 0.219 0.084 0.397 0.282 0.564 0.47 0.146 0.167 0.282 0.334 0.46 0.407 0.167 0.084 0.397 0.094 0.616 0.094 0.24 0.010 0.501 0.010 0.71 0.125 0.198 0.125 0.334 0.345 0.47 0.564 0.115 0.188 0.219 0.376 0.376 0.48s0.376 0.157 0.595 0.198c0.24 0.042 0.491 0.094 0.679 0.251 0.178 0.146 0.272 0.397 0.366 0.627 0.084 0.209 0.157 0.407 0.292 0.543s0.334 0.209 0.543 0.292c0.23 0.094 0.47 0.188 0.627 0.366 0.157 0.188 0.198 0.439 0.251 0.679 0.042 0.219 0.084 0.439 0.198 0.595 0.104 0.146 0.292 0.261 0.48 0.376 0.219 0.136 0.439 0.272 0.553 0.47 0.125 0.209 0.125 0.46 0.136 0.71 0 0.219 0.010 0.449 0.094 0.616 0.073 0.178 0.24 0.313 0.407 0.46 0.188 0.167 0.386 0.345 0.46 0.564 0.084 0.219 0.042 0.47 0.010 0.721-0.031 0.219-0.073 0.439-0.021 0.627 0.052 0.178 0.177 0.345 0.324 0.522 0.157 0.198 0.313 0.397 0.355 0.637 0.042 0.23-0.042 0.47-0.115 0.7-0.073 0.209-0.146 0.428-0.125 0.616 0.010 0.188 0.115 0.376 0.219 0.574 0.125 0.219 0.251 0.449 0.251 0.689s-0.125 0.46-0.251 0.679c-0.104 0.198-0.209 0.386-0.219 0.574-0.021 0.198 0.052 0.407 0.125 0.616 0.073 0.23 0.157 0.48 0.115 0.71s-0.198 0.439-0.355 0.627c-0.146 0.177-0.272 0.345-0.324 0.533-0.052 0.178-0.010 0.407 0.021 0.616 0.031 0.251 0.073 0.501-0.010 0.721-0.073 0.23-0.272 0.397-0.46 0.564-0.167 0.146-0.334 0.292-0.407 0.46-0.084 0.178-0.094 0.397-0.094 0.616-0.010 0.251-0.010 0.501-0.136 0.71-0.115 0.209-0.334 0.334-0.553 0.47-0.188 0.115-0.376 0.23-0.48 0.386-0.115 0.157-0.157 0.376-0.198 0.585-0.052 0.24-0.094 0.501-0.251 0.679s-0.397 0.272-0.627 0.366c-0.209 0.084-0.407 0.157-0.543 0.292s-0.209 0.334-0.292 0.543c-0.094 0.24-0.188 0.48-0.366 0.627-0.188 0.157-0.439 0.209-0.679 0.251-0.219 0.052-0.439 0.094-0.595 0.198-0.157 0.115-0.261 0.292-0.376 0.491-0.136 0.209-0.271 0.428-0.47 0.554-0.209 0.115-0.47 0.125-0.721 0.125-0.209 0.010-0.439 0.010-0.606 0.094-0.177 0.084-0.313 0.24-0.46 0.407-0.167 0.188-0.345 0.386-0.564 0.47-0.219 0.073-0.48 0.042-0.721 0-0.219-0.031-0.439-0.063-0.627-0.021-0.178 0.052-0.345 0.188-0.522 0.324-0.198 0.157-0.397 0.324-0.637 0.366-0.23 0.042-0.47-0.042-0.71-0.125-0.198-0.073-0.418-0.146-0.606-0.125s-0.376 0.115-0.574 0.23c-0.219 0.115-0.449 0.24-0.689 0.24zM15.217 30.266c0.021 0 0.045 0 0.073 0 0.209 0.021 0.418 0.136 0.616 0.24 0.209 0.115 0.418 0.23 0.627 0.23s0.428-0.115 0.637-0.23c0.198-0.104 0.407-0.219 0.616-0.24 0.219-0.021 0.439 0.063 0.658 0.136 0.23 0.073 0.449 0.146 0.648 0.115 0.209-0.042 0.397-0.188 0.585-0.334 0.177-0.146 0.366-0.292 0.564-0.345 0.209-0.063 0.449-0.021 0.668 0.010 0.251 0.042 0.48 0.073 0.668 0 0.198-0.063 0.355-0.24 0.512-0.428 0.157-0.167 0.303-0.345 0.501-0.439s0.428-0.094 0.658-0.104c0.251 0 0.48-0.010 0.658-0.115s0.303-0.303 0.428-0.512c0.115-0.198 0.24-0.397 0.418-0.522s0.407-0.167 0.627-0.209c0.251-0.052 0.47-0.094 0.637-0.23 0.157-0.136 0.24-0.355 0.324-0.585 0.084-0.209 0.178-0.428 0.324-0.585 0.157-0.146 0.376-0.23 0.585-0.313 0.23-0.094 0.449-0.178 0.585-0.334 0.125-0.157 0.178-0.386 0.219-0.627 0.052-0.23 0.094-0.46 0.219-0.637 0.125-0.167 0.324-0.292 0.522-0.407 0.209-0.136 0.407-0.251 0.512-0.428 0.104-0.188 0.104-0.418 0.115-0.658 0-0.23 0.010-0.47 0.104-0.668 0.084-0.188 0.261-0.345 0.439-0.491 0.178-0.167 0.355-0.324 0.428-0.512 0.073-0.198 0.031-0.428 0-0.668-0.031-0.23-0.073-0.46-0.021-0.668 0.063-0.209 0.209-0.397 0.345-0.564 0.146-0.188 0.303-0.376 0.345-0.585 0.031-0.209-0.042-0.428-0.125-0.658-0.073-0.219-0.146-0.439-0.125-0.658 0.010-0.209 0.125-0.418 0.24-0.616 0.115-0.209 0.23-0.418 0.23-0.627 0-0.219-0.115-0.428-0.23-0.637-0.115-0.198-0.23-0.407-0.24-0.616-0.021-0.219 0.052-0.439 0.125-0.658 0.084-0.23 0.157-0.449 0.125-0.658-0.042-0.198-0.198-0.397-0.345-0.574-0.136-0.178-0.282-0.366-0.345-0.574-0.052-0.209-0.010-0.439 0.021-0.668 0.031-0.24 0.073-0.47 0-0.658-0.073-0.198-0.251-0.355-0.428-0.512s-0.355-0.313-0.439-0.501c-0.094-0.198-0.104-0.439-0.104-0.658-0.010-0.251-0.010-0.48-0.115-0.658s-0.303-0.303-0.512-0.428c-0.198-0.125-0.397-0.24-0.522-0.418s-0.167-0.407-0.219-0.637c-0.042-0.24-0.094-0.47-0.219-0.627-0.136-0.157-0.355-0.24-0.585-0.334-0.209-0.073-0.428-0.167-0.585-0.313-0.146-0.157-0.24-0.376-0.324-0.585-0.084-0.23-0.167-0.449-0.324-0.585-0.167-0.125-0.386-0.178-0.627-0.219-0.23-0.052-0.46-0.094-0.637-0.219s-0.292-0.324-0.418-0.522c-0.125-0.209-0.251-0.407-0.428-0.512s-0.407-0.104-0.658-0.115c-0.23 0-0.46-0.010-0.658-0.104-0.188-0.084-0.345-0.261-0.501-0.439-0.157-0.188-0.313-0.355-0.512-0.428-0.188-0.073-0.418-0.042-0.668 0-0.219 0.031-0.46 0.073-0.668 0.010-0.198-0.052-0.386-0.198-0.564-0.334-0.188-0.157-0.376-0.303-0.585-0.345-0.198-0.031-0.418 0.042-0.648 0.125-0.219 0.073-0.439 0.146-0.658 0.125-0.209-0.021-0.418-0.125-0.616-0.24-0.209-0.115-0.428-0.23-0.637-0.23s-0.418 0.115-0.627 0.23c-0.198 0.115-0.407 0.219-0.616 0.24-0.219 0.021-0.449-0.052-0.658-0.125-0.24-0.084-0.46-0.157-0.658-0.125-0.209 0.042-0.397 0.188-0.585 0.345-0.178 0.136-0.355 0.282-0.564 0.334-0.209 0.063-0.439 0.021-0.668-0.010-0.24-0.042-0.47-0.073-0.668 0-0.188 0.073-0.345 0.24-0.512 0.428-0.146 0.178-0.303 0.355-0.491 0.439-0.198 0.094-0.439 0.094-0.668 0.104-0.24 0.010-0.48 0.010-0.658 0.115s-0.292 0.303-0.428 0.512c-0.115 0.198-0.24 0.397-0.407 0.522-0.178 0.125-0.418 0.167-0.637 0.209-0.24 0.052-0.47 0.094-0.627 0.23s-0.24 0.355-0.334 0.585c-0.084 0.209-0.167 0.428-0.324 0.585-0.146 0.146-0.366 0.23-0.585 0.313-0.23 0.094-0.439 0.178-0.574 0.334s-0.178 0.386-0.23 0.627c-0.042 0.23-0.094 0.46-0.209 0.637-0.125 0.178-0.324 0.292-0.522 0.418-0.209 0.125-0.407 0.24-0.512 0.428-0.104 0.178-0.115 0.407-0.115 0.658-0.010 0.219-0.010 0.46-0.104 0.658-0.094 0.188-0.272 0.345-0.439 0.501-0.188 0.157-0.366 0.313-0.439 0.512-0.063 0.188-0.031 0.418 0.010 0.658 0.031 0.23 0.063 0.46 0.010 0.668s-0.198 0.397-0.345 0.574c-0.146 0.178-0.303 0.376-0.334 0.574-0.031 0.209 0.042 0.428 0.115 0.658 0.073 0.219 0.157 0.439 0.136 0.658-0.021 0.209-0.136 0.418-0.24 0.616-0.115 0.209-0.23 0.418-0.23 0.637 0 0.209 0.115 0.418 0.23 0.627 0.104 0.198 0.219 0.407 0.24 0.616 0.021 0.219-0.063 0.439-0.136 0.658-0.073 0.23-0.146 0.449-0.115 0.658 0.031 0.198 0.188 0.397 0.334 0.574s0.292 0.366 0.345 0.575c0.052 0.209 0.021 0.439-0.010 0.668-0.042 0.24-0.073 0.47-0.010 0.668 0.073 0.188 0.251 0.345 0.439 0.512 0.167 0.146 0.345 0.303 0.439 0.491 0.094 0.198 0.094 0.439 0.104 0.668 0 0.24 0.010 0.47 0.115 0.648 0.104 0.188 0.303 0.303 0.512 0.428 0.198 0.125 0.397 0.24 0.522 0.418 0.115 0.178 0.167 0.407 0.209 0.637 0.052 0.24 0.094 0.47 0.23 0.627s0.345 0.24 0.574 0.334c0.219 0.084 0.439 0.167 0.585 0.313 0.157 0.157 0.24 0.376 0.324 0.585 0.094 0.23 0.178 0.449 0.334 0.585s0.386 0.178 0.627 0.23c0.219 0.042 0.46 0.084 0.627 0.209 0.178 0.125 0.303 0.324 0.418 0.522 0.136 0.209 0.251 0.407 0.428 0.512s0.418 0.115 0.658 0.115c0.23 0.010 0.47 0.010 0.658 0.104 0.198 0.094 0.355 0.271 0.501 0.439 0.167 0.188 0.324 0.366 0.512 0.428 0.198 0.073 0.428 0.042 0.668 0 0.23-0.031 0.46-0.073 0.668-0.010 0.209 0.052 0.386 0.198 0.564 0.345 0.188 0.146 0.376 0.292 0.585 0.334 0.198 0.031 0.418-0.042 0.658-0.115 0.188-0.073 0.386-0.136 0.585-0.136z"></path>
<path fill="#6b4121" style="fill: var(--color1, #6b4121)" d="M24.606 24.752c-0.125 0-0.219-0.104-0.219-0.23v-0.825c0-0.125 0.094-0.23 0.219-0.23 0.136 0 0.23 0.104 0.23 0.23v0.825c0 0.125-0.094 0.23-0.23 0.23z"></path>
<path fill="#6b4121" style="fill: var(--color1, #6b4121)" d="M25.024 24.345h-0.825c-0.125 0-0.23-0.105-0.23-0.23 0-0.136 0.104-0.23 0.23-0.23h0.825c0.125 0 0.23 0.094 0.23 0.23 0 0.125-0.104 0.23-0.23 0.23z"></path>
<path fill="#6b4121" style="fill: var(--color1, #6b4121)" d="M7.29 24.084c-0.125 0-0.23-0.104-0.23-0.23v-0.815c0-0.125 0.104-0.23 0.23-0.23s0.23 0.104 0.23 0.23v0.815c0 0.125-0.104 0.23-0.23 0.23z"></path>
<path fill="#6b4121" style="fill: var(--color1, #6b4121)" d="M7.698 23.676h-0.825c-0.125 0-0.23-0.104-0.23-0.23s0.104-0.23 0.23-0.23h0.825c0.125 0 0.23 0.104 0.23 0.23s-0.104 0.23-0.23 0.23z"></path>
<path fill="#6b4121" style="fill: var(--color1, #6b4121)" d="M16.533 25.963c-0.237 0-0.47-0.007-0.7-0.021-1.211-0.094-2.319-0.397-3.206-0.877-1.232-0.679-1.911-1.629-1.911-2.705 0-0.47 0.136-0.93 0.407-1.358 0.105-0.177 0.146-0.397 0.094-0.627-0.042-0.24-0.073-0.491-0.073-0.742-0.010-1.41 0.95-2.601 1.285-2.987-0.407-0.741-1.034-2.047-1.264-3.384-0.261-1.493-0.313-2.935-0.167-4.073 0.251-1.88 1.034-2.402 1.65-2.507 0.616-0.115 1.525 0.125 2.402 1.817 0.522 1.013 0.95 2.392 1.201 3.885 0.157 0.909 0.24 1.681 0.272 2.454 0.042-0.762 0.136-1.577 0.282-2.454 0.261-1.494 0.689-2.872 1.212-3.885 0.867-1.692 1.775-1.932 2.392-1.817 0.616 0.104 1.4 0.627 1.65 2.507 0.157 1.138 0.094 2.58-0.157 4.073-0.23 1.274-0.815 2.527-1.295 3.394 0.334 0.418 1.358 1.786 1.316 2.977 0 0.219-0.021 0.48-0.073 0.742-0.042 0.23-0.010 0.449 0.104 0.627 0.272 0.428 0.407 0.888 0.407 1.358 0 1.076-0.679 2.026-1.922 2.705-0.888 0.48-1.995 0.783-3.196 0.877-0.237 0.014-0.473 0.021-0.71 0.021zM12.899 7.112c-0.056 0-0.111 0.007-0.167 0.021-0.668 0.115-1.107 0.846-1.274 2.12-0.146 1.086-0.094 2.486 0.157 3.927 0.167 0.992 0.648 2.225 1.295 3.384 0.052 0.094 0.042 0.209-0.031 0.282-0.010 0.010-1.285 1.305-1.274 2.778 0 0.23 0.021 0.453 0.063 0.668 0.073 0.334 0.021 0.679-0.157 0.961-0.219 0.355-0.334 0.721-0.334 1.107 0 0.898 0.595 1.713 1.671 2.308 0.836 0.449 1.869 0.731 3.018 0.815 0.439 0.031 0.898 0.031 1.347 0 1.138-0.084 2.183-0.366 3.008-0.815 1.086-0.595 1.681-1.41 1.681-2.308 0-0.376-0.115-0.752-0.334-1.107-0.178-0.282-0.24-0.627-0.167-0.961 0.042-0.23 0.063-0.47 0.063-0.668 0.042-1.222-1.295-2.778-1.305-2.799-0.063-0.073-0.073-0.178-0.031-0.261 0.48-0.836 1.097-2.099 1.316-3.384 0.251-1.441 0.313-2.841 0.167-3.927-0.177-1.274-0.616-2.005-1.274-2.12-0.668-0.115-1.326 0.428-1.911 1.577-0.501 0.971-0.919 2.308-1.17 3.749-0.177 1.065-0.282 2.047-0.292 2.914 0 0.115-0.094 0.219-0.209 0.23 0 0-0.084 0.010-0.219 0.010-0.094 0-0.251-0.010-0.251-0.010-0.115-0.010-0.209-0.115-0.209-0.23 0-0.93-0.084-1.828-0.271-2.914-0.251-1.441-0.668-2.778-1.17-3.749-0.533-1.044-1.128-1.598-1.734-1.598z"></path>
<path fill="#6b4121" style="fill: var(--color1, #6b4121)" d="M16.105 21.974h1.191c0.188 0 0.324 0.188 0.272 0.366-0.094 0.324-0.313 0.742-0.856 0.742-0.595 0-0.804-0.439-0.877-0.762-0.042-0.177 0.094-0.345 0.272-0.345z"></path>
<path fill="#6b4121" style="fill: var(--color1, #6b4121)" d="M15.99 20.648c0 0.261-0.209 0.47-0.47 0.47-0.251 0-0.46-0.209-0.46-0.47s0.209-0.47 0.46-0.47c0.261 0 0.47 0.209 0.47 0.47z"></path>
<path fill="#6b4121" style="fill: var(--color1, #6b4121)" d="M18.037 20.648c0 0.261-0.209 0.47-0.47 0.47s-0.47-0.209-0.47-0.47c0-0.261 0.209-0.47 0.47-0.47s0.47 0.209 0.47 0.47z"></path>
<path fill="#6b4121" style="fill: var(--color1, #6b4121)" d="M17.306 15.634h-1.65c-0.125 0-0.23-0.104-0.23-0.23s0.104-0.23 0.23-0.23h1.65c0.125 0 0.23 0.105 0.23 0.23s-0.104 0.23-0.23 0.23z"></path>
<path fill="#6b4121" style="fill: var(--color1, #6b4121)" d="M8.554 16.867c0 0.198-0.167 0.355-0.355 0.355-0.198 0-0.366-0.157-0.366-0.355s0.167-0.355 0.366-0.355c0.188 0 0.355 0.157 0.355 0.355z"></path>
<path fill="#6b4121" style="fill: var(--color1, #6b4121)" d="M24.888 9.984c0 0.198-0.157 0.355-0.355 0.355s-0.355-0.157-0.355-0.355 0.157-0.355 0.355-0.355c0.198 0 0.355 0.157 0.355 0.355z"></path>
<path fill="#6b4121" style="fill: var(--color1, #6b4121)" d="M16.93 27.572c0 0.198-0.157 0.355-0.355 0.355s-0.366-0.157-0.366-0.355c0-0.198 0.167-0.365 0.366-0.365s0.355 0.167 0.355 0.365z"></path>
</symbol>
<symbol id="icon-icon-1" viewBox="0 0 33 32">
<path fill="#6b4121" style="fill: var(--color1, #6b4121)" d="M18.184 5.079c-0.127 0-0.233-0.095-0.233-0.233v-0.825c0-0.127 0.106-0.233 0.233-0.233s0.233 0.106 0.233 0.233v0.825c0 0.138-0.106 0.233-0.233 0.233z"></path>
<path fill="#6b4121" style="fill: var(--color1, #6b4121)" d="M18.597 4.667h-0.825c-0.127 0-0.233-0.106-0.233-0.233s0.106-0.233 0.233-0.233h0.825c0.127 0 0.233 0.106 0.233 0.233s-0.106 0.233-0.233 0.233z"></path>
<path fill="#6b4121" style="fill: var(--color1, #6b4121)" d="M4.819 14.444c-0.127 0-0.233-0.106-0.233-0.233v-0.836c0-0.127 0.106-0.233 0.233-0.233 0.138 0 0.233 0.106 0.233 0.233v0.836c0 0.127-0.095 0.233-0.233 0.233z"></path>
<path fill="#6b4121" style="fill: var(--color1, #6b4121)" d="M5.242 14.032h-0.836c-0.127 0-0.233-0.106-0.233-0.233 0-0.138 0.106-0.233 0.233-0.233h0.836c0.127 0 0.233 0.095 0.233 0.233 0 0.127-0.106 0.233-0.233 0.233z"></path>
<path fill="#6b4121" style="fill: var(--color1, #6b4121)" d="M16.533 32c-8.815 0-16-7.185-16-16 0-8.825 7.185-16 16-16 8.825 0 16 7.175 16 16 0 8.815-7.175 16-16 16zM16.533 0.466c-8.561 0-15.534 6.963-15.534 15.534 0 8.561 6.974 15.534 15.534 15.534 8.571 0 15.534-6.974 15.534-15.534 0-8.571-6.963-15.534-15.534-15.534z"></path>
<path fill="#6b4121" style="fill: var(--color1, #6b4121)" d="M16.533 30.836c-8.18 0-14.836-6.656-14.836-14.836 0-8.19 6.656-14.847 14.836-14.847 8.191 0 14.847 6.656 14.847 14.847 0 8.18-6.656 14.836-14.847 14.836zM16.533 1.27c-8.116 0-14.72 6.603-14.72 14.73 0 8.116 6.603 14.72 14.72 14.72 8.127 0 14.73-6.603 14.73-14.72 0-8.127-6.603-14.73-14.73-14.73z"></path>
<path fill="#6b4121" style="fill: var(--color1, #6b4121)" d="M22.554 26.191c-0.127 0-0.233-0.095-0.233-0.233v-0.825c0-0.127 0.106-0.233 0.233-0.233s0.233 0.106 0.233 0.233v0.825c0 0.138-0.106 0.233-0.233 0.233z"></path>
<path fill="#6b4121" style="fill: var(--color1, #6b4121)" d="M22.967 25.778h-0.825c-0.127 0-0.233-0.106-0.233-0.233s0.106-0.233 0.233-0.233h0.825c0.127 0 0.233 0.106 0.233 0.233s-0.106 0.233-0.233 0.233z"></path>
<path fill="#6b4121" style="fill: var(--color1, #6b4121)" d="M13.75 27.376c0 0.191-0.159 0.36-0.36 0.36s-0.37-0.169-0.37-0.36c0-0.201 0.169-0.37 0.37-0.37s0.36 0.169 0.36 0.37z"></path>
<path fill="#6b4121" style="fill: var(--color1, #6b4121)" d="M28.099 18.804c0 0.19-0.159 0.36-0.36 0.36s-0.37-0.169-0.37-0.36c0-0.201 0.169-0.37 0.37-0.37s0.36 0.169 0.36 0.37z"></path>
<path fill="#6b4121" style="fill: var(--color1, #6b4121)" d="M11.020 6.656c0 0.201-0.159 0.36-0.36 0.36s-0.36-0.159-0.36-0.36 0.159-0.36 0.36-0.36c0.201 0 0.36 0.159 0.36 0.36z"></path>
<path fill="#6b4121" style="fill: var(--color1, #6b4121)" d="M16.48 24.286c-0.265 0-0.508-0.148-0.624-0.381l-0.339-0.677c-0.434-0.868-0.677-1.884-0.677-2.878 0-0.159-0.053-0.307-0.169-0.413l-0.561-0.561c-0.265-0.275-0.265-0.709 0-0.984l0.286-0.286c0.18-0.169 0.222-0.444 0.106-0.677-0.127-0.307-0.328-0.762-0.434-0.878-0.307-0.349-1.513-1.048-1.958-1.291-0.709-0.476-0.942-1.407-0.55-2.127 0.042-0.074 0.053-0.169 0.011-0.243-0.032-0.085-0.106-0.137-0.191-0.159l-1.884-0.455c-0.074-0.011-0.127-0.063-0.159-0.137-0.032-0.063-0.021-0.138 0.011-0.201 1.481-2.508 4.286-4.127 7.132-4.127 0.074 0 0.741 0.021 1.323 0.116 0.085 0.021 0.159 0.074 0.18 0.159l0.603 1.862c0.169 0.508 0.095 1.048-0.222 1.482-0.307 0.434-0.794 0.677-1.323 0.677h-0.561c-0.138 0-0.243 0.106-0.243 0.233v0.317c0 0.635-0.328 1.217-0.857 1.482-0.423 0.222-0.614 0.698-0.413 1.090l0.074 0.148h0.391c0.402 0 0.783 0.106 1.153 0.317 0.434 0.233 0.772 0.582 0.984 1.005 0.169 0.339 0.508 0.55 0.889 0.55h0.825c0.381 0 0.698 0.318 0.698 0.698v0.942c0 0.688-0.275 1.333-0.762 1.82-1.048 1.037-1.725 2.053-2.085 3.1-0.095 0.286-0.36 0.476-0.656 0.476zM9.92 11.894l1.577 0.381c0.222 0.053 0.413 0.212 0.497 0.423 0.095 0.212 0.085 0.455-0.021 0.656-0.286 0.519-0.116 1.175 0.381 1.503 0.159 0.085 1.651 0.921 2.063 1.386 0.191 0.222 0.455 0.868 0.508 0.995 0.191 0.392 0.116 0.878-0.201 1.206l-0.286 0.275c-0.085 0.085-0.085 0.243 0 0.328l0.561 0.561c0.201 0.201 0.307 0.466 0.307 0.741 0 0.921 0.222 1.862 0.624 2.667l0.339 0.677c0.042 0.074 0.116 0.127 0.212 0.127s0.19-0.064 0.222-0.159c0.37-1.122 1.090-2.201 2.191-3.28 0.402-0.402 0.624-0.931 0.624-1.492v-0.942c0-0.127-0.106-0.233-0.233-0.233h-0.825c-0.561 0-1.058-0.307-1.302-0.804-0.169-0.339-0.444-0.624-0.794-0.815-0.296-0.169-0.614-0.254-0.931-0.254h-0.54c-0.085 0-0.169-0.042-0.201-0.127l-0.148-0.286c-0.307-0.614-0.032-1.365 0.624-1.704 0.37-0.191 0.614-0.603 0.614-1.069v-0.317c0-0.381 0.307-0.698 0.698-0.698h0.561c0.381 0 0.73-0.18 0.952-0.487s0.275-0.698 0.159-1.058l-0.561-1.725c-0.508-0.074-1.048-0.095-1.111-0.095-2.582 0-5.122 1.418-6.561 3.619z"></path>
<path fill="#6b4121" style="fill: var(--color1, #6b4121)" d="M24.3 18.37h-1.545c-0.571 0-1.079-0.286-1.376-0.762-0.307-0.487-0.328-1.069-0.074-1.577l0.159-0.318c0.014-0.035 0.021-0.070 0.021-0.106v-0.709c0-0.127-0.106-0.222-0.233-0.222-0.889 0-1.619-0.73-1.619-1.619v-0.55c0-0.423 0.169-0.836 0.476-1.143l0.497-0.497c0.028-0.028 0.049-0.060 0.063-0.095l0.434-1.312c0.021-0.063 0.085-0.127 0.148-0.148 0.074-0.021 0.148-0.011 0.212 0.042 2.138 1.598 3.418 4.021 3.418 6.476 0 0.899-0.18 1.82-0.36 2.381-0.032 0.095-0.116 0.159-0.222 0.159zM21.443 9.926l-0.339 0.995c-0.032 0.106-0.095 0.201-0.169 0.275l-0.497 0.497c-0.212 0.222-0.339 0.508-0.339 0.815v0.55c0 0.635 0.518 1.153 1.153 1.153 0.392 0 0.698 0.307 0.698 0.688v0.709c0 0.106-0.021 0.222-0.074 0.318l-0.159 0.307c-0.18 0.36-0.159 0.783 0.053 1.132 0.212 0.339 0.582 0.54 0.984 0.54h1.376c0.148-0.529 0.286-1.312 0.286-2.074 0-2.212-1.1-4.402-2.974-5.905z"></path>
<path fill="#6b4121" style="fill: var(--color1, #6b4121)" d="M16.586 24.423c-4.593 0-8.328-3.735-8.328-8.328s3.736-8.328 8.328-8.328c4.593 0 8.317 3.735 8.317 8.328s-3.725 8.328-8.317 8.328zM16.586 8.233c-4.339 0-7.862 3.534-7.862 7.862 0 4.339 3.524 7.862 7.862 7.862 4.328 0 7.862-3.524 7.862-7.862 0-4.328-3.534-7.862-7.862-7.862z"></path>
<path fill="#6b4121" style="fill: var(--color1, #6b4121)" d="M20.988 8.942c-1.386 0.825-0.455 2.624 0.021 3.577 0.476 0.942 2.444 2.91 2.751 2.846 0.053-0.011 1.45-0.931 2.444-2.286 1.174-1.619 1.926-3.482 0.317-4.265-1.164-0.571-2.349 0.857-2.561 1.333 0 0-1.333-2.18-2.974-1.206z"></path>
<path fill="#6b4121" style="fill: var(--color1, #6b4121)" d="M7.581 18.603c-1.206 0.709-0.402 2.286 0.021 3.111 0.413 0.825 2.138 2.54 2.402 2.487 0.042-0.011 1.259-0.815 2.127-2 1.037-1.407 1.683-3.037 0.286-3.714-1.026-0.497-2.053 0.751-2.243 1.164 0 0-1.164-1.905-2.593-1.048z"></path>
</symbol>
<symbol id="icon-icon-4" viewBox="0 0 33 32">
<path fill="none" stroke="#6b4121" style="stroke: var(--color1, #6b4121)" stroke-linejoin="round" stroke-linecap="round" stroke-miterlimit="4" stroke-width="0.5" d="M25.987 17.411v0.812"></path>
<path fill="none" stroke="#6b4121" style="stroke: var(--color1, #6b4121)" stroke-linejoin="round" stroke-linecap="round" stroke-miterlimit="4" stroke-width="0.5" d="M26.389 17.817h-0.814"></path>
<path fill="none" stroke="#6b4121" style="stroke: var(--color1, #6b4121)" stroke-linejoin="round" stroke-linecap="round" stroke-miterlimit="4" stroke-width="0.5" d="M7.944 9.247v0.823"></path>
<path fill="none" stroke="#6b4121" style="stroke: var(--color1, #6b4121)" stroke-linejoin="round" stroke-linecap="round" stroke-miterlimit="4" stroke-width="0.5" d="M8.346 9.653h-0.814"></path>
<path fill="none" stroke="#6b4121" style="stroke: var(--color1, #6b4121)" stroke-linejoin="round" stroke-linecap="round" stroke-miterlimit="4" stroke-width="0.5" d="M17.058 4.561v0.812"></path>
<path fill="none" stroke="#6b4121" style="stroke: var(--color1, #6b4121)" stroke-linejoin="round" stroke-linecap="round" stroke-miterlimit="4" stroke-width="0.5" d="M17.46 4.967h-0.804"></path>
<path fill="none" stroke="#6b4121" style="stroke: var(--color1, #6b4121)" stroke-linejoin="round" stroke-linecap="round" stroke-miterlimit="4" stroke-width="0.5" d="M22.832 25.012v0.823"></path>
<path fill="none" stroke="#6b4121" style="stroke: var(--color1, #6b4121)" stroke-linejoin="round" stroke-linecap="round" stroke-miterlimit="4" stroke-width="0.5" d="M23.234 25.429h-0.814"></path>
<path fill="none" stroke="#6b4121" style="stroke: var(--color1, #6b4121)" stroke-linejoin="round" stroke-linecap="round" stroke-miterlimit="4" stroke-width="0.5" d="M9.769 25.627v0.823"></path>
<path fill="none" stroke="#6b4121" style="stroke: var(--color1, #6b4121)" stroke-linejoin="round" stroke-linecap="round" stroke-miterlimit="4" stroke-width="0.5" d="M10.171 26.033h-0.804"></path>
<path fill="#6b4121" style="fill: var(--color1, #6b4121)" d="M7.696 16.994c0 0.198-0.155 0.354-0.351 0.354s-0.351-0.156-0.351-0.354c0-0.198 0.155-0.354 0.351-0.354s0.351 0.156 0.351 0.354z"></path>
<path fill="#6b4121" style="fill: var(--color1, #6b4121)" d="M25.368 9.674c0 0.198-0.155 0.354-0.351 0.354s-0.351-0.156-0.351-0.354 0.155-0.354 0.351-0.354c0.196 0 0.351 0.156 0.351 0.354z"></path>
<path fill="#6b4121" style="fill: var(--color1, #6b4121)" d="M16.903 27.085c0 0.198-0.155 0.354-0.351 0.354s-0.351-0.156-0.351-0.354 0.155-0.354 0.351-0.354c0.196 0 0.351 0.156 0.351 0.354z"></path>
<path fill="#6b4121" style="fill: var(--color1, #6b4121)" d="M18.491 32c-0.021 0-0.041-0.003-0.062-0.010l-2.175-0.656-2.186 0.656c-0.062 0.021-0.134 0.010-0.186-0.021l-1.907-1.25-2.279 0.010c-0.062 0-0.124-0.031-0.175-0.083l-1.485-1.739-2.175-0.646c-0.062-0.021-0.124-0.062-0.144-0.125l-0.938-2.093-1.918-1.239c-0.062-0.031-0.093-0.094-0.103-0.156l-0.32-2.27-1.495-1.739c-0.041-0.052-0.062-0.115-0.052-0.177l0.33-2.28-0.949-2.083c-0.031-0.062-0.031-0.135 0-0.198l0.949-2.083-0.33-2.27c-0.010-0.073 0.010-0.135 0.052-0.187l1.495-1.729 0.32-2.28c0.010-0.063 0.041-0.125 0.103-0.156l1.918-1.239 0.938-2.093c0.021-0.062 0.082-0.104 0.144-0.125l2.175-0.646 1.485-1.739c0.052-0.052 0.113-0.073 0.175-0.073h2.279l1.907-1.239c0.052-0.042 0.124-0.052 0.186-0.031l2.186 0.656 2.175-0.656c0.062-0.021 0.134-0.010 0.186 0.031l1.918 1.239h2.268c0.072 0 0.134 0.021 0.175 0.073l1.485 1.739 2.186 0.646c0.062 0.021 0.113 0.062 0.144 0.125l0.938 2.093 1.918 1.239c0.052 0.031 0.093 0.094 0.103 0.156l0.32 2.28 1.495 1.729c0.041 0.052 0.062 0.115 0.052 0.187l-0.33 2.27 0.949 2.083c0.021 0.063 0.021 0.135 0 0.198l-0.949 2.083 0.33 2.28c0.010 0.063-0.010 0.125-0.052 0.177l-1.495 1.739-0.32 2.27c-0.010 0.063-0.052 0.125-0.103 0.156l-1.918 1.239-0.938 2.093c-0.031 0.063-0.082 0.104-0.144 0.125l-2.186 0.646-1.485 1.739c-0.041 0.052-0.103 0.083-0.175 0.083l-2.268-0.010-1.918 1.25c-0.034 0.021-0.076 0.031-0.124 0.031zM16.254 30.875c0.021 0 0.041 0.003 0.062 0.010l2.145 0.635 1.887-1.218c0.034-0.028 0.072-0.042 0.113-0.042l2.237 0.010 1.464-1.718c0.027-0.035 0.065-0.056 0.113-0.063l2.145-0.635 0.928-2.062c0.014-0.042 0.041-0.073 0.082-0.094l1.887-1.218 0.309-2.239c0.007-0.042 0.024-0.080 0.052-0.115l1.474-1.708-0.33-2.239c0-0.042 0.007-0.083 0.021-0.125l0.938-2.051-0.938-2.062c-0.014-0.042-0.021-0.083-0.021-0.125l0.33-2.239-1.474-1.697c-0.027-0.035-0.045-0.076-0.052-0.125l-0.309-2.239-1.887-1.208c-0.041-0.028-0.069-0.062-0.082-0.104l-0.928-2.051-2.145-0.635c-0.048-0.014-0.086-0.038-0.113-0.073l-1.464-1.708h-2.237c-0.041 0-0.079-0.014-0.113-0.042l-1.887-1.218-2.145 0.646c-0.041 0.007-0.086 0.007-0.134 0l-2.145-0.646-1.876 1.218c-0.034 0.028-0.076 0.042-0.124 0.042h-2.237l-1.464 1.708c-0.027 0.035-0.062 0.059-0.103 0.073l-2.144 0.635-0.928 2.051c-0.021 0.042-0.048 0.076-0.082 0.104l-1.887 1.208-0.32 2.239c-0.007 0.049-0.024 0.090-0.052 0.125l-1.464 1.697 0.32 2.239c0.007 0.042 0 0.083-0.021 0.125l-0.928 2.062 0.928 2.051c0.021 0.042 0.028 0.083 0.021 0.125l-0.32 2.239 1.464 1.708c0.027 0.035 0.045 0.073 0.052 0.115l0.32 2.239 1.887 1.218c0.034 0.021 0.062 0.052 0.082 0.094l0.928 2.062 2.144 0.635c0.041 0.007 0.076 0.028 0.103 0.063l1.464 1.718 2.237-0.010c0.048 0 0.089 0.014 0.124 0.042l1.876 1.218 2.145-0.635c0.027-0.007 0.052-0.010 0.072-0.010z"></path>
<path fill="#6b4121" style="fill: var(--color1, #6b4121)" d="M16.254 29.719c-7.495 0-13.589-6.154-13.589-13.714 0-7.57 6.093-13.725 13.589-13.725 7.485 0 13.578 6.154 13.578 13.725 0 7.56-6.093 13.714-13.578 13.714zM16.254 2.395c-7.434 0-13.475 6.102-13.475 13.61 0 7.497 6.042 13.6 13.475 13.6 7.423 0 13.465-6.102 13.465-13.6 0-7.508-6.042-13.61-13.465-13.61z"></path>
<path fill="#6b4121" style="fill: var(--color1, #6b4121)" d="M13.975 25.908c-0.082 0-0.165-0.042-0.206-0.115l-1.65-3.030-3.402 0.312c-0.093 0.010-0.165-0.031-0.217-0.094-0.041-0.073-0.052-0.167-0.010-0.239l2.691-5.186c0.062-0.114 0.196-0.156 0.309-0.094s0.155 0.198 0.093 0.312l-2.495 4.811 3.145-0.292c0.082-0.010 0.175 0.031 0.216 0.115l1.516 2.78 2.041-3.999c0.062-0.115 0.196-0.156 0.309-0.104 0.113 0.062 0.155 0.198 0.093 0.312l-2.237 4.384c-0.041 0.073-0.113 0.125-0.196 0.125z"></path>
<path fill="#6b4121" style="fill: var(--color1, #6b4121)" d="M18.574 25.908c-0.082 0-0.165-0.052-0.196-0.125l-2.32-4.478c-0.062-0.115-0.021-0.25 0.093-0.312 0.113-0.052 0.247-0.010 0.299 0.104l2.134 4.103 1.516-2.791c0.041-0.083 0.134-0.125 0.216-0.115l3.134 0.292-2.557-4.769c-0.062-0.115-0.021-0.25 0.093-0.312 0.103-0.052 0.247-0.010 0.299 0.094l2.763 5.144c0.041 0.073 0.041 0.167-0.010 0.229-0.041 0.073-0.124 0.114-0.206 0.104l-3.413-0.312-1.65 3.030c-0.031 0.073-0.113 0.115-0.196 0.115z"></path>
<path fill="#6b4121" style="fill: var(--color1, #6b4121)" d="M16.274 7.289c0.701 0 1.299 0.646 1.938 0.854 0.66 0.219 1.516 0.052 2.072 0.458 0.546 0.406 0.66 1.291 1.062 1.854 0.402 0.552 1.196 0.927 1.413 1.593 0.206 0.646-0.217 1.416-0.217 2.124 0 0.719 0.423 1.489 0.217 2.135-0.217 0.666-1.010 1.041-1.413 1.593-0.402 0.562-0.515 1.437-1.062 1.843-0.557 0.406-1.413 0.239-2.072 0.458-0.639 0.208-1.237 0.854-1.938 0.854-0.711 0-1.299-0.646-1.938-0.854-0.66-0.219-1.526-0.052-2.072-0.458-0.557-0.406-0.66-1.281-1.072-1.843-0.392-0.552-1.186-0.927-1.402-1.593-0.206-0.646 0.206-1.416 0.206-2.135 0-0.708-0.412-1.479-0.206-2.124 0.216-0.666 1.010-1.041 1.402-1.593 0.412-0.562 0.515-1.447 1.072-1.854 0.546-0.406 1.412-0.239 2.072-0.458 0.639-0.208 1.227-0.854 1.938-0.854z"></path>
<path fill="#c7c3bc" style="fill: var(--color2, #c7c3bc)" d="M16.275 18.889c-2.578 0-4.671-2.114-4.671-4.717s2.093-4.717 4.671-4.717c2.578 0 4.67 2.114 4.67 4.717s-2.093 4.717-4.67 4.717z"></path>
<path fill="none" stroke="#6b4121" style="stroke: var(--color1, #6b4121)" stroke-linejoin="round" stroke-linecap="round" stroke-miterlimit="4" stroke-width="0.5" d="M16.336 16.724c2.784-0.896 2.289-2.707 1.278-4.155-0.464-0.677-1.041-1.27-1.454-1.656-0.392 0.417-0.928 1.041-1.351 1.729-0.412 0.666-0.711 1.406-0.68 2.072 0.041 0.854 0.629 1.604 2.206 2.010z"></path>
<path fill="none" stroke="#6b4121" style="stroke: var(--color1, #6b4121)" stroke-linejoin="round" stroke-linecap="round" stroke-miterlimit="4" stroke-width="0.5" d="M16.171 11.121l0.186 6.269"></path>
<path fill="none" stroke="#6b4121" style="stroke: var(--color1, #6b4121)" stroke-linejoin="round" stroke-linecap="round" stroke-miterlimit="4" stroke-width="0.5" d="M16.347 15.641l0.794-1.062"></path>
<path fill="none" stroke="#6b4121" style="stroke: var(--color1, #6b4121)" stroke-linejoin="round" stroke-linecap="round" stroke-miterlimit="4" stroke-width="0.5" d="M16.295 14.079l0.804-1.062"></path>
<path fill="none" stroke="#6b4121" style="stroke: var(--color1, #6b4121)" stroke-linejoin="round" stroke-linecap="round" stroke-miterlimit="4" stroke-width="0.5" d="M16.244 15.651l-0.856-1.021"></path>
<path fill="none" stroke="#6b4121" style="stroke: var(--color1, #6b4121)" stroke-linejoin="round" stroke-linecap="round" stroke-miterlimit="4" stroke-width="0.5" d="M16.202 14.079l-0.866-1.010"></path>
</symbol>

<symbol id="icon-Vector-1" viewBox="0 0 55 32">
<path d="M2.909 16h49.455M52.364 16l-17.455-13.091M52.364 16l-17.455 13.091"></path>
</symbol>

</defs>
</svg>
