<svg width="201" height="200" viewBox="0 0 201 200" fill="none" xmlns="http://www.w3.org/2000/svg">
<circle cx="100.781" cy="100" r="98.5" fill="white" stroke="#3A4C79" stroke-width="3" stroke-miterlimit="2.9238" stroke-linecap="round" stroke-linejoin="round" stroke-dasharray="20 20"/>
<path d="M175.8 127.726C160.488 169.157 114.487 190.331 73.0557 175.019C31.6239 159.706 10.4501 113.706 25.7625 72.2744C41.0749 30.8427 87.0751 9.66881 128.507 24.9812C169.939 40.2937 191.112 86.2939 175.8 127.726Z" fill="#3A4C79"/>
<path d="M44.7812 83.7264V72.6619C44.7812 72.4308 44.8593 72.2323 45.0155 72.0665C45.1717 71.9006 45.3625 71.8176 45.5881 71.8176H56.8497C57.0753 71.8176 57.2662 71.9006 57.4224 72.0665C57.5843 72.2323 57.6653 72.4308 57.6653 72.6619V83.7264C57.6653 83.9574 57.5814 84.1559 57.4137 84.3218C57.2517 84.4818 57.058 84.5618 56.8324 84.5618H55.2186C54.993 84.5618 54.7993 84.4818 54.6373 84.3218C54.4754 84.1559 54.3944 83.9574 54.3944 83.7264V74.3327H48.0521V83.7264C48.0521 83.9574 47.9712 84.1559 47.8092 84.3218C47.653 84.4818 47.4622 84.5618 47.2366 84.5618H45.6055C45.3799 84.5618 45.1861 84.4818 45.0242 84.3218C44.8622 84.1559 44.7812 83.9574 44.7812 83.7264Z" fill="white"/>
<path d="M60.78 83.442C59.8893 82.577 59.4439 81.3328 59.4439 79.7094C59.4439 78.0801 59.8922 76.83 60.7887 75.959C61.6852 75.0822 62.9288 74.6437 64.5194 74.6437C66.11 74.6437 67.3507 75.0703 68.2415 75.9235C69.1322 76.7707 69.5776 77.9882 69.5776 79.5761V80.0827C69.5776 80.2426 69.5255 80.3759 69.4214 80.4826C69.3231 80.5833 69.1958 80.6337 69.0397 80.6337H62.5066C62.5644 81.3624 62.7668 81.8927 63.1139 82.2244C63.4667 82.5562 64.0278 82.7221 64.7971 82.7221C65.5663 82.7221 66.0927 82.5444 66.3761 82.1889C66.6595 81.8334 67.0095 81.6527 67.4259 81.6468H68.7187C68.8748 81.6468 69.0021 81.7001 69.1004 81.8068C69.2045 81.9075 69.2566 82.0378 69.2566 82.1978C69.2566 83.8982 67.6746 84.7454 64.5107 84.7395C62.9143 84.7395 61.6708 84.307 60.78 83.442ZM62.4892 78.7585H66.5236C66.4658 77.3602 65.7948 76.6611 64.5107 76.6611C63.2325 76.6611 62.5586 77.3602 62.4892 78.7585Z" fill="white"/>
<path d="M71.174 87.0146V75.3725C71.174 75.2125 71.2232 75.0822 71.3215 74.9814C71.4256 74.8748 71.5529 74.8215 71.7032 74.8215H73.3777C73.5281 74.8215 73.6525 74.8748 73.7508 74.9814C73.8549 75.0822 73.907 75.2125 73.907 75.3725V75.6391C74.8209 74.9755 75.8822 74.6437 77.0911 74.6437C78.3 74.6437 79.3093 75.0822 80.1191 75.959C80.9288 76.83 81.3337 78.0801 81.3337 79.7094C81.3337 81.3328 80.9144 82.577 80.0757 83.442C79.237 84.307 78.1062 84.7395 76.6833 84.7395C75.9488 84.7395 75.113 84.5884 74.1759 84.2863V87.0146C74.1759 87.1746 74.1239 87.3049 74.0198 87.4056C73.9214 87.5123 73.7971 87.5656 73.6467 87.5656H71.7032C71.5529 87.5656 71.4256 87.5123 71.3215 87.4056C71.2232 87.3049 71.174 87.1746 71.174 87.0146ZM74.1759 82.2333C74.9221 82.4763 75.5497 82.5977 76.0587 82.5977C76.8511 82.5977 77.4121 82.3666 77.7418 81.9045C78.0773 81.4424 78.245 80.7047 78.245 79.6916C78.245 78.6785 78.086 77.9438 77.7678 77.4876C77.4555 77.0255 76.9841 76.7944 76.3536 76.7944C75.729 76.7944 75.0031 77.061 74.1759 77.5943V82.2333Z" fill="white"/>
<path d="M83.737 83.442C82.8463 82.577 82.4009 81.3328 82.4009 79.7094C82.4009 78.0801 82.8492 76.83 83.7457 75.959C84.6422 75.0822 85.8858 74.6437 87.4764 74.6437C89.067 74.6437 90.3077 75.0703 91.1985 75.9235C92.0892 76.7707 92.5346 77.9882 92.5346 79.5761V80.0827C92.5346 80.2426 92.4825 80.3759 92.3784 80.4826C92.2801 80.5833 92.1529 80.6337 91.9967 80.6337H85.4636C85.5214 81.3624 85.7238 81.8927 86.0709 82.2244C86.4237 82.5562 86.9848 82.7221 87.7541 82.7221C88.5233 82.7221 89.0497 82.5444 89.3331 82.1889C89.6165 81.8334 89.9665 81.6527 90.3829 81.6468H91.6757C91.8318 81.6468 91.9591 81.7001 92.0574 81.8068C92.1615 81.9075 92.2136 82.0378 92.2136 82.1978C92.2136 83.8982 90.6316 84.7454 87.4677 84.7395C85.8713 84.7395 84.6278 84.307 83.737 83.442ZM85.4462 78.7585H89.4806C89.4228 77.3602 88.7518 76.6611 87.4677 76.6611C86.1895 76.6611 85.5156 77.3602 85.4462 78.7585Z" fill="white"/>
<path d="M94.131 84.0196V75.3725C94.131 75.2125 94.1802 75.0822 94.2785 74.9814C94.3826 74.8748 94.5099 74.8215 94.6602 74.8215H96.4736C96.6297 74.8215 96.757 74.8748 96.8553 74.9814C96.9594 75.0822 97.0115 75.2125 97.0115 75.3725V81.2113L100.065 75.4613C100.158 75.2777 100.3 75.1266 100.491 75.0081C100.681 74.8837 100.867 74.8215 101.046 74.8215H103.475C103.631 74.8215 103.759 74.8748 103.857 74.9814C103.961 75.0822 104.013 75.2125 104.013 75.3725V84.0196C104.013 84.1796 103.961 84.31 103.857 84.4107C103.759 84.5114 103.631 84.5618 103.475 84.5618H101.662C101.506 84.5618 101.378 84.5114 101.28 84.4107C101.182 84.304 101.133 84.1737 101.133 84.0196V78.1897L98.0786 83.9219C97.9861 84.0937 97.8444 84.2448 97.6535 84.3751C97.4626 84.4996 97.2775 84.5618 97.0982 84.5618H94.6602C94.5041 84.5618 94.3768 84.5114 94.2785 84.4107C94.1802 84.31 94.131 84.1796 94.131 84.0196ZM96.1525 71.4532C96.1525 71.1511 96.3145 71 96.6384 71H97.2891C97.5725 71 97.775 71.1511 97.8964 71.4532C98.0873 71.9391 98.4777 72.182 99.0677 72.182C99.6635 72.182 100.054 71.9391 100.239 71.4532C100.355 71.1511 100.557 71 100.846 71H101.506C101.824 71 101.983 71.1511 101.983 71.4532C101.983 72.1464 101.714 72.7152 101.176 73.1596C100.638 73.6039 99.9353 73.8261 99.0677 73.8261C98.2059 73.8261 97.5031 73.6039 96.9594 73.1596C96.4215 72.7152 96.1525 72.1464 96.1525 71.4532Z" fill="white"/>
<path d="M105.245 76.43V75.3725C105.245 75.2125 105.294 75.0822 105.393 74.9814C105.497 74.8748 105.627 74.8215 105.783 74.8215H114.329C114.485 74.8215 114.612 74.8748 114.711 74.9814C114.809 75.0822 114.858 75.2125 114.858 75.3725V76.43C114.858 76.5841 114.809 76.7144 114.711 76.8211C114.612 76.9218 114.485 76.9722 114.329 76.9722H111.561V84.0196C111.561 84.1737 111.509 84.304 111.405 84.4107C111.307 84.5114 111.18 84.5618 111.023 84.5618H109.089C108.932 84.5618 108.802 84.5114 108.698 84.4107C108.6 84.304 108.551 84.1737 108.551 84.0196V76.9722H105.783C105.627 76.9722 105.497 76.9218 105.393 76.8211C105.294 76.7144 105.245 76.5841 105.245 76.43Z" fill="white"/>
<path d="M116.116 84.0196V75.3725C116.116 75.2125 116.165 75.0822 116.264 74.9814C116.368 74.8748 116.495 74.8215 116.646 74.8215H118.459C118.615 74.8215 118.742 74.8748 118.841 74.9814C118.945 75.0822 118.997 75.2125 118.997 75.3725V81.2113L122.051 75.4613C122.143 75.2777 122.285 75.1266 122.476 75.0081C122.667 74.8837 122.852 74.8215 123.031 74.8215H125.46C125.617 74.8215 125.744 74.8748 125.842 74.9814C125.946 75.0822 125.998 75.2125 125.998 75.3725V84.0196C125.998 84.1796 125.946 84.31 125.842 84.4107C125.744 84.5114 125.617 84.5618 125.46 84.5618H123.647C123.491 84.5618 123.364 84.5114 123.265 84.4107C123.167 84.304 123.118 84.1737 123.118 84.0196V78.1897L120.064 83.9219C119.971 84.0937 119.83 84.2448 119.639 84.3751C119.448 84.4996 119.263 84.5618 119.084 84.5618H116.646C116.489 84.5618 116.362 84.5114 116.264 84.4107C116.165 84.31 116.116 84.1796 116.116 84.0196Z" fill="white"/>
<path d="M133.46 84.0196V82.9621C133.46 82.8021 133.509 82.6718 133.607 82.571C133.711 82.4644 133.842 82.4111 133.998 82.4111H134.674L135.863 77.5143C136.303 75.7191 137.755 74.8215 140.219 74.8215H144.158C144.314 74.8215 144.441 74.8748 144.539 74.9814C144.643 75.0822 144.695 75.2125 144.695 75.3725V84.0196C144.695 84.1737 144.643 84.304 144.539 84.4107C144.441 84.5114 144.314 84.5618 144.158 84.5618H133.998C133.842 84.5618 133.711 84.5114 133.607 84.4107C133.509 84.304 133.46 84.1737 133.46 84.0196ZM137.512 82.4111H141.693V76.9722H140.123C139.284 76.9722 138.752 77.4076 138.527 78.2786L137.512 82.4111Z" fill="white"/>
<path d="M147.645 83.4598C146.743 82.6066 146.292 81.3505 146.292 79.6916C146.292 78.0268 146.743 76.7707 147.645 75.9235C148.548 75.0703 149.843 74.6437 151.532 74.6437C153.227 74.6437 154.525 75.0703 155.428 75.9235C156.33 76.7707 156.781 78.0268 156.781 79.6916C156.781 81.3505 156.33 82.6066 155.428 83.4598C154.525 84.3129 153.227 84.7395 151.532 84.7395C149.843 84.7395 148.548 84.3129 147.645 83.4598ZM149.84 77.381C149.482 77.8609 149.302 78.6281 149.302 79.6827C149.302 80.7373 149.482 81.5076 149.84 81.9934C150.199 82.4792 150.763 82.7221 151.532 82.7221C152.307 82.7221 152.874 82.4792 153.233 81.9934C153.597 81.5076 153.779 80.7373 153.779 79.6827C153.779 78.6281 153.597 77.8609 153.233 77.381C152.874 76.9011 152.307 76.6611 151.532 76.6611C150.763 76.6611 150.199 76.9011 149.84 77.381Z" fill="white"/>
<path d="M64.6582 107.276V98.6291C64.6582 98.4691 64.7074 98.3388 64.8057 98.2381C64.9098 98.1314 65.0371 98.0781 65.1875 98.0781H73.933C74.0892 98.0781 74.2164 98.1314 74.3148 98.2381C74.4131 98.3388 74.4622 98.4691 74.4622 98.6291V107.276C74.4622 107.436 74.4131 107.567 74.3148 107.667C74.2164 107.768 74.0892 107.818 73.933 107.818H71.9982C71.8421 107.818 71.7119 107.768 71.6078 107.667C71.5095 107.561 71.4603 107.43 71.4603 107.276V100.229H67.6602V107.276C67.6602 107.436 67.6081 107.567 67.504 107.667C67.4057 107.768 67.2813 107.818 67.1309 107.818H65.1875C65.0313 107.818 64.9041 107.768 64.8057 107.667C64.7074 107.567 64.6582 107.436 64.6582 107.276Z" fill="white"/>
<path d="M77.4121 106.716C76.5098 105.863 76.0587 104.607 76.0587 102.948C76.0587 101.283 76.5098 100.027 77.4121 99.1801C78.3144 98.3269 79.6101 97.9004 81.299 97.9004C82.9938 97.9004 84.2923 98.3269 85.1946 99.1801C86.0969 100.027 86.5481 101.283 86.5481 102.948C86.5481 104.607 86.0969 105.863 85.1946 106.716C84.2923 107.57 82.9938 107.996 81.299 107.996C79.6101 107.996 78.3144 107.57 77.4121 106.716ZM79.6072 100.638C79.2486 101.118 79.0693 101.885 79.0693 102.939C79.0693 103.994 79.2486 104.764 79.6072 105.25C79.9658 105.736 80.5297 105.979 81.299 105.979C82.0741 105.979 82.6409 105.736 82.9995 105.25C83.3639 104.764 83.5461 103.994 83.5461 102.939C83.5461 101.885 83.3639 101.118 82.9995 100.638C82.6409 100.158 82.0741 99.9177 81.299 99.9177C80.5297 99.9177 79.9658 100.158 79.6072 100.638Z" fill="white"/>
<path d="M97.7403 107.427C97.7403 107.688 97.5899 107.818 97.2891 107.818H95.6493C95.0941 107.818 94.6516 107.54 94.3219 106.983L93.22 105.143C92.7457 104.355 92.0574 103.961 91.1551 103.961V107.276C91.1551 107.436 91.103 107.567 90.9989 107.667C90.9006 107.768 90.7762 107.818 90.6259 107.818H88.6824C88.5262 107.818 88.399 107.768 88.3007 107.667C88.2023 107.567 88.1532 107.436 88.1532 107.276V98.6291C88.1532 98.4691 88.2023 98.3388 88.3007 98.2381C88.4048 98.1314 88.532 98.0781 88.6824 98.0781H90.6259C90.782 98.0781 90.9093 98.1314 91.0076 98.2381C91.1059 98.3388 91.1551 98.4691 91.1551 98.6291V101.935C92.1615 101.935 92.8498 101.535 93.22 100.735L94.0529 98.9224C94.1686 98.6676 94.3392 98.4632 94.5648 98.3092C94.7904 98.1551 95.0333 98.0781 95.2936 98.0781H96.9334C97.2226 98.0781 97.3672 98.1936 97.3672 98.4247C97.3672 98.555 97.3209 98.7209 97.2284 98.9224L96.1092 101.34C95.9183 101.743 95.658 102.089 95.3283 102.379C94.9986 102.67 94.6429 102.856 94.2611 102.939C94.9726 103.159 95.5886 103.692 96.1092 104.539L97.5841 106.983C97.6824 107.155 97.7345 107.303 97.7403 107.427Z" fill="white"/>
<path d="M100.846 108.743L101.983 108.894C102.798 108.894 103.368 108.281 103.692 107.054C102.709 107.054 101.887 106.752 101.228 106.148C100.569 105.537 100.002 104.456 99.5275 102.904L98.2348 98.6113C98.2175 98.5639 98.2088 98.5106 98.2088 98.4514C98.2088 98.3862 98.2435 98.3092 98.3129 98.2203C98.3881 98.1314 98.498 98.084 98.6426 98.0781H100.456C100.624 98.0781 100.783 98.1374 100.933 98.2558C101.089 98.3684 101.19 98.5106 101.237 98.6824L102.373 102.451C102.657 103.375 102.943 104.015 103.232 104.37C103.527 104.726 103.874 104.903 104.273 104.903L106 98.6824C106.046 98.5106 106.136 98.3684 106.269 98.2558C106.408 98.1374 106.561 98.0781 106.729 98.0781H108.559C108.704 98.0781 108.811 98.1255 108.88 98.2203C108.95 98.3151 108.985 98.3951 108.985 98.4603C108.985 98.5195 108.979 98.5699 108.967 98.6113L106.694 106.912C106.289 108.381 105.786 109.43 105.184 110.058C104.589 110.686 103.819 111 102.877 111C101.934 111 101.266 110.964 100.872 110.893C100.485 110.822 100.242 110.733 100.144 110.627C100.045 110.526 99.9961 110.408 99.9961 110.271V109.294C99.9961 109.134 100.045 109 100.144 108.894C100.242 108.793 100.369 108.743 100.525 108.743H100.846Z" fill="white"/>
<path d="M110.225 107.276V98.6291C110.225 98.4691 110.274 98.3388 110.373 98.2381C110.477 98.1314 110.604 98.0781 110.754 98.0781H119.5C119.656 98.0781 119.783 98.1314 119.882 98.2381C119.98 98.3388 120.029 98.4691 120.029 98.6291V107.276C120.029 107.436 119.98 107.567 119.882 107.667C119.783 107.768 119.656 107.818 119.5 107.818H117.565C117.409 107.818 117.279 107.768 117.175 107.667C117.076 107.561 117.027 107.43 117.027 107.276V100.229H113.227V107.276C113.227 107.436 113.175 107.567 113.071 107.667C112.973 107.768 112.848 107.818 112.698 107.818H110.754C110.598 107.818 110.471 107.768 110.373 107.667C110.274 107.567 110.225 107.436 110.225 107.276Z" fill="white"/>
<path d="M122.979 106.716C122.077 105.863 121.626 104.607 121.626 102.948C121.626 101.283 122.077 100.027 122.979 99.1801C123.881 98.3269 125.177 97.9004 126.866 97.9004C128.561 97.9004 129.859 98.3269 130.762 99.1801C131.664 100.027 132.115 101.283 132.115 102.948C132.115 104.607 131.664 105.863 130.762 106.716C129.859 107.57 128.561 107.996 126.866 107.996C125.177 107.996 123.881 107.57 122.979 106.716ZM125.174 100.638C124.816 101.118 124.636 101.885 124.636 102.939C124.636 103.994 124.816 104.764 125.174 105.25C125.533 105.736 126.097 105.979 126.866 105.979C127.641 105.979 128.208 105.736 128.567 105.25C128.931 104.764 129.113 103.994 129.113 102.939C129.113 101.885 128.931 101.118 128.567 100.638C128.208 100.158 127.641 99.9177 126.866 99.9177C126.097 99.9177 125.533 100.158 125.174 100.638Z" fill="white"/>
<path d="M143.307 107.427C143.307 107.688 143.157 107.818 142.856 107.818H141.216C140.661 107.818 140.219 107.54 139.889 106.983L138.787 105.143C138.313 104.355 137.624 103.961 136.722 103.961V107.276C136.722 107.436 136.67 107.567 136.566 107.667C136.468 107.768 136.343 107.818 136.193 107.818H134.249C134.093 107.818 133.966 107.768 133.868 107.667C133.769 107.567 133.72 107.436 133.72 107.276V98.6291C133.72 98.4691 133.769 98.3388 133.868 98.2381C133.972 98.1314 134.099 98.0781 134.249 98.0781H136.193C136.349 98.0781 136.476 98.1314 136.575 98.2381C136.673 98.3388 136.722 98.4691 136.722 98.6291V101.935C137.728 101.935 138.417 101.535 138.787 100.735L139.62 98.9224C139.736 98.6676 139.906 98.4632 140.132 98.3092C140.357 98.1551 140.6 98.0781 140.861 98.0781H142.5C142.79 98.0781 142.934 98.1936 142.934 98.4247C142.934 98.555 142.888 98.7209 142.795 98.9224L141.676 101.34C141.485 101.743 141.225 102.089 140.895 102.379C140.566 102.67 140.21 102.856 139.828 102.939C140.54 103.159 141.156 103.692 141.676 104.539L143.151 106.983C143.249 107.155 143.301 107.303 143.307 107.427Z" fill="white"/>
<path d="M100.781 121V149M100.781 149L91.7812 137.8M100.781 149L109.781 137.8" stroke="white" stroke-width="2" stroke-linecap="round" stroke-linejoin="round"/>
</svg>
