<svg width="427" height="132" viewBox="0 0 427 132" fill="none" xmlns="http://www.w3.org/2000/svg">
<path d="M1.35352 15.4062C0.451172 14.5951 0 13.4922 0 12.0977C0 10.694 0.451172 9.58659 1.35352 8.77539C2.26497 7.96419 3.39974 7.55859 4.75781 7.55859C6.125 7.55859 7.25977 7.96419 8.16211 8.77539C9.07357 9.58659 9.5293 10.694 9.5293 12.0977C9.5293 13.4922 9.07357 14.5951 8.16211 15.4062C7.25977 16.2174 6.125 16.623 4.75781 16.623C3.39974 16.623 2.26497 16.2174 1.35352 15.4062Z" fill="#3A4C79"/>
<path d="M27.4531 19.7949V6.49219C27.4531 6.24609 27.5306 6.04557 27.6855 5.89062C27.8496 5.72656 28.0501 5.64453 28.2871 5.64453H36.4629C38.2038 5.64453 39.612 5.98177 40.6875 6.65625C41.7721 7.33073 42.3145 8.34701 42.3145 9.70508C42.3145 11.054 41.7539 12.0749 40.6328 12.7676C42.2279 13.5697 43.0254 14.7591 43.0254 16.3359C43.0254 17.9128 42.5104 19.0247 41.4805 19.6719C40.4505 20.3099 38.974 20.6289 37.0508 20.6289H28.2871C28.0501 20.6289 27.8496 20.5514 27.6855 20.3965C27.5306 20.2324 27.4531 20.0319 27.4531 19.7949ZM32.1836 17.5801H36.7227C37.224 17.5801 37.6068 17.4388 37.8711 17.1562C38.1445 16.8737 38.2812 16.5 38.2812 16.0352C38.2812 15.5703 38.1445 15.1966 37.8711 14.9141C37.6068 14.6315 37.224 14.4902 36.7227 14.4902H32.1836V17.5801ZM32.1836 11.4961H36.1895C36.5996 11.4961 36.9323 11.3685 37.1875 11.1133C37.4518 10.849 37.584 10.5117 37.584 10.1016C37.584 9.69141 37.4518 9.35872 37.1875 9.10352C36.9323 8.83919 36.5996 8.70703 36.1895 8.70703H32.1836V11.4961Z" fill="#3A4C79"/>
<path d="M50.738 19.7949V6.49219C50.738 6.24609 50.8154 6.04557 50.9704 5.89062C51.1345 5.72656 51.335 5.64453 51.572 5.64453H54.4294C54.6755 5.64453 54.876 5.72656 55.0309 5.89062C55.195 6.04557 55.277 6.24609 55.277 6.49219V15.4746L60.0895 6.62891C60.2354 6.34635 60.4587 6.11393 60.7595 5.93164C61.0602 5.74023 61.3519 5.64453 61.6345 5.64453H65.4626C65.7087 5.64453 65.9092 5.72656 66.0641 5.89062C66.2282 6.04557 66.3102 6.24609 66.3102 6.49219V19.7949C66.3102 20.041 66.2282 20.2415 66.0641 20.3965C65.9092 20.5514 65.7087 20.6289 65.4626 20.6289H62.6052C62.3591 20.6289 62.1585 20.5514 62.0036 20.3965C61.8486 20.2324 61.7712 20.0319 61.7712 19.7949V10.8262L56.9587 19.6445C56.8128 19.9089 56.5895 20.1413 56.2887 20.3418C55.988 20.5332 55.6963 20.6289 55.4137 20.6289H51.572C51.3259 20.6289 51.1253 20.5514 50.9704 20.3965C50.8154 20.2415 50.738 20.041 50.738 19.7949Z" fill="#3A4C79"/>
<path d="M74.9798 19.7949V6.49219C74.9798 6.24609 75.0573 6.04557 75.2123 5.89062C75.3763 5.72656 75.5769 5.64453 75.8138 5.64453H86.0404C86.2774 5.64453 86.4733 5.72656 86.6283 5.89062C86.7923 6.04557 86.8744 6.24609 86.8744 6.49219V8.11914C86.8744 8.35612 86.7923 8.55664 86.6283 8.7207C86.4733 8.87565 86.2774 8.95312 86.0404 8.95312H79.7103V19.7949C79.7103 20.0319 79.6283 20.2324 79.4642 20.3965C79.3093 20.5514 79.1133 20.6289 78.8763 20.6289H75.8138C75.5769 20.6289 75.3763 20.5514 75.2123 20.3965C75.0573 20.2324 74.9798 20.0319 74.9798 19.7949Z" fill="#3A4C79"/>
<path d="M94.1631 2.78711V2.32227C94.1631 1.83919 94.2998 1.45638 94.5733 1.17383C94.8558 0.891276 95.2432 0.75 95.7354 0.75H97.4307C97.9138 0.75 98.2966 0.891276 98.5791 1.17383C98.8617 1.44727 99.003 1.83008 99.003 2.32227V2.78711C99.003 3.27018 98.8617 3.65299 98.5791 3.93555C98.3057 4.2181 97.9229 4.35938 97.4307 4.35938H95.7354C95.2523 4.35938 94.8695 4.2181 94.587 3.93555C94.3044 3.65299 94.1631 3.27018 94.1631 2.78711ZM94.2178 19.7949V6.82031C94.2178 6.57422 94.2953 6.3737 94.4502 6.21875C94.6143 6.0638 94.8148 5.98633 95.0518 5.98633H98.1143C98.3604 5.98633 98.5609 6.06836 98.7159 6.23242C98.8708 6.38737 98.9483 6.58333 98.9483 6.82031V19.7949C98.9483 20.041 98.8662 20.2415 98.7022 20.3965C98.5472 20.5514 98.3513 20.6289 98.1143 20.6289H95.0518C94.8057 20.6289 94.6052 20.5514 94.4502 20.3965C94.2953 20.2415 94.2178 20.041 94.2178 19.7949Z" fill="#3A4C79"/>
<path d="M106.278 19.7949V18.168C106.278 17.9219 106.356 17.7214 106.51 17.5664C106.675 17.4023 106.88 17.3203 107.126 17.3203H108.192L110.065 9.78711C110.758 7.02539 113.046 5.64453 116.928 5.64453H123.135C123.382 5.64453 123.582 5.72656 123.737 5.89062C123.901 6.04557 123.983 6.24609 123.983 6.49219V19.7949C123.983 20.0319 123.901 20.2324 123.737 20.3965C123.582 20.5514 123.382 20.6289 123.135 20.6289H107.126C106.88 20.6289 106.675 20.5514 106.51 20.3965C106.356 20.2324 106.278 20.0319 106.278 19.7949ZM112.663 17.3203H119.253V8.95312H116.778C115.456 8.95312 114.618 9.62305 114.262 10.9629L112.663 17.3203Z" fill="#3A4C79"/>
<path d="M132.666 19.7949V6.49219C132.666 6.24609 132.744 6.04557 132.899 5.89062C133.063 5.72656 133.263 5.64453 133.5 5.64453H136.563C136.809 5.64453 137.01 5.72656 137.164 5.89062C137.319 6.04557 137.397 6.24609 137.397 6.49219V11.3867H143.385V6.49219C143.385 6.24609 143.463 6.04557 143.618 5.89062C143.782 5.72656 143.987 5.64453 144.233 5.64453H147.282C147.528 5.64453 147.728 5.72656 147.883 5.89062C148.038 6.04557 148.116 6.24609 148.116 6.49219V19.7949C148.116 20.041 148.038 20.2415 147.883 20.3965C147.728 20.5514 147.528 20.6289 147.282 20.6289H144.233C143.987 20.6289 143.782 20.5514 143.618 20.3965C143.463 20.2324 143.385 20.0319 143.385 19.7949V14.6953H137.397V19.7949C137.397 20.041 137.315 20.2415 137.151 20.3965C136.996 20.5514 136.8 20.6289 136.563 20.6289H133.5C133.254 20.6289 133.054 20.5514 132.899 20.3965C132.744 20.2415 132.666 20.041 132.666 19.7949Z" fill="#3A4C79"/>
<path d="M157.756 19.6445C156.553 18.806 155.951 17.6211 155.951 16.0898C155.951 14.5586 156.553 13.3828 157.756 12.5625C158.968 11.7422 160.527 11.332 162.432 11.332H166.957C166.957 10.2656 166.734 9.52279 166.287 9.10352C165.841 8.68424 165.057 8.47461 163.936 8.47461C162.824 8.47461 162.04 8.7526 161.584 9.30859C161.137 9.85547 160.586 10.1289 159.93 10.1289H157.893C157.647 10.1289 157.441 10.0514 157.277 9.89648C157.122 9.73242 157.045 9.5319 157.045 9.29492C157.045 6.67904 159.529 5.37109 164.496 5.37109C166.665 5.37109 168.406 5.85872 169.719 6.83398C171.031 7.80013 171.688 9.29948 171.688 11.332V19.7949C171.688 20.041 171.61 20.2415 171.455 20.3965C171.3 20.5514 171.1 20.6289 170.854 20.6289H168.215C167.969 20.6289 167.768 20.5514 167.613 20.3965C167.458 20.2324 167.381 20.0319 167.381 19.7949V19.3711C165.941 20.401 164.277 20.9115 162.391 20.9023C160.513 20.9023 158.968 20.4831 157.756 19.6445ZM162.76 14.4355C162.122 14.4355 161.616 14.5905 161.242 14.9004C160.878 15.2103 160.695 15.6113 160.695 16.1035C160.695 16.5957 160.887 17.0013 161.27 17.3203C161.652 17.6393 162.195 17.7988 162.897 17.7988C164.3 17.7988 165.654 17.3887 166.957 16.5684V14.4355H162.76Z" fill="#3A4C79"/>
<path d="M195.521 19.7949V6.49219C195.521 6.24609 195.598 6.04557 195.753 5.89062C195.917 5.72656 196.118 5.64453 196.355 5.64453H199.417C199.664 5.64453 199.864 5.72656 200.019 5.89062C200.174 6.04557 200.251 6.24609 200.251 6.49219V17.3203H206.076V6.49219C206.076 6.24609 206.153 6.04557 206.308 5.89062C206.472 5.72656 206.673 5.64453 206.91 5.64453H209.972C210.218 5.64453 210.419 5.72656 210.574 5.89062C210.729 6.04557 210.806 6.24609 210.806 6.49219V17.3203H212.146C212.392 17.3203 212.593 17.4023 212.747 17.5664C212.912 17.7214 212.994 17.9219 212.994 18.168V19.7949C212.994 20.041 212.912 20.2415 212.747 20.3965C212.593 20.5514 212.392 20.6289 212.146 20.6289H196.355C196.109 20.6289 195.908 20.5514 195.753 20.3965C195.598 20.2415 195.521 20.041 195.521 19.7949Z" fill="#3A4C79"/>
<path d="M220.282 2.78711V2.32227C220.282 1.83919 220.419 1.45638 220.693 1.17383C220.975 0.891276 221.362 0.75 221.855 0.75H223.55C224.033 0.75 224.416 0.891276 224.698 1.17383C224.981 1.44727 225.122 1.83008 225.122 2.32227V2.78711C225.122 3.27018 224.981 3.65299 224.698 3.93555C224.425 4.2181 224.042 4.35938 223.55 4.35938H221.855C221.372 4.35938 220.989 4.2181 220.706 3.93555C220.424 3.65299 220.282 3.27018 220.282 2.78711ZM220.337 19.7949V6.82031C220.337 6.57422 220.415 6.3737 220.569 6.21875C220.734 6.0638 220.934 5.98633 221.171 5.98633H224.234C224.48 5.98633 224.68 6.06836 224.835 6.23242C224.99 6.38737 225.068 6.58333 225.068 6.82031V19.7949C225.068 20.041 224.985 20.2415 224.821 20.3965C224.666 20.5514 224.471 20.6289 224.234 20.6289H221.171C220.925 20.6289 220.724 20.5514 220.569 20.3965C220.415 20.2415 220.337 20.041 220.337 19.7949Z" fill="#3A4C79"/>
<path d="M233.805 19.7949V6.49219C233.805 6.24609 233.883 6.04557 234.038 5.89062C234.202 5.72656 234.402 5.64453 234.639 5.64453H237.702C237.948 5.64453 238.149 5.72656 238.304 5.89062C238.458 6.04557 238.536 6.24609 238.536 6.49219V11.3867H244.524V6.49219C244.524 6.24609 244.602 6.04557 244.757 5.89062C244.921 5.72656 245.126 5.64453 245.372 5.64453H248.421C248.667 5.64453 248.867 5.72656 249.022 5.89062C249.177 6.04557 249.255 6.24609 249.255 6.49219V19.7949C249.255 20.041 249.177 20.2415 249.022 20.3965C248.867 20.5514 248.667 20.6289 248.421 20.6289H245.372C245.126 20.6289 244.921 20.5514 244.757 20.3965C244.602 20.2324 244.524 20.0319 244.524 19.7949V14.6953H238.536V19.7949C238.536 20.041 238.454 20.2415 238.29 20.3965C238.135 20.5514 237.939 20.6289 237.702 20.6289H234.639C234.393 20.6289 234.193 20.5514 234.038 20.3965C233.883 20.2415 233.805 20.041 233.805 19.7949Z" fill="#3A4C79"/>
<path d="M258.895 19.6445C257.692 18.806 257.09 17.6211 257.09 16.0898C257.09 14.5586 257.692 13.3828 258.895 12.5625C260.107 11.7422 261.666 11.332 263.571 11.332H268.096C268.096 10.2656 267.873 9.52279 267.426 9.10352C266.98 8.68424 266.196 8.47461 265.075 8.47461C263.963 8.47461 263.179 8.7526 262.723 9.30859C262.276 9.85547 261.725 10.1289 261.069 10.1289H259.032C258.786 10.1289 258.581 10.0514 258.416 9.89648C258.262 9.73242 258.184 9.5319 258.184 9.29492C258.184 6.67904 260.668 5.37109 265.635 5.37109C267.805 5.37109 269.545 5.85872 270.858 6.83398C272.17 7.80013 272.827 9.29948 272.827 11.332V19.7949C272.827 20.041 272.749 20.2415 272.594 20.3965C272.439 20.5514 272.239 20.6289 271.993 20.6289H269.354C269.108 20.6289 268.907 20.5514 268.752 20.3965C268.597 20.2324 268.52 20.0319 268.52 19.7949V19.3711C267.08 20.401 265.416 20.9115 263.53 20.9023C261.652 20.9023 260.107 20.4831 258.895 19.6445ZM263.899 14.4355C263.261 14.4355 262.755 14.5905 262.381 14.9004C262.017 15.2103 261.834 15.6113 261.834 16.1035C261.834 16.5957 262.026 17.0013 262.409 17.3203C262.791 17.6393 263.334 17.7988 264.036 17.7988C265.439 17.7988 266.793 17.3887 268.096 16.5684V14.4355H263.899Z" fill="#3A4C79"/>
<path d="M1.35352 68.4062C0.451172 67.5951 0 66.4922 0 65.0977C0 63.694 0.451172 62.5866 1.35352 61.7754C2.26497 60.9642 3.39974 60.5586 4.75781 60.5586C6.125 60.5586 7.25977 60.9642 8.16211 61.7754C9.07357 62.5866 9.5293 63.694 9.5293 65.0977C9.5293 66.4922 9.07357 67.5951 8.16211 68.4062C7.25977 69.2174 6.125 69.623 4.75781 69.623C3.39974 69.623 2.26497 69.2174 1.35352 68.4062Z" fill="#3A4C79"/>
<path d="M42.5605 73.0273C42.5605 73.4284 42.3236 73.6289 41.8496 73.6289H39.2656C38.3906 73.6289 37.6934 73.2005 37.1738 72.3438L35.4375 69.5137C34.6901 68.3014 33.6055 67.6953 32.1836 67.6953V72.7949C32.1836 73.041 32.1016 73.2415 31.9375 73.3965C31.7826 73.5514 31.5866 73.6289 31.3496 73.6289H28.2871C28.041 73.6289 27.8405 73.5514 27.6855 73.3965C27.5306 73.2415 27.4531 73.041 27.4531 72.7949V59.4922C27.4531 59.2461 27.5306 59.0456 27.6855 58.8906C27.8496 58.7266 28.0501 58.6445 28.2871 58.6445H31.3496C31.5957 58.6445 31.7962 58.7266 31.9512 58.8906C32.1061 59.0456 32.1836 59.2461 32.1836 59.4922V64.5781C33.7695 64.5781 34.8542 63.9629 35.4375 62.7324L36.75 59.9434C36.9323 59.5514 37.2012 59.237 37.5566 59C37.9121 58.763 38.2949 58.6445 38.7051 58.6445H41.2891C41.7448 58.6445 41.9727 58.8223 41.9727 59.1777C41.9727 59.3783 41.8997 59.6335 41.7539 59.9434L39.9902 63.6621C39.6895 64.2819 39.2793 64.8151 38.7598 65.2617C38.2402 65.7083 37.6797 65.9954 37.0781 66.123C38.1992 66.4603 39.1699 67.2806 39.9902 68.584L42.3145 72.3438C42.4694 72.6081 42.5514 72.8359 42.5605 73.0273Z" fill="#3A4C79"/>
<path d="M49.863 77.4023V59.4922C49.863 59.2461 49.9404 59.0456 50.0954 58.8906C50.2595 58.7266 50.46 58.6445 50.697 58.6445H53.3356C53.5726 58.6445 53.7686 58.7266 53.9235 58.8906C54.0876 59.0456 54.1696 59.2461 54.1696 59.4922V59.9023C55.6097 58.8815 57.2822 58.3711 59.1872 58.3711C61.0921 58.3711 62.6826 59.0456 63.9587 60.3945C65.2347 61.7344 65.8727 63.6576 65.8727 66.1641C65.8727 68.6615 65.2119 70.5755 63.8903 71.9062C62.5687 73.237 60.7868 73.9023 58.5446 73.9023C57.3871 73.9023 56.07 73.6699 54.5934 73.2051V77.4023C54.5934 77.6484 54.5114 77.849 54.3473 78.0039C54.1924 78.168 53.9964 78.25 53.7595 78.25H50.697C50.46 78.25 50.2595 78.168 50.0954 78.0039C49.9404 77.849 49.863 77.6484 49.863 77.4023ZM54.5934 70.0469C55.7692 70.4206 56.7582 70.6074 57.5602 70.6074C58.8089 70.6074 59.693 70.252 60.2126 69.541C60.7412 68.8301 61.0055 67.6953 61.0055 66.1367C61.0055 64.5781 60.7549 63.4479 60.2536 62.7461C59.7614 62.0352 59.0186 61.6797 58.0251 61.6797C57.0407 61.6797 55.8968 62.0898 54.5934 62.9102V70.0469Z" fill="#3A4C79"/>
<path d="M74.6791 72.6445C73.4759 71.806 72.8744 70.6211 72.8744 69.0898C72.8744 67.5586 73.4759 66.3828 74.6791 65.5625C75.8913 64.7422 77.4499 64.332 79.3548 64.332H83.8802C83.8802 63.2656 83.6569 62.5228 83.2103 62.1035C82.7637 61.6842 81.9798 61.4746 80.8587 61.4746C79.7468 61.4746 78.9629 61.7526 78.5072 62.3086C78.0606 62.8555 77.5091 63.1289 76.8529 63.1289H74.8158C74.5697 63.1289 74.3646 63.0514 74.2005 62.8965C74.0456 62.7324 73.9681 62.5319 73.9681 62.2949C73.9681 59.679 76.4519 58.3711 81.4193 58.3711C83.5886 58.3711 85.3295 58.8587 86.642 59.834C87.9545 60.8001 88.6107 62.2995 88.6107 64.332V72.7949C88.6107 73.041 88.5332 73.2415 88.3783 73.3965C88.2233 73.5514 88.0228 73.6289 87.7767 73.6289H85.138C84.892 73.6289 84.6914 73.5514 84.5365 73.3965C84.3815 73.2324 84.3041 73.0319 84.3041 72.7949V72.3711C82.864 73.401 81.2005 73.9115 79.3138 73.9023C77.4362 73.9023 75.8913 73.4831 74.6791 72.6445ZM79.683 67.4355C79.0449 67.4355 78.5391 67.5905 78.1654 67.9004C77.8008 68.2103 77.6185 68.6113 77.6185 69.1035C77.6185 69.5957 77.8099 70.0013 78.1927 70.3203C78.5755 70.6393 79.1179 70.7988 79.8197 70.7988C81.2233 70.7988 82.5769 70.3887 83.8802 69.5684V67.4355H79.683Z" fill="#3A4C79"/>
<path d="M104.554 73.9023C102.002 73.9023 100.015 73.2461 98.5928 71.9336C97.1709 70.6211 96.46 68.6934 96.46 66.1504C96.46 63.5983 97.1664 61.666 98.5791 60.3535C99.9919 59.0319 101.956 58.3711 104.472 58.3711C106.996 58.3711 108.933 58.7721 110.282 59.5742C111.64 60.3763 112.319 61.5612 112.319 63.1289C112.319 63.375 112.237 63.5755 112.073 63.7305C111.918 63.8854 111.718 63.9629 111.472 63.9629H109.435C108.815 63.9629 108.291 63.6302 107.862 62.9648C107.325 62.1081 106.372 61.6797 105.005 61.6797C103.647 61.6797 102.694 62.0306 102.147 62.7324C101.61 63.4251 101.341 64.5599 101.341 66.1367C101.341 67.7135 101.619 68.8529 102.175 69.5547C102.74 70.2565 103.715 70.6074 105.101 70.6074C106.495 70.6074 107.461 70.179 107.999 69.3223C108.427 68.6478 108.952 68.3105 109.571 68.3105H111.608C111.855 68.3105 112.055 68.3926 112.21 68.5566C112.374 68.7116 112.456 68.9076 112.456 69.1445C112.456 70.7122 111.777 71.8971 110.419 72.6992C109.07 73.5013 107.115 73.9023 104.554 73.9023Z" fill="#3A4C79"/>
<path d="M120.018 72.7949V59.4922C120.018 59.2461 120.096 59.0456 120.251 58.8906C120.415 58.7266 120.615 58.6445 120.852 58.6445H123.71C123.956 58.6445 124.156 58.7266 124.311 58.8906C124.475 59.0456 124.557 59.2461 124.557 59.4922V68.4746L129.37 59.6289C129.516 59.3464 129.739 59.1139 130.04 58.9316C130.341 58.7402 130.632 58.6445 130.915 58.6445H134.743C134.989 58.6445 135.189 58.7266 135.344 58.8906C135.509 59.0456 135.591 59.2461 135.591 59.4922V72.7949C135.591 73.041 135.509 73.2415 135.344 73.3965C135.189 73.5514 134.989 73.6289 134.743 73.6289H131.885C131.639 73.6289 131.439 73.5514 131.284 73.3965C131.129 73.2324 131.051 73.0319 131.051 72.7949V63.8262L126.239 72.6445C126.093 72.9089 125.87 73.1413 125.569 73.3418C125.268 73.5332 124.977 73.6289 124.694 73.6289H120.852C120.606 73.6289 120.406 73.5514 120.251 73.3965C120.096 73.2415 120.018 73.041 120.018 72.7949Z" fill="#3A4C79"/>
<path d="M144.26 72.7949V59.4922C144.26 59.2461 144.338 59.0456 144.493 58.8906C144.657 58.7266 144.857 58.6445 145.094 58.6445H153.27C155.011 58.6445 156.419 58.9818 157.495 59.6562C158.579 60.3307 159.121 61.347 159.121 62.7051C159.121 64.054 158.561 65.0749 157.44 65.7676C159.035 66.5697 159.832 67.7591 159.832 69.3359C159.832 70.9128 159.317 72.0247 158.288 72.6719C157.258 73.3099 155.781 73.6289 153.858 73.6289H145.094C144.857 73.6289 144.657 73.5514 144.493 73.3965C144.338 73.2324 144.26 73.0319 144.26 72.7949ZM148.991 70.5801H153.53C154.031 70.5801 154.414 70.4388 154.678 70.1562C154.952 69.8737 155.088 69.5 155.088 69.0352C155.088 68.5703 154.952 68.1966 154.678 67.9141C154.414 67.6315 154.031 67.4902 153.53 67.4902H148.991V70.5801ZM148.991 64.4961H152.996C153.407 64.4961 153.739 64.3685 153.995 64.1133C154.259 63.849 154.391 63.5117 154.391 63.1016C154.391 62.6914 154.259 62.3587 153.995 62.1035C153.739 61.8392 153.407 61.707 152.996 61.707H148.991V64.4961Z" fill="#3A4C79"/>
<path d="M167.545 72.7949V59.4922C167.545 59.2461 167.622 59.0456 167.777 58.8906C167.941 58.7266 168.142 58.6445 168.379 58.6445H171.236C171.482 58.6445 171.683 58.7266 171.838 58.8906C172.002 59.0456 172.084 59.2461 172.084 59.4922V68.4746L176.897 59.6289C177.042 59.3464 177.266 59.1139 177.566 58.9316C177.867 58.7402 178.159 58.6445 178.441 58.6445H182.27C182.516 58.6445 182.716 58.7266 182.871 58.8906C183.035 59.0456 183.117 59.2461 183.117 59.4922V72.7949C183.117 73.041 183.035 73.2415 182.871 73.3965C182.716 73.5514 182.516 73.6289 182.27 73.6289H179.412C179.166 73.6289 178.966 73.5514 178.811 73.3965C178.656 73.2324 178.578 73.0319 178.578 72.7949V63.8262L173.766 72.6445C173.62 72.9089 173.397 73.1413 173.096 73.3418C172.795 73.5332 172.503 73.6289 172.221 73.6289H168.379C168.133 73.6289 167.932 73.5514 167.777 73.3965C167.622 73.2415 167.545 73.041 167.545 72.7949Z" fill="#3A4C79"/>
<path d="M191.787 72.7949V59.4922C191.787 59.2461 191.864 59.0456 192.019 58.8906C192.183 58.7266 192.384 58.6445 192.621 58.6445H195.478C195.724 58.6445 195.925 58.7266 196.08 58.8906C196.244 59.0456 196.326 59.2461 196.326 59.4922V68.4746L201.138 59.6289C201.284 59.3464 201.508 59.1139 201.808 58.9316C202.109 58.7402 202.401 58.6445 202.683 58.6445H206.511C206.758 58.6445 206.958 58.7266 207.113 58.8906C207.277 59.0456 207.359 59.2461 207.359 59.4922V72.7949C207.359 73.041 207.277 73.2415 207.113 73.3965C206.958 73.5514 206.758 73.6289 206.511 73.6289H203.654C203.408 73.6289 203.207 73.5514 203.053 73.3965C202.898 73.2324 202.82 73.0319 202.82 72.7949V63.8262L198.008 72.6445C197.862 72.9089 197.638 73.1413 197.338 73.3418C197.037 73.5332 196.745 73.6289 196.463 73.6289H192.621C192.375 73.6289 192.174 73.5514 192.019 73.3965C191.864 73.2415 191.787 73.041 191.787 72.7949ZM194.972 53.4629C194.972 52.998 195.228 52.7656 195.738 52.7656H196.763C197.21 52.7656 197.529 52.998 197.72 53.4629C198.021 54.2103 198.636 54.584 199.566 54.584C200.505 54.584 201.12 54.2103 201.412 53.4629C201.594 52.998 201.913 52.7656 202.369 52.7656H203.408C203.909 52.7656 204.16 52.998 204.16 53.4629C204.16 54.5293 203.736 55.4043 202.888 56.0879C202.041 56.7715 200.933 57.1133 199.566 57.1133C198.208 57.1133 197.101 56.7715 196.244 56.0879C195.396 55.4043 194.972 54.5293 194.972 53.4629Z" fill="#3A4C79"/>
<path d="M229.757 72.7949V71.168C229.757 70.9219 229.834 70.7214 229.989 70.5664C230.153 70.4023 230.359 70.3203 230.605 70.3203H231.671L233.544 62.7871C234.237 60.0254 236.525 58.6445 240.407 58.6445H246.614C246.86 58.6445 247.061 58.7266 247.216 58.8906C247.38 59.0456 247.462 59.2461 247.462 59.4922V72.7949C247.462 73.0319 247.38 73.2324 247.216 73.3965C247.061 73.5514 246.86 73.6289 246.614 73.6289H230.605C230.359 73.6289 230.153 73.5514 229.989 73.3965C229.834 73.2324 229.757 73.0319 229.757 72.7949ZM236.142 70.3203H242.732V61.9531H240.257C238.935 61.9531 238.097 62.623 237.741 63.9629L236.142 70.3203Z" fill="#3A4C79"/>
<path d="M256.145 72.7949V59.4922C256.145 59.2461 256.223 59.0456 256.378 58.8906C256.542 58.7266 256.742 58.6445 256.979 58.6445H259.837C260.083 58.6445 260.283 58.7266 260.438 58.8906C260.602 59.0456 260.684 59.2461 260.684 59.4922V68.4746L265.497 59.6289C265.643 59.3464 265.866 59.1139 266.167 58.9316C266.468 58.7402 266.759 58.6445 267.042 58.6445H270.87C271.116 58.6445 271.317 58.7266 271.471 58.8906C271.636 59.0456 271.718 59.2461 271.718 59.4922V72.7949C271.718 73.041 271.636 73.2415 271.471 73.3965C271.317 73.5514 271.116 73.6289 270.87 73.6289H268.013C267.766 73.6289 267.566 73.5514 267.411 73.3965C267.256 73.2324 267.179 73.0319 267.179 72.7949V63.8262L262.366 72.6445C262.22 72.9089 261.997 73.1413 261.696 73.3418C261.395 73.5332 261.104 73.6289 260.821 73.6289H256.979C256.733 73.6289 256.533 73.5514 256.378 73.3965C256.223 73.2415 256.145 73.041 256.145 72.7949Z" fill="#3A4C79"/>
<path d="M279.266 69.7871C279.266 69.541 279.344 69.3405 279.499 69.1855C279.663 69.0306 279.863 68.9531 280.1 68.9531H282.151C282.771 68.9531 283.254 69.263 283.6 69.8828C283.956 70.4935 284.63 70.7988 285.624 70.7988H288.399C289.721 70.7988 290.381 70.2565 290.381 69.1719C290.381 68.0872 289.721 67.5495 288.399 67.5586H285.008C284.762 67.5586 284.557 67.4811 284.393 67.3262C284.238 67.1621 284.161 66.957 284.161 66.7109V65.2891C284.161 65.043 284.238 64.8424 284.393 64.6875C284.557 64.5234 284.762 64.4414 285.008 64.4414H288.139C288.741 64.4414 289.192 64.3092 289.493 64.0449C289.803 63.7715 289.957 63.4115 289.957 62.9648C289.957 62.5182 289.803 62.1582 289.493 61.8848C289.192 61.6113 288.741 61.4746 288.139 61.4746H285.624C285.305 61.4746 284.976 61.5566 284.639 61.7207C284.302 61.8757 284.051 62.1035 283.887 62.4043C283.532 63.0241 283.044 63.3294 282.424 63.3203H280.387C280.141 63.3203 279.936 63.2428 279.772 63.0879C279.617 62.9329 279.54 62.7324 279.54 62.4863C279.54 61.2559 280.137 60.2624 281.331 59.5059C282.534 58.7493 283.983 58.3711 285.678 58.3711H288.426C290.349 58.3711 291.872 58.7266 292.993 59.4375C294.123 60.1393 294.688 61.2103 294.688 62.6504C294.688 64.0905 294.036 65.1296 292.733 65.7676C294.319 66.5697 295.112 67.8366 295.112 69.5684C295.112 71.0814 294.574 72.1842 293.499 72.877C292.432 73.5605 290.842 73.9023 288.727 73.9023H285.678C283.846 73.9023 282.319 73.5286 281.098 72.7812C279.877 72.0339 279.266 71.0358 279.266 69.7871Z" fill="#3A4C79"/>
<path d="M303.781 72.6445C302.578 71.806 301.977 70.6211 301.977 69.0898C301.977 67.5586 302.578 66.3828 303.781 65.5625C304.994 64.7422 306.552 64.332 308.457 64.332H312.983C312.983 63.2656 312.759 62.5228 312.313 62.1035C311.866 61.6842 311.082 61.4746 309.961 61.4746C308.849 61.4746 308.065 61.7526 307.61 62.3086C307.163 62.8555 306.611 63.1289 305.955 63.1289H303.918C303.672 63.1289 303.467 63.0514 303.303 62.8965C303.148 62.7324 303.07 62.5319 303.07 62.2949C303.07 59.679 305.554 58.3711 310.522 58.3711C312.691 58.3711 314.432 58.8587 315.744 59.834C317.057 60.8001 317.713 62.2995 317.713 64.332V72.7949C317.713 73.041 317.636 73.2415 317.481 73.3965C317.326 73.5514 317.125 73.6289 316.879 73.6289H314.24C313.994 73.6289 313.794 73.5514 313.639 73.3965C313.484 73.2324 313.406 73.0319 313.406 72.7949V72.3711C311.966 73.401 310.303 73.9115 308.416 73.9023C306.539 73.9023 304.994 73.4831 303.781 72.6445ZM308.785 67.4355C308.147 67.4355 307.641 67.5905 307.268 67.9004C306.903 68.2103 306.721 68.6113 306.721 69.1035C306.721 69.5957 306.912 70.0013 307.295 70.3203C307.678 70.6393 308.22 70.7988 308.922 70.7988C310.326 70.7988 311.679 70.3887 312.983 69.5684V67.4355H308.785Z" fill="#3A4C79"/>
<path d="M326.41 72.7949V59.4922C326.41 59.2461 326.487 59.0456 326.642 58.8906C326.806 58.7266 327.007 58.6445 327.244 58.6445H330.101C330.348 58.6445 330.548 58.7266 330.703 58.8906C330.867 59.0456 330.949 59.2461 330.949 59.4922V68.4746L335.762 59.6289C335.907 59.3464 336.131 59.1139 336.431 58.9316C336.732 58.7402 337.024 58.6445 337.306 58.6445H341.135C341.381 58.6445 341.581 58.7266 341.736 58.8906C341.9 59.0456 341.982 59.2461 341.982 59.4922V72.7949C341.982 73.041 341.9 73.2415 341.736 73.3965C341.581 73.5514 341.381 73.6289 341.135 73.6289H338.277C338.031 73.6289 337.831 73.5514 337.676 73.3965C337.521 73.2324 337.443 73.0319 337.443 72.7949V63.8262L332.631 72.6445C332.485 72.9089 332.262 73.1413 331.961 73.3418C331.66 73.5332 331.368 73.6289 331.086 73.6289H327.244C326.998 73.6289 326.797 73.5514 326.642 73.3965C326.487 73.2415 326.41 73.041 326.41 72.7949ZM329.596 53.4629C329.596 52.998 329.851 52.7656 330.361 52.7656H331.387C331.833 52.7656 332.152 52.998 332.344 53.4629C332.644 54.2103 333.26 54.584 334.189 54.584C335.128 54.584 335.743 54.2103 336.035 53.4629C336.217 52.998 336.536 52.7656 336.992 52.7656H338.031C338.532 52.7656 338.783 52.998 338.783 53.4629C338.783 54.5293 338.359 55.4043 337.512 56.0879C336.664 56.7715 335.556 57.1133 334.189 57.1133C332.831 57.1133 331.724 56.7715 330.867 56.0879C330.019 55.4043 329.596 54.5293 329.596 53.4629Z" fill="#3A4C79"/>
<path d="M350.652 72.7949V59.4922C350.652 59.2461 350.729 59.0456 350.884 58.8906C351.048 58.7266 351.249 58.6445 351.486 58.6445H354.548C354.794 58.6445 354.995 58.7266 355.15 58.8906C355.305 59.0456 355.382 59.2461 355.382 59.4922V64.3867H361.371V59.4922C361.371 59.2461 361.448 59.0456 361.603 58.8906C361.767 58.7266 361.972 58.6445 362.218 58.6445H365.267C365.513 58.6445 365.714 58.7266 365.869 58.8906C366.024 59.0456 366.101 59.2461 366.101 59.4922V72.7949C366.101 73.041 366.024 73.2415 365.869 73.3965C365.714 73.5514 365.513 73.6289 365.267 73.6289H362.218C361.972 73.6289 361.767 73.5514 361.603 73.3965C361.448 73.2324 361.371 73.0319 361.371 72.7949V67.6953H355.382V72.7949C355.382 73.041 355.3 73.2415 355.136 73.3965C354.981 73.5514 354.785 73.6289 354.548 73.6289H351.486C351.24 73.6289 351.039 73.5514 350.884 73.3965C350.729 73.2415 350.652 73.041 350.652 72.7949Z" fill="#3A4C79"/>
<path d="M1.35352 121.406C0.451172 120.595 0 119.492 0 118.098C0 116.694 0.451172 115.587 1.35352 114.775C2.26497 113.964 3.39974 113.559 4.75781 113.559C6.125 113.559 7.25977 113.964 8.16211 114.775C9.07357 115.587 9.5293 116.694 9.5293 118.098C9.5293 119.492 9.07357 120.595 8.16211 121.406C7.25977 122.217 6.125 122.623 4.75781 122.623C3.39974 122.623 2.26497 122.217 1.35352 121.406Z" fill="#3A4C79"/>
<path d="M42.5605 126.027C42.5605 126.428 42.3236 126.629 41.8496 126.629H39.2656C38.3906 126.629 37.6934 126.201 37.1738 125.344L35.4375 122.514C34.6901 121.301 33.6055 120.695 32.1836 120.695V125.795C32.1836 126.041 32.1016 126.242 31.9375 126.396C31.7826 126.551 31.5866 126.629 31.3496 126.629H28.2871C28.041 126.629 27.8405 126.551 27.6855 126.396C27.5306 126.242 27.4531 126.041 27.4531 125.795V112.492C27.4531 112.246 27.5306 112.046 27.6855 111.891C27.8496 111.727 28.0501 111.645 28.2871 111.645H31.3496C31.5957 111.645 31.7962 111.727 31.9512 111.891C32.1061 112.046 32.1836 112.246 32.1836 112.492V117.578C33.7695 117.578 34.8542 116.963 35.4375 115.732L36.75 112.943C36.9323 112.551 37.2012 112.237 37.5566 112C37.9121 111.763 38.2949 111.645 38.7051 111.645H41.2891C41.7448 111.645 41.9727 111.822 41.9727 112.178C41.9727 112.378 41.8997 112.633 41.7539 112.943L39.9902 116.662C39.6895 117.282 39.2793 117.815 38.7598 118.262C38.2402 118.708 37.6797 118.995 37.0781 119.123C38.1992 119.46 39.1699 120.281 39.9902 121.584L42.3145 125.344C42.4694 125.608 42.5514 125.836 42.5605 126.027Z" fill="#3A4C79"/>
<path d="M50.8747 124.934C49.4528 123.621 48.7419 121.689 48.7419 119.137C48.7419 116.576 49.4528 114.643 50.8747 113.34C52.2966 112.027 54.3382 111.371 56.9997 111.371C59.6703 111.371 61.7165 112.027 63.1384 113.34C64.5602 114.643 65.2712 116.576 65.2712 119.137C65.2712 121.689 64.5602 123.621 63.1384 124.934C61.7165 126.246 59.6703 126.902 56.9997 126.902C54.3382 126.902 52.2966 126.246 50.8747 124.934ZM54.3337 115.582C53.7686 116.32 53.486 117.501 53.486 119.123C53.486 120.745 53.7686 121.93 54.3337 122.678C54.8988 123.425 55.7874 123.799 56.9997 123.799C58.221 123.799 59.1143 123.425 59.6794 122.678C60.2536 121.93 60.5407 120.745 60.5407 119.123C60.5407 117.501 60.2536 116.32 59.6794 115.582C59.1143 114.844 58.221 114.475 56.9997 114.475C55.7874 114.475 54.8988 114.844 54.3337 115.582Z" fill="#3A4C79"/>
<path d="M73.1205 130.402V112.492C73.1205 112.246 73.1979 112.046 73.3529 111.891C73.517 111.727 73.7175 111.645 73.9545 111.645H76.5931C76.8301 111.645 77.0261 111.727 77.181 111.891C77.3451 112.046 77.4271 112.246 77.4271 112.492V112.902C78.8672 111.882 80.5397 111.371 82.4447 111.371C84.3496 111.371 85.9401 112.046 87.2162 113.395C88.4922 114.734 89.1302 116.658 89.1302 119.164C89.1302 121.661 88.4694 123.576 87.1478 124.906C85.8262 126.237 84.0443 126.902 81.8021 126.902C80.6446 126.902 79.3275 126.67 77.8509 126.205V130.402C77.8509 130.648 77.7689 130.849 77.6048 131.004C77.4499 131.168 77.2539 131.25 77.017 131.25H73.9545C73.7175 131.25 73.517 131.168 73.3529 131.004C73.1979 130.849 73.1205 130.648 73.1205 130.402ZM77.8509 123.047C79.0267 123.421 80.0156 123.607 80.8177 123.607C82.0664 123.607 82.9505 123.252 83.4701 122.541C83.9987 121.83 84.263 120.695 84.263 119.137C84.263 117.578 84.0124 116.448 83.5111 115.746C83.0189 115.035 82.2761 114.68 81.2826 114.68C80.2982 114.68 79.1543 115.09 77.8509 115.91V123.047Z" fill="#3A4C79"/>
<path d="M96.9795 125.795V112.492C96.9795 112.246 97.057 112.046 97.212 111.891C97.376 111.727 97.5765 111.645 97.8135 111.645H100.671C100.917 111.645 101.118 111.727 101.272 111.891C101.437 112.046 101.519 112.246 101.519 112.492V121.475L106.331 112.629C106.477 112.346 106.7 112.114 107.001 111.932C107.302 111.74 107.593 111.645 107.876 111.645H111.704C111.95 111.645 112.151 111.727 112.306 111.891C112.47 112.046 112.552 112.246 112.552 112.492V125.795C112.552 126.041 112.47 126.242 112.306 126.396C112.151 126.551 111.95 126.629 111.704 126.629H108.847C108.601 126.629 108.4 126.551 108.245 126.396C108.09 126.232 108.013 126.032 108.013 125.795V116.826L103.2 125.645C103.054 125.909 102.831 126.141 102.53 126.342C102.23 126.533 101.938 126.629 101.655 126.629H97.8135C97.5674 126.629 97.3669 126.551 97.212 126.396C97.057 126.242 96.9795 126.041 96.9795 125.795Z" fill="#3A4C79"/>
<path d="M128.467 126.902C125.915 126.902 123.928 126.246 122.507 124.934C121.085 123.621 120.374 121.693 120.374 119.15C120.374 116.598 121.08 114.666 122.493 113.354C123.906 112.032 125.87 111.371 128.385 111.371C130.91 111.371 132.847 111.772 134.196 112.574C135.554 113.376 136.233 114.561 136.233 116.129C136.233 116.375 136.151 116.576 135.987 116.73C135.832 116.885 135.632 116.963 135.385 116.963H133.348C132.729 116.963 132.204 116.63 131.776 115.965C131.238 115.108 130.286 114.68 128.919 114.68C127.561 114.68 126.608 115.031 126.061 115.732C125.523 116.425 125.255 117.56 125.255 119.137C125.255 120.714 125.533 121.853 126.089 122.555C126.654 123.257 127.629 123.607 129.014 123.607C130.409 123.607 131.375 123.179 131.913 122.322C132.341 121.648 132.865 121.311 133.485 121.311H135.522C135.768 121.311 135.969 121.393 136.124 121.557C136.288 121.712 136.37 121.908 136.37 122.145C136.37 123.712 135.691 124.897 134.333 125.699C132.984 126.501 131.029 126.902 128.467 126.902Z" fill="#3A4C79"/>
<path d="M143.932 125.795V112.492C143.932 112.246 144.01 112.046 144.164 111.891C144.329 111.727 144.529 111.645 144.766 111.645H147.829C148.075 111.645 148.275 111.727 148.43 111.891C148.585 112.046 148.663 112.246 148.663 112.492V117.387H154.651V112.492C154.651 112.246 154.728 112.046 154.883 111.891C155.047 111.727 155.252 111.645 155.498 111.645H158.547C158.793 111.645 158.994 111.727 159.149 111.891C159.304 112.046 159.381 112.246 159.381 112.492V125.795C159.381 126.041 159.304 126.242 159.149 126.396C158.994 126.551 158.793 126.629 158.547 126.629H155.498C155.252 126.629 155.047 126.551 154.883 126.396C154.728 126.232 154.651 126.032 154.651 125.795V120.695H148.663V125.795C148.663 126.041 148.58 126.242 148.416 126.396C148.261 126.551 148.066 126.629 147.829 126.629H144.766C144.52 126.629 144.319 126.551 144.164 126.396C144.01 126.242 143.932 126.041 143.932 125.795Z" fill="#3A4C79"/>
<path d="M168.065 108.787V108.322C168.065 107.839 168.201 107.456 168.475 107.174C168.757 106.891 169.145 106.75 169.637 106.75H171.332C171.815 106.75 172.198 106.891 172.481 107.174C172.763 107.447 172.904 107.83 172.904 108.322V108.787C172.904 109.27 172.763 109.653 172.481 109.936C172.207 110.218 171.824 110.359 171.332 110.359H169.637C169.154 110.359 168.771 110.218 168.488 109.936C168.206 109.653 168.065 109.27 168.065 108.787ZM168.119 125.795V112.82C168.119 112.574 168.197 112.374 168.352 112.219C168.516 112.064 168.716 111.986 168.953 111.986H172.016C172.262 111.986 172.462 112.068 172.617 112.232C172.772 112.387 172.85 112.583 172.85 112.82V125.795C172.85 126.041 172.768 126.242 172.604 126.396C172.449 126.551 172.253 126.629 172.016 126.629H168.953C168.707 126.629 168.507 126.551 168.352 126.396C168.197 126.242 168.119 126.041 168.119 125.795Z" fill="#3A4C79"/>
<path d="M211.831 126.027C211.831 126.428 211.594 126.629 211.121 126.629H208.537C207.662 126.629 206.964 126.201 206.445 125.344L204.708 122.514C203.961 121.301 202.876 120.695 201.455 120.695V125.795C201.455 126.041 201.372 126.242 201.208 126.396C201.053 126.551 200.858 126.629 200.621 126.629H197.558C197.312 126.629 197.111 126.551 196.956 126.396C196.802 126.242 196.724 126.041 196.724 125.795V112.492C196.724 112.246 196.802 112.046 196.956 111.891C197.121 111.727 197.321 111.645 197.558 111.645H200.621C200.867 111.645 201.067 111.727 201.222 111.891C201.377 112.046 201.455 112.246 201.455 112.492V117.578C203.04 117.578 204.125 116.963 204.708 115.732L206.021 112.943C206.203 112.551 206.472 112.237 206.828 112C207.183 111.763 207.566 111.645 207.976 111.645H210.56C211.016 111.645 211.244 111.822 211.244 112.178C211.244 112.378 211.171 112.633 211.025 112.943L209.261 116.662C208.96 117.282 208.55 117.815 208.031 118.262C207.511 118.708 206.951 118.995 206.349 119.123C207.47 119.46 208.441 120.281 209.261 121.584L211.585 125.344C211.74 125.608 211.822 125.836 211.831 126.027Z" fill="#3A4C79"/>
<path d="M220.146 124.934C218.724 123.621 218.013 121.689 218.013 119.137C218.013 116.576 218.724 114.643 220.146 113.34C221.568 112.027 223.609 111.371 226.271 111.371C228.941 111.371 230.987 112.027 232.409 113.34C233.831 114.643 234.542 116.576 234.542 119.137C234.542 121.689 233.831 123.621 232.409 124.934C230.987 126.246 228.941 126.902 226.271 126.902C223.609 126.902 221.568 126.246 220.146 124.934ZM223.605 115.582C223.04 116.32 222.757 117.501 222.757 119.123C222.757 120.745 223.04 121.93 223.605 122.678C224.17 123.425 225.058 123.799 226.271 123.799C227.492 123.799 228.385 123.425 228.95 122.678C229.525 121.93 229.812 120.745 229.812 119.123C229.812 117.501 229.525 116.32 228.95 115.582C228.385 114.844 227.492 114.475 226.271 114.475C225.058 114.475 224.17 114.844 223.605 115.582Z" fill="#3A4C79"/>
<path d="M242.391 125.795V112.492C242.391 112.246 242.469 112.046 242.624 111.891C242.788 111.727 242.988 111.645 243.225 111.645H247.929C248.466 111.645 248.876 111.982 249.159 112.656L252.495 120.805L255.831 112.656C256.113 111.982 256.524 111.645 257.061 111.645H261.764C262.011 111.645 262.211 111.727 262.366 111.891C262.53 112.046 262.612 112.246 262.612 112.492V125.795C262.612 126.041 262.53 126.242 262.366 126.396C262.211 126.551 262.011 126.629 261.764 126.629H258.798C258.552 126.629 258.351 126.551 258.196 126.396C258.041 126.232 257.964 126.032 257.964 125.795V117.25L254.464 125.672C254.181 126.31 253.748 126.629 253.165 126.629H251.825C251.251 126.629 250.822 126.31 250.54 125.672L247.04 117.25V125.795C247.04 126.041 246.958 126.242 246.794 126.396C246.639 126.551 246.438 126.629 246.192 126.629H243.225C242.979 126.629 242.779 126.551 242.624 126.396C242.469 126.242 242.391 126.041 242.391 125.795Z" fill="#3A4C79"/>
<path d="M271.282 125.795V112.492C271.282 112.246 271.359 112.046 271.514 111.891C271.678 111.727 271.879 111.645 272.116 111.645H285.897C286.143 111.645 286.344 111.727 286.499 111.891C286.653 112.046 286.731 112.246 286.731 112.492V125.795C286.731 126.041 286.653 126.242 286.499 126.396C286.344 126.551 286.143 126.629 285.897 126.629H282.848C282.602 126.629 282.397 126.551 282.233 126.396C282.078 126.232 282 126.032 282 125.795V114.953H276.012V125.795C276.012 126.041 275.93 126.242 275.766 126.396C275.611 126.551 275.415 126.629 275.178 126.629H272.116C271.87 126.629 271.669 126.551 271.514 126.396C271.359 126.242 271.282 126.041 271.282 125.795Z" fill="#3A4C79"/>
<path d="M296.699 124.934C295.277 123.621 294.567 121.689 294.567 119.137C294.567 116.576 295.277 114.643 296.699 113.34C298.121 112.027 300.163 111.371 302.824 111.371C305.495 111.371 307.541 112.027 308.963 113.34C310.385 114.643 311.096 116.576 311.096 119.137C311.096 121.689 310.385 123.621 308.963 124.934C307.541 126.246 305.495 126.902 302.824 126.902C300.163 126.902 298.121 126.246 296.699 124.934ZM300.158 115.582C299.593 116.32 299.311 117.501 299.311 119.123C299.311 120.745 299.593 121.93 300.158 122.678C300.723 123.425 301.612 123.799 302.824 123.799C304.046 123.799 304.939 123.425 305.504 122.678C306.078 121.93 306.365 120.745 306.365 119.123C306.365 117.501 306.078 116.32 305.504 115.582C304.939 114.844 304.046 114.475 302.824 114.475C301.612 114.475 300.723 114.844 300.158 115.582Z" fill="#3A4C79"/>
<path d="M318.945 125.795V112.492C318.945 112.246 319.023 112.046 319.178 111.891C319.342 111.727 319.542 111.645 319.779 111.645H322.842C323.088 111.645 323.288 111.727 323.443 111.891C323.598 112.046 323.676 112.246 323.676 112.492V117.387H329.664V112.492C329.664 112.246 329.741 112.046 329.896 111.891C330.06 111.727 330.265 111.645 330.512 111.645H333.56C333.806 111.645 334.007 111.727 334.162 111.891C334.317 112.046 334.394 112.246 334.394 112.492V125.795C334.394 126.041 334.317 126.242 334.162 126.396C334.007 126.551 333.806 126.629 333.56 126.629H330.512C330.265 126.629 330.06 126.551 329.896 126.396C329.741 126.232 329.664 126.032 329.664 125.795V120.695H323.676V125.795C323.676 126.041 323.594 126.242 323.43 126.396C323.275 126.551 323.079 126.629 322.842 126.629H319.779C319.533 126.629 319.333 126.551 319.178 126.396C319.023 126.242 318.945 126.041 318.945 125.795Z" fill="#3A4C79"/>
<path d="M344.335 124.906C342.932 123.576 342.23 121.661 342.23 119.164C342.23 116.658 342.936 114.734 344.349 113.395C345.762 112.046 347.722 111.371 350.228 111.371C352.735 111.371 354.69 112.027 356.093 113.34C357.497 114.643 358.199 116.516 358.199 118.959V119.738C358.199 119.984 358.117 120.189 357.953 120.354C357.798 120.508 357.597 120.586 357.351 120.586H347.056C347.147 121.707 347.466 122.523 348.013 123.033C348.569 123.544 349.453 123.799 350.666 123.799C351.878 123.799 352.707 123.525 353.154 122.979C353.6 122.432 354.152 122.154 354.808 122.145H356.845C357.091 122.145 357.292 122.227 357.447 122.391C357.611 122.546 357.693 122.746 357.693 122.992C357.693 125.608 355.2 126.911 350.214 126.902C347.699 126.902 345.739 126.237 344.335 124.906ZM347.029 117.701H353.386C353.295 115.55 352.238 114.475 350.214 114.475C348.2 114.475 347.138 115.55 347.029 117.701Z" fill="#3A4C79"/>
<path d="M366.034 125.795V112.492C366.034 112.246 366.112 112.046 366.267 111.891C366.431 111.727 366.631 111.645 366.868 111.645H369.931C370.177 111.645 370.377 111.727 370.532 111.891C370.687 112.046 370.765 112.246 370.765 112.492V117.387H376.753V112.492C376.753 112.246 376.831 112.046 376.986 111.891C377.15 111.727 377.355 111.645 377.601 111.645H380.65C380.896 111.645 381.096 111.727 381.251 111.891C381.406 112.046 381.484 112.246 381.484 112.492V125.795C381.484 126.041 381.406 126.242 381.251 126.396C381.096 126.551 380.896 126.629 380.65 126.629H377.601C377.355 126.629 377.15 126.551 376.986 126.396C376.831 126.232 376.753 126.032 376.753 125.795V120.695H370.765V125.795C370.765 126.041 370.683 126.242 370.519 126.396C370.364 126.551 370.168 126.629 369.931 126.629H366.868C366.622 126.629 366.422 126.551 366.267 126.396C366.112 126.242 366.034 126.041 366.034 125.795Z" fill="#3A4C79"/>
<path d="M388.759 114.119V112.492C388.759 112.246 388.836 112.046 388.991 111.891C389.155 111.727 389.36 111.645 389.606 111.645H403.073C403.319 111.645 403.52 111.727 403.675 111.891C403.83 112.046 403.907 112.246 403.907 112.492V114.119C403.907 114.356 403.83 114.557 403.675 114.721C403.52 114.876 403.319 114.953 403.073 114.953H398.712V125.795C398.712 126.032 398.63 126.232 398.466 126.396C398.311 126.551 398.11 126.629 397.864 126.629H394.815C394.569 126.629 394.364 126.551 394.2 126.396C394.045 126.232 393.968 126.032 393.968 125.795V114.953H389.606C389.36 114.953 389.155 114.876 388.991 114.721C388.836 114.557 388.759 114.356 388.759 114.119Z" fill="#3A4C79"/>
<path d="M411.21 125.795V112.492C411.21 112.246 411.287 112.046 411.442 111.891C411.606 111.727 411.807 111.645 412.044 111.645H414.901C415.147 111.645 415.348 111.727 415.503 111.891C415.667 112.046 415.749 112.246 415.749 112.492V121.475L420.561 112.629C420.707 112.346 420.93 112.114 421.231 111.932C421.532 111.74 421.823 111.645 422.106 111.645H425.934C426.18 111.645 426.381 111.727 426.536 111.891C426.7 112.046 426.782 112.246 426.782 112.492V125.795C426.782 126.041 426.7 126.242 426.536 126.396C426.381 126.551 426.18 126.629 425.934 126.629H423.077C422.831 126.629 422.63 126.551 422.475 126.396C422.32 126.232 422.243 126.032 422.243 125.795V116.826L417.43 125.645C417.284 125.909 417.061 126.141 416.76 126.342C416.46 126.533 416.168 126.629 415.885 126.629H412.044C411.797 126.629 411.597 126.551 411.442 126.396C411.287 126.242 411.21 126.041 411.21 125.795Z" fill="#3A4C79"/>
</svg>
