<svg width="200" height="28" viewBox="0 0 200 28" fill="none" xmlns="http://www.w3.org/2000/svg">
<path d="M0.00488699 0L23.2247 0.0257336L23.2198 3.93107L13.6849 3.9205L13.6556 27.3335L9.5056 27.3289L9.5349 3.9159L0 3.90534L0.00488699 0Z" fill="#3A4C79"/>
<path d="M59.0062 9.81922C59.0014 13.6293 57.2712 15.7991 53.8156 16.3287L59.2676 27.384L54.6723 27.379L49.301 16.4571L40.2115 16.447L40.1978 27.3629L36.0478 27.3583L36.082 0.0399812L51.9735 0.0575943C56.6701 0.0627993 59.0156 2.2816 59.0101 6.714L59.0062 9.81922ZM40.2164 12.5417L51.7352 12.5544C52.8419 12.5557 53.6384 12.3279 54.1248 11.8713C54.6113 11.4146 54.8551 10.6655 54.8564 9.62412L54.8598 6.89991C54.8611 5.85849 54.6192 5.1089 54.1339 4.65115C53.6486 4.1934 52.8526 3.96391 51.7459 3.96269L40.2271 3.94992L40.2164 12.5417Z" fill="#3A4C79"/>
<path d="M77.9894 0.0864246L77.9552 27.4048L73.8052 27.4002L73.8394 0.0818265L77.9894 0.0864246Z" fill="#3A4C79"/>
<path d="M108.283 27.4384L97.4776 7.40435L97.4526 27.4264L93.3026 27.4218L93.3368 0.103433L97.8714 0.108458L108.899 20.6952L119.998 0.132979L124.512 0.137982L124.478 27.4563L120.348 27.4517L120.374 7.42973L109.518 27.4397L108.283 27.4384Z" fill="#3A4C79"/>
<path d="M152.735 0.169259L163.896 27.5L159.746 27.4954L157.182 21.2059L144.085 21.1914L141.506 27.4752L137.356 27.4706L148.585 0.16466L152.735 0.169259ZM145.669 17.2878L155.588 17.2988L150.664 5.25344L145.669 17.2878Z" fill="#3A4C79"/>
<path d="M178.278 0.0607185L186.704 12.8339L195.182 0.079453L200 0.0847929L188.784 16.551L188.771 27.3907L184.621 27.3861L184.634 16.5464L173.46 0.0553791L178.278 0.0607185Z" fill="#3A4C79"/>
<path d="M159.864 0.0894743L171.025 27.4202L166.875 27.4156L164.312 21.1261L151.214 21.1116L148.635 27.3954L144.485 27.3908L155.714 0.0848752L159.864 0.0894743ZM152.798 17.208L162.717 17.219L157.793 5.17366L152.798 17.208Z" fill="#3A4C79"/>
</svg>
